<?xml version="1.0" encoding="utf-8" standalone="no"?>
<!DOCTYPE svg PUBLIC "-//W3C//DTD SVG 1.1//EN"
  "http://www.w3.org/Graphics/SVG/1.1/DTD/svg11.dtd">
<!-- Created with matplotlib (https://matplotlib.org/) -->
<svg height="250.7175pt" version="1.1" viewBox="0 0 386.4375 250.7175" width="386.4375pt" xmlns="http://www.w3.org/2000/svg" xmlns:xlink="http://www.w3.org/1999/xlink">
 <defs>
  <style type="text/css">
*{stroke-linecap:butt;stroke-linejoin:round;}
  </style>
 </defs>
 <g id="figure_1">
  <g id="patch_1">
   <path d="M -0 250.7175 
L 386.4375 250.7175 
L 386.4375 0 
L -0 0 
z
" style="fill:#ffffff;"/>
  </g>
  <g id="axes_1">
   <g id="patch_2">
    <path d="M 58.3575 214.8 
L 337.3575 214.8 
L 337.3575 20.76 
L 58.3575 20.76 
z
" style="fill:#ffffff;"/>
   </g>
   <g id="matplotlib.axis_1">
    <g id="xtick_1">
     <g id="line2d_1">
      <path clip-path="url(#p1f587252c8)" d="M 74.005834 214.8 
L 74.005834 20.76 
" style="fill:none;stroke:#b0b0b0;stroke-linecap:square;stroke-width:0.5;"/>
     </g>
     <g id="line2d_2">
      <defs>
       <path d="M 0 0 
L 0 -3 
" id="m5eda859a88" style="stroke:#000000;stroke-width:0.5;"/>
      </defs>
      <g>
       <use style="stroke:#000000;stroke-width:0.5;" x="74.005834" xlink:href="#m5eda859a88" y="214.8"/>
      </g>
     </g>
     <g id="line2d_3">
      <defs>
       <path d="M 0 0 
L 0 3 
" id="m35bdb36df6" style="stroke:#000000;stroke-width:0.5;"/>
      </defs>
      <g>
       <use style="stroke:#000000;stroke-width:0.5;" x="74.005834" xlink:href="#m35bdb36df6" y="20.76"/>
      </g>
     </g>
     <g id="text_1">
      <!-- 0.00 -->
      <defs>
       <path d="M 4.59375 24.90625 
Q 4.5 28.90625 4.5 31.90625 
Q 4.5 34.90625 4.546875 36.90625 
Q 4.59375 38.90625 5.09375 42.75 
Q 5.59375 46.59375 6.4375 49.296875 
Q 7.296875 52 9.09375 55.296875 
Q 10.90625 58.59375 13.34375 60.640625 
Q 15.796875 62.703125 19.75 64.09375 
Q 23.703125 65.5 28.703125 65.5 
Q 33.703125 65.5 37.640625 64.046875 
Q 41.59375 62.59375 44.046875 60.59375 
Q 46.5 58.59375 48.296875 55.25 
Q 50.09375 51.90625 50.9375 49.25 
Q 51.796875 46.59375 52.296875 42.75 
Q 52.796875 38.90625 52.84375 36.90625 
Q 52.90625 34.90625 52.90625 31.90625 
Q 52.90625 28.90625 52.84375 26.84375 
Q 52.796875 24.796875 52.296875 21.046875 
Q 51.796875 17.296875 50.9375 14.640625 
Q 50.09375 12 48.296875 8.796875 
Q 46.5 5.59375 44 3.59375 
Q 41.5 1.59375 37.546875 0.25 
Q 33.59375 -1.09375 28.703125 -1.09375 
Q 23.703125 -1.09375 19.75 0.296875 
Q 15.796875 1.703125 13.34375 3.640625 
Q 10.90625 5.59375 9.09375 8.84375 
Q 7.296875 12.09375 6.4375 14.6875 
Q 5.59375 17.296875 5.09375 21.09375 
Q 4.59375 24.90625 4.5 28.90625 
z
M 17.296875 33.09375 
Q 17.296875 17.203125 18.203125 12 
Q 19.09375 7.09375 22.25 4.796875 
Q 25.40625 2.5 28.703125 2.5 
Q 30.703125 2.5 32.59375 3.140625 
Q 34.5 3.796875 36.640625 6.34375 
Q 38.796875 8.90625 39.40625 13.203125 
Q 40.09375 18.40625 40.09375 33.09375 
Q 40.09375 51.90625 38.40625 55.59375 
Q 37.09375 58.703125 34.390625 60.296875 
Q 31.703125 61.90625 28.703125 61.90625 
Q 26.90625 61.90625 25.046875 61.40625 
Q 23.203125 60.90625 20.890625 58.453125 
Q 18.59375 56 18.09375 52 
Q 17.296875 46.796875 17.296875 33.09375 
z
" id="CMUSerif-Bold-48"/>
       <path d="M 8.09375 7.796875 
Q 8.09375 11.203125 10.5 13.390625 
Q 12.90625 15.59375 15.90625 15.59375 
Q 19 15.59375 21.34375 13.34375 
Q 23.703125 11.09375 23.703125 7.796875 
Q 23.703125 4.796875 21.453125 2.390625 
Q 19.203125 0 15.90625 0 
Q 12.796875 0 10.4375 2.25 
Q 8.09375 4.5 8.09375 7.796875 
z
" id="CMUSerif-Bold-46"/>
      </defs>
      <g transform="translate(61.741459 226.62875)scale(0.12 -0.12)">
       <use xlink:href="#CMUSerif-Bold-48"/>
       <use x="57.499985" xlink:href="#CMUSerif-Bold-46"/>
       <use x="89.399979" xlink:href="#CMUSerif-Bold-48"/>
       <use x="146.899963" xlink:href="#CMUSerif-Bold-48"/>
      </g>
     </g>
    </g>
    <g id="xtick_2">
     <g id="line2d_4">
      <path clip-path="url(#p1f587252c8)" d="M 140.335053 214.8 
L 140.335053 20.76 
" style="fill:none;stroke:#b0b0b0;stroke-linecap:square;stroke-width:0.5;"/>
     </g>
     <g id="line2d_5">
      <g>
       <use style="stroke:#000000;stroke-width:0.5;" x="140.335053" xlink:href="#m5eda859a88" y="214.8"/>
      </g>
     </g>
     <g id="line2d_6">
      <g>
       <use style="stroke:#000000;stroke-width:0.5;" x="140.335053" xlink:href="#m35bdb36df6" y="20.76"/>
      </g>
     </g>
     <g id="text_2">
      <!-- 0.05 -->
      <defs>
       <path d="M 5.703125 15.90625 
Q 5.703125 18.703125 7.140625 20.390625 
Q 8.59375 22.09375 9.9375 22.5 
Q 11.296875 22.90625 12.40625 22.90625 
Q 14.796875 22.90625 16.9375 21.25 
Q 19.09375 19.59375 19.09375 16.09375 
Q 19.09375 13.09375 17.25 11.34375 
Q 15.40625 9.59375 12.59375 9.40625 
Q 17.203125 3.203125 25.5 3.203125 
Q 28 3.203125 29.953125 3.796875 
Q 31.90625 4.40625 33.15625 5.296875 
Q 34.40625 6.203125 35.25 7.75 
Q 36.09375 9.296875 36.546875 10.546875 
Q 37 11.796875 37.203125 13.890625 
Q 37.40625 16 37.453125 17.203125 
Q 37.5 18.40625 37.5 20.5 
Q 37.5 23.703125 37.453125 25.390625 
Q 37.40625 27.09375 36.953125 29.75 
Q 36.5 32.40625 35.59375 33.75 
Q 34.703125 35.09375 32.953125 36.1875 
Q 31.203125 37.296875 28.59375 37.296875 
Q 19.90625 37.296875 15.203125 31.703125 
Q 14.203125 30.5 13 30.5 
Q 12 30.5 11.5 30.953125 
Q 11 31.40625 10.890625 31.953125 
Q 10.796875 32.5 10.796875 33.59375 
L 10.796875 62.796875 
Q 10.796875 63.796875 10.84375 64.25 
Q 10.90625 64.703125 11.203125 65.09375 
Q 11.5 65.5 12.203125 65.5 
Q 12.296875 65.5 13.5 65.09375 
Q 21.59375 62.296875 29 62.296875 
Q 37 62.296875 44.296875 65.09375 
Q 45.40625 65.5 45.796875 65.5 
Q 47.203125 65.5 47.203125 63.703125 
Q 47.203125 62.59375 45.453125 60.4375 
Q 43.703125 58.296875 40.796875 55.890625 
Q 37.90625 53.5 33.203125 51.703125 
Q 28.5 49.90625 23.40625 49.90625 
Q 20 49.90625 16.09375 50.59375 
L 16.09375 37.40625 
Q 21.203125 40.90625 29 40.90625 
Q 39.703125 40.90625 45.703125 35 
Q 51.703125 29.09375 51.703125 20.09375 
Q 51.703125 10.796875 44.703125 4.84375 
Q 37.703125 -1.09375 25.90625 -1.09375 
Q 17 -1.09375 11.34375 4.046875 
Q 5.703125 9.203125 5.703125 15.90625 
z
" id="CMUSerif-Bold-53"/>
      </defs>
      <g transform="translate(128.070678 226.62875)scale(0.12 -0.12)">
       <use xlink:href="#CMUSerif-Bold-48"/>
       <use x="57.499985" xlink:href="#CMUSerif-Bold-46"/>
       <use x="89.399979" xlink:href="#CMUSerif-Bold-48"/>
       <use x="146.899963" xlink:href="#CMUSerif-Bold-53"/>
      </g>
     </g>
    </g>
    <g id="xtick_3">
     <g id="line2d_7">
      <path clip-path="url(#p1f587252c8)" d="M 206.664271 214.8 
L 206.664271 20.76 
" style="fill:none;stroke:#b0b0b0;stroke-linecap:square;stroke-width:0.5;"/>
     </g>
     <g id="line2d_8">
      <g>
       <use style="stroke:#000000;stroke-width:0.5;" x="206.664271" xlink:href="#m5eda859a88" y="214.8"/>
      </g>
     </g>
     <g id="line2d_9">
      <g>
       <use style="stroke:#000000;stroke-width:0.5;" x="206.664271" xlink:href="#m35bdb36df6" y="20.76"/>
      </g>
     </g>
     <g id="text_3">
      <!-- 0.10 -->
      <defs>
       <path d="M 8.5 54.40625 
L 8.5 59.09375 
L 10.5 59.09375 
Q 22.90625 59.09375 30.59375 64.796875 
Q 31.5 65.5 32.796875 65.5 
Q 34.59375 65.5 35 64.84375 
Q 35.40625 64.203125 35.40625 62.296875 
L 35.40625 4.703125 
L 49.40625 4.703125 
L 49.40625 0 
Q 45 0.296875 29.5 0.296875 
Q 14 0.296875 9.59375 0 
L 9.59375 4.703125 
L 23.5 4.703125 
L 23.5 56.40625 
Q 17.296875 54.40625 10.5 54.40625 
z
" id="CMUSerif-Bold-49"/>
      </defs>
      <g transform="translate(194.399896 226.62875)scale(0.12 -0.12)">
       <use xlink:href="#CMUSerif-Bold-48"/>
       <use x="57.499985" xlink:href="#CMUSerif-Bold-46"/>
       <use x="89.399979" xlink:href="#CMUSerif-Bold-49"/>
       <use x="146.899963" xlink:href="#CMUSerif-Bold-48"/>
      </g>
     </g>
    </g>
    <g id="xtick_4">
     <g id="line2d_10">
      <path clip-path="url(#p1f587252c8)" d="M 272.99349 214.8 
L 272.99349 20.76 
" style="fill:none;stroke:#b0b0b0;stroke-linecap:square;stroke-width:0.5;"/>
     </g>
     <g id="line2d_11">
      <g>
       <use style="stroke:#000000;stroke-width:0.5;" x="272.99349" xlink:href="#m5eda859a88" y="214.8"/>
      </g>
     </g>
     <g id="line2d_12">
      <g>
       <use style="stroke:#000000;stroke-width:0.5;" x="272.99349" xlink:href="#m35bdb36df6" y="20.76"/>
      </g>
     </g>
     <g id="text_4">
      <!-- 0.15 -->
      <g transform="translate(260.729115 226.62875)scale(0.12 -0.12)">
       <use xlink:href="#CMUSerif-Bold-48"/>
       <use x="57.499985" xlink:href="#CMUSerif-Bold-46"/>
       <use x="89.399979" xlink:href="#CMUSerif-Bold-49"/>
       <use x="146.899963" xlink:href="#CMUSerif-Bold-53"/>
      </g>
     </g>
    </g>
    <g id="xtick_5">
     <g id="line2d_13">
      <defs>
       <path d="M 0 0 
L 0 -1.5 
" id="m7852f4c787" style="stroke:#000000;stroke-width:0.5;"/>
      </defs>
      <g>
       <use style="stroke:#000000;stroke-width:0.5;" x="60.73999" xlink:href="#m7852f4c787" y="214.8"/>
      </g>
     </g>
     <g id="line2d_14">
      <defs>
       <path d="M 0 0 
L 0 1.5 
" id="m92d7659303" style="stroke:#000000;stroke-width:0.5;"/>
      </defs>
      <g>
       <use style="stroke:#000000;stroke-width:0.5;" x="60.73999" xlink:href="#m92d7659303" y="20.76"/>
      </g>
     </g>
    </g>
    <g id="xtick_6">
     <g id="line2d_15">
      <g>
       <use style="stroke:#000000;stroke-width:0.5;" x="87.271678" xlink:href="#m7852f4c787" y="214.8"/>
      </g>
     </g>
     <g id="line2d_16">
      <g>
       <use style="stroke:#000000;stroke-width:0.5;" x="87.271678" xlink:href="#m92d7659303" y="20.76"/>
      </g>
     </g>
    </g>
    <g id="xtick_7">
     <g id="line2d_17">
      <g>
       <use style="stroke:#000000;stroke-width:0.5;" x="100.537522" xlink:href="#m7852f4c787" y="214.8"/>
      </g>
     </g>
     <g id="line2d_18">
      <g>
       <use style="stroke:#000000;stroke-width:0.5;" x="100.537522" xlink:href="#m92d7659303" y="20.76"/>
      </g>
     </g>
    </g>
    <g id="xtick_8">
     <g id="line2d_19">
      <g>
       <use style="stroke:#000000;stroke-width:0.5;" x="113.803365" xlink:href="#m7852f4c787" y="214.8"/>
      </g>
     </g>
     <g id="line2d_20">
      <g>
       <use style="stroke:#000000;stroke-width:0.5;" x="113.803365" xlink:href="#m92d7659303" y="20.76"/>
      </g>
     </g>
    </g>
    <g id="xtick_9">
     <g id="line2d_21">
      <g>
       <use style="stroke:#000000;stroke-width:0.5;" x="127.069209" xlink:href="#m7852f4c787" y="214.8"/>
      </g>
     </g>
     <g id="line2d_22">
      <g>
       <use style="stroke:#000000;stroke-width:0.5;" x="127.069209" xlink:href="#m92d7659303" y="20.76"/>
      </g>
     </g>
    </g>
    <g id="xtick_10">
     <g id="line2d_23">
      <g>
       <use style="stroke:#000000;stroke-width:0.5;" x="153.600896" xlink:href="#m7852f4c787" y="214.8"/>
      </g>
     </g>
     <g id="line2d_24">
      <g>
       <use style="stroke:#000000;stroke-width:0.5;" x="153.600896" xlink:href="#m92d7659303" y="20.76"/>
      </g>
     </g>
    </g>
    <g id="xtick_11">
     <g id="line2d_25">
      <g>
       <use style="stroke:#000000;stroke-width:0.5;" x="166.86674" xlink:href="#m7852f4c787" y="214.8"/>
      </g>
     </g>
     <g id="line2d_26">
      <g>
       <use style="stroke:#000000;stroke-width:0.5;" x="166.86674" xlink:href="#m92d7659303" y="20.76"/>
      </g>
     </g>
    </g>
    <g id="xtick_12">
     <g id="line2d_27">
      <g>
       <use style="stroke:#000000;stroke-width:0.5;" x="180.132584" xlink:href="#m7852f4c787" y="214.8"/>
      </g>
     </g>
     <g id="line2d_28">
      <g>
       <use style="stroke:#000000;stroke-width:0.5;" x="180.132584" xlink:href="#m92d7659303" y="20.76"/>
      </g>
     </g>
    </g>
    <g id="xtick_13">
     <g id="line2d_29">
      <g>
       <use style="stroke:#000000;stroke-width:0.5;" x="193.398427" xlink:href="#m7852f4c787" y="214.8"/>
      </g>
     </g>
     <g id="line2d_30">
      <g>
       <use style="stroke:#000000;stroke-width:0.5;" x="193.398427" xlink:href="#m92d7659303" y="20.76"/>
      </g>
     </g>
    </g>
    <g id="xtick_14">
     <g id="line2d_31">
      <g>
       <use style="stroke:#000000;stroke-width:0.5;" x="219.930115" xlink:href="#m7852f4c787" y="214.8"/>
      </g>
     </g>
     <g id="line2d_32">
      <g>
       <use style="stroke:#000000;stroke-width:0.5;" x="219.930115" xlink:href="#m92d7659303" y="20.76"/>
      </g>
     </g>
    </g>
    <g id="xtick_15">
     <g id="line2d_33">
      <g>
       <use style="stroke:#000000;stroke-width:0.5;" x="233.195959" xlink:href="#m7852f4c787" y="214.8"/>
      </g>
     </g>
     <g id="line2d_34">
      <g>
       <use style="stroke:#000000;stroke-width:0.5;" x="233.195959" xlink:href="#m92d7659303" y="20.76"/>
      </g>
     </g>
    </g>
    <g id="xtick_16">
     <g id="line2d_35">
      <g>
       <use style="stroke:#000000;stroke-width:0.5;" x="246.461802" xlink:href="#m7852f4c787" y="214.8"/>
      </g>
     </g>
     <g id="line2d_36">
      <g>
       <use style="stroke:#000000;stroke-width:0.5;" x="246.461802" xlink:href="#m92d7659303" y="20.76"/>
      </g>
     </g>
    </g>
    <g id="xtick_17">
     <g id="line2d_37">
      <g>
       <use style="stroke:#000000;stroke-width:0.5;" x="259.727646" xlink:href="#m7852f4c787" y="214.8"/>
      </g>
     </g>
     <g id="line2d_38">
      <g>
       <use style="stroke:#000000;stroke-width:0.5;" x="259.727646" xlink:href="#m92d7659303" y="20.76"/>
      </g>
     </g>
    </g>
    <g id="xtick_18">
     <g id="line2d_39">
      <g>
       <use style="stroke:#000000;stroke-width:0.5;" x="286.259333" xlink:href="#m7852f4c787" y="214.8"/>
      </g>
     </g>
     <g id="line2d_40">
      <g>
       <use style="stroke:#000000;stroke-width:0.5;" x="286.259333" xlink:href="#m92d7659303" y="20.76"/>
      </g>
     </g>
    </g>
    <g id="xtick_19">
     <g id="line2d_41">
      <g>
       <use style="stroke:#000000;stroke-width:0.5;" x="299.525177" xlink:href="#m7852f4c787" y="214.8"/>
      </g>
     </g>
     <g id="line2d_42">
      <g>
       <use style="stroke:#000000;stroke-width:0.5;" x="299.525177" xlink:href="#m92d7659303" y="20.76"/>
      </g>
     </g>
    </g>
    <g id="xtick_20">
     <g id="line2d_43">
      <g>
       <use style="stroke:#000000;stroke-width:0.5;" x="312.791021" xlink:href="#m7852f4c787" y="214.8"/>
      </g>
     </g>
     <g id="line2d_44">
      <g>
       <use style="stroke:#000000;stroke-width:0.5;" x="312.791021" xlink:href="#m92d7659303" y="20.76"/>
      </g>
     </g>
    </g>
    <g id="xtick_21">
     <g id="line2d_45">
      <g>
       <use style="stroke:#000000;stroke-width:0.5;" x="326.056864" xlink:href="#m7852f4c787" y="214.8"/>
      </g>
     </g>
     <g id="line2d_46">
      <g>
       <use style="stroke:#000000;stroke-width:0.5;" x="326.056864" xlink:href="#m92d7659303" y="20.76"/>
      </g>
     </g>
    </g>
    <g id="text_5">
     <!-- $\mathrm{k} - \mathrm{k}_F$ [$\mathrm{\AA}^{-1}$] -->
     <defs>
      <path d="M 28.609375 0 
L 3.421875 0 
L 3.421875 5.171875 
L 11.53125 5.171875 
L 11.53125 70.796875 
L 2.875 70.796875 
L 2.875 75.984375 
L 20.515625 75.984375 
L 20.515625 26.515625 
L 42.390625 46.6875 
L 34.90625 46.6875 
L 34.90625 51.90625 
L 58.40625 51.90625 
L 58.40625 46.6875 
L 49.515625 46.6875 
L 34.078125 32.421875 
L 53.8125 5.171875 
L 61.28125 5.171875 
L 61.28125 0 
L 35.6875 0 
L 35.6875 5.171875 
L 43.109375 5.171875 
L 27.59375 26.515625 
L 20.515625 19.921875 
L 20.515625 5.171875 
L 28.609375 5.171875 
z
" id="DejaVuSerif-107"/>
      <path d="M 10.59375 35.296875 
L 73.1875 35.296875 
L 73.1875 27.390625 
L 10.59375 27.390625 
z
" id="DejaVuSerif-8722"/>
      <path d="M -1.515625 0 
L -0.53125 5.171875 
L 8.734375 5.171875 
L 20.90625 67.671875 
L 11.625 67.671875 
L 12.640625 72.90625 
L 72.3125 72.90625 
L 69.1875 56.6875 
L 63.1875 56.6875 
L 65.140625 66.890625 
L 30.671875 66.890625 
L 25.921875 42.484375 
L 50.828125 42.484375 
L 52.59375 51.609375 
L 58.59375 51.609375 
L 53.90625 27.390625 
L 47.90625 27.390625 
L 49.65625 36.53125 
L 24.75 36.53125 
L 18.65625 5.171875 
L 30.328125 5.171875 
L 29.34375 0 
z
" id="DejaVuSerif-Italic-70"/>
      <path id="CMUSerif-Bold-32"/>
      <path d="M 10.5 -25 
L 10.5 75 
L 29.40625 75 
L 29.40625 71.40625 
L 21.40625 71.40625 
L 21.40625 -21.40625 
L 29.40625 -21.40625 
L 29.40625 -25 
z
" id="CMUSerif-Bold-91"/>
      <path d="M 43.3125 79.390625 
Q 43.3125 82.46875 41.140625 84.640625 
Q 38.96875 86.8125 35.890625 86.8125 
Q 32.765625 86.8125 30.640625 84.6875 
Q 28.515625 82.5625 28.515625 79.390625 
Q 28.515625 76.3125 30.640625 74.15625 
Q 32.765625 72.015625 35.890625 72.015625 
Q 38.96875 72.015625 41.140625 74.15625 
Q 43.3125 76.3125 43.3125 79.390625 
z
M 20.015625 26.421875 
L 46.6875 26.421875 
L 33.40625 61.078125 
z
M -0.59375 0 
L -0.59375 5.171875 
L 5.8125 5.171875 
L 29.6875 67.578125 
Q 26.171875 69.390625 24.34375 72.359375 
Q 22.515625 75.34375 22.515625 79.390625 
Q 22.515625 84.96875 26.421875 88.890625 
Q 30.328125 92.828125 35.890625 92.828125 
Q 41.453125 92.828125 45.375 88.890625 
Q 49.3125 84.96875 49.3125 79.390625 
Q 49.3125 75.484375 47.40625 72.375 
Q 45.515625 69.28125 42 67.578125 
L 66.015625 5.171875 
L 73.1875 5.171875 
L 73.1875 0 
L 46.6875 0 
L 46.6875 5.171875 
L 54.78125 5.171875 
L 48.6875 21.1875 
L 18.015625 21.1875 
L 11.921875 5.171875 
L 19.921875 5.171875 
L 19.921875 0 
z
" id="DejaVuSerif-197"/>
      <path d="M 14.203125 0 
L 14.203125 5.171875 
L 26.90625 5.171875 
L 26.90625 65.828125 
L 12.203125 56.296875 
L 12.203125 62.703125 
L 29.984375 74.21875 
L 36.71875 74.21875 
L 36.71875 5.171875 
L 49.421875 5.171875 
L 49.421875 0 
z
" id="DejaVuSerif-49"/>
      <path d="M 2.5 -21.40625 
L 10.5 -21.40625 
L 10.5 71.40625 
L 2.5 71.40625 
L 2.5 75 
L 21.40625 75 
L 21.40625 -25 
L 2.5 -25 
z
" id="CMUSerif-Bold-93"/>
     </defs>
     <g transform="translate(163.2975 244.1175)scale(0.12 -0.12)">
      <use transform="translate(0 0.171875)" xlink:href="#DejaVuSerif-107"/>
      <use transform="translate(79.560547 0.171875)" xlink:href="#DejaVuSerif-8722"/>
      <use transform="translate(182.314453 0.171875)" xlink:href="#DejaVuSerif-107"/>
      <use transform="translate(243.818516 -15.4)scale(0.7)" xlink:href="#DejaVuSerif-Italic-70"/>
      <use transform="translate(294.983164 0.171875)" xlink:href="#CMUSerif-Bold-32"/>
      <use transform="translate(333.283152 0.171875)" xlink:href="#CMUSerif-Bold-91"/>
      <use transform="translate(365.183146 0.171875)" xlink:href="#DejaVuSerif-197"/>
      <use transform="translate(438.308302 36.50625)scale(0.7)" xlink:href="#DejaVuSerif-8722"/>
      <use transform="translate(496.960646 36.50625)scale(0.7)" xlink:href="#DejaVuSerif-49"/>
      <use transform="translate(544.092091 0.171875)" xlink:href="#CMUSerif-Bold-93"/>
     </g>
    </g>
   </g>
   <g id="matplotlib.axis_2">
    <g id="ytick_1">
     <g id="line2d_47">
      <path clip-path="url(#p1f587252c8)" d="M 58.3575 201.493069 
L 337.3575 201.493069 
" style="fill:none;stroke:#b0b0b0;stroke-linecap:square;stroke-width:0.5;"/>
     </g>
     <g id="line2d_48">
      <defs>
       <path d="M 0 0 
L 3 0 
" id="m66726b272a" style="stroke:#000000;stroke-width:0.5;"/>
      </defs>
      <g>
       <use style="stroke:#000000;stroke-width:0.5;" x="58.3575" xlink:href="#m66726b272a" y="201.493069"/>
      </g>
     </g>
     <g id="line2d_49">
      <defs>
       <path d="M 0 0 
L -3 0 
" id="m37bc226d52" style="stroke:#000000;stroke-width:0.5;"/>
      </defs>
      <g>
       <use style="stroke:#000000;stroke-width:0.5;" x="337.3575" xlink:href="#m37bc226d52" y="201.493069"/>
      </g>
     </g>
     <g id="text_6">
      <!-- −0.30 -->
      <defs>
       <path d="M 9.203125 23.203125 
Q 6.40625 23.203125 6.40625 25 
Q 6.40625 26.796875 9.296875 26.796875 
L 80 26.796875 
Q 82.796875 26.796875 82.796875 25 
Q 82.796875 23.296875 80.296875 23.203125 
L 9.203125 23.203125 
z
" id="CMUSerif-Bold-8722"/>
       <path d="M 4.796875 13.90625 
Q 4.796875 17.59375 7 19.640625 
Q 9.203125 21.703125 12.5 21.703125 
Q 15.796875 21.703125 17.9375 19.59375 
Q 20.09375 17.5 20.09375 14.09375 
Q 20.09375 8.203125 14.296875 6.59375 
Q 19.703125 3.203125 26.90625 3.203125 
Q 29.90625 3.203125 32 4.390625 
Q 34.09375 5.59375 35.09375 7.046875 
Q 36.09375 8.5 36.640625 10.890625 
Q 37.203125 13.296875 37.25 14.640625 
Q 37.296875 16 37.296875 18.09375 
Q 37.296875 20.296875 37.25 21.640625 
Q 37.203125 23 36.59375 25.453125 
Q 36 27.90625 34.953125 29.296875 
Q 33.90625 30.703125 31.703125 31.84375 
Q 29.5 33 26.40625 33 
L 22 33 
Q 20.90625 33 20.453125 33.046875 
Q 20 33.09375 19.59375 33.5 
Q 19.203125 33.90625 19.203125 34.796875 
Q 19.203125 36.40625 20.40625 36.5 
Q 21.5 36.703125 25.203125 36.90625 
Q 27.703125 37 29.59375 38.046875 
Q 31.5 39.09375 32.546875 40.796875 
Q 33.59375 42.5 34.296875 44.09375 
Q 35 45.703125 35.296875 47.59375 
Q 35.59375 49.5 35.640625 50.34375 
Q 35.703125 51.203125 35.703125 51.90625 
Q 35.703125 61.59375 27.09375 61.59375 
Q 20.59375 61.59375 16.09375 58 
Q 21.90625 56.59375 21.90625 51 
Q 21.90625 48.09375 20 46.09375 
Q 18.09375 44.09375 14.90625 44.09375 
Q 12 44.09375 10 46.046875 
Q 8 48 8 51.09375 
Q 8 57.203125 13.453125 61.34375 
Q 18.90625 65.5 27.703125 65.5 
Q 37.90625 65.5 43.65625 61.546875 
Q 49.40625 57.59375 49.40625 51.59375 
Q 49.40625 45.59375 45.203125 41.296875 
Q 41 37 35.203125 35.203125 
Q 40.296875 34.09375 43.9375 32.046875 
Q 47.59375 30 49.34375 27.453125 
Q 51.09375 24.90625 51.84375 22.65625 
Q 52.59375 20.40625 52.59375 18 
Q 52.59375 10.296875 46.25 4.59375 
Q 39.90625 -1.09375 27.40625 -1.09375 
Q 17.59375 -1.09375 11.1875 3.046875 
Q 4.796875 7.203125 4.796875 13.90625 
z
" id="CMUSerif-Bold-51"/>
      </defs>
      <g transform="translate(19.6 205.657444)scale(0.12 -0.12)">
       <use xlink:href="#CMUSerif-Bold-8722"/>
       <use x="89.399994" xlink:href="#CMUSerif-Bold-48"/>
       <use x="146.899979" xlink:href="#CMUSerif-Bold-46"/>
       <use x="178.799973" xlink:href="#CMUSerif-Bold-51"/>
       <use x="236.299957" xlink:href="#CMUSerif-Bold-48"/>
      </g>
     </g>
    </g>
    <g id="ytick_2">
     <g id="line2d_50">
      <path clip-path="url(#p1f587252c8)" d="M 58.3575 172.840891 
L 337.3575 172.840891 
" style="fill:none;stroke:#b0b0b0;stroke-linecap:square;stroke-width:0.5;"/>
     </g>
     <g id="line2d_51">
      <g>
       <use style="stroke:#000000;stroke-width:0.5;" x="58.3575" xlink:href="#m66726b272a" y="172.840891"/>
      </g>
     </g>
     <g id="line2d_52">
      <g>
       <use style="stroke:#000000;stroke-width:0.5;" x="337.3575" xlink:href="#m37bc226d52" y="172.840891"/>
      </g>
     </g>
     <g id="text_7">
      <!-- −0.25 -->
      <defs>
       <path d="M 5.703125 0 
L 5.703125 1.796875 
Q 5.703125 3.40625 5.890625 3.84375 
Q 6.09375 4.296875 7 5.203125 
L 27.09375 25.703125 
Q 37.90625 36.703125 37.90625 46.5 
Q 37.90625 52.5 34.40625 56.640625 
Q 30.90625 60.796875 24.703125 60.796875 
Q 18.59375 60.796875 14.40625 57.296875 
Q 15.5 57 16.59375 56.453125 
Q 17.703125 55.90625 18.890625 54.203125 
Q 20.09375 52.5 20.09375 50.09375 
Q 20.09375 46.59375 17.84375 44.75 
Q 15.59375 42.90625 12.90625 42.90625 
Q 10.40625 42.90625 8.046875 44.65625 
Q 5.703125 46.40625 5.703125 50.296875 
Q 5.703125 57 11.84375 61.25 
Q 18 65.5 27.203125 65.5 
Q 37.90625 65.5 44.796875 60.296875 
Q 51.703125 55.09375 51.703125 46.59375 
Q 51.703125 43.09375 50.703125 40.390625 
Q 49.703125 37.703125 46.890625 34.75 
Q 44.09375 31.796875 41.6875 29.890625 
Q 39.296875 28 33.90625 24 
Q 29.203125 20.59375 19.5 12.5 
L 34.203125 12.5 
Q 43.296875 12.5 44.40625 13.09375 
Q 45.703125 13.796875 47 22.203125 
L 51.703125 22.203125 
L 48.59375 0 
z
" id="CMUSerif-Bold-50"/>
      </defs>
      <g transform="translate(19.6 177.005266)scale(0.12 -0.12)">
       <use xlink:href="#CMUSerif-Bold-8722"/>
       <use x="89.399994" xlink:href="#CMUSerif-Bold-48"/>
       <use x="146.899979" xlink:href="#CMUSerif-Bold-46"/>
       <use x="178.799973" xlink:href="#CMUSerif-Bold-50"/>
       <use x="236.299957" xlink:href="#CMUSerif-Bold-53"/>
      </g>
     </g>
    </g>
    <g id="ytick_3">
     <g id="line2d_53">
      <path clip-path="url(#p1f587252c8)" d="M 58.3575 144.188713 
L 337.3575 144.188713 
" style="fill:none;stroke:#b0b0b0;stroke-linecap:square;stroke-width:0.5;"/>
     </g>
     <g id="line2d_54">
      <g>
       <use style="stroke:#000000;stroke-width:0.5;" x="58.3575" xlink:href="#m66726b272a" y="144.188713"/>
      </g>
     </g>
     <g id="line2d_55">
      <g>
       <use style="stroke:#000000;stroke-width:0.5;" x="337.3575" xlink:href="#m37bc226d52" y="144.188713"/>
      </g>
     </g>
     <g id="text_8">
      <!-- −0.20 -->
      <g transform="translate(19.6 148.353088)scale(0.12 -0.12)">
       <use xlink:href="#CMUSerif-Bold-8722"/>
       <use x="89.399994" xlink:href="#CMUSerif-Bold-48"/>
       <use x="146.899979" xlink:href="#CMUSerif-Bold-46"/>
       <use x="178.799973" xlink:href="#CMUSerif-Bold-50"/>
       <use x="236.299957" xlink:href="#CMUSerif-Bold-48"/>
      </g>
     </g>
    </g>
    <g id="ytick_4">
     <g id="line2d_56">
      <path clip-path="url(#p1f587252c8)" d="M 58.3575 115.536534 
L 337.3575 115.536534 
" style="fill:none;stroke:#b0b0b0;stroke-linecap:square;stroke-width:0.5;"/>
     </g>
     <g id="line2d_57">
      <g>
       <use style="stroke:#000000;stroke-width:0.5;" x="58.3575" xlink:href="#m66726b272a" y="115.536534"/>
      </g>
     </g>
     <g id="line2d_58">
      <g>
       <use style="stroke:#000000;stroke-width:0.5;" x="337.3575" xlink:href="#m37bc226d52" y="115.536534"/>
      </g>
     </g>
     <g id="text_9">
      <!-- −0.15 -->
      <g transform="translate(19.6 119.700909)scale(0.12 -0.12)">
       <use xlink:href="#CMUSerif-Bold-8722"/>
       <use x="89.399994" xlink:href="#CMUSerif-Bold-48"/>
       <use x="146.899979" xlink:href="#CMUSerif-Bold-46"/>
       <use x="178.799973" xlink:href="#CMUSerif-Bold-49"/>
       <use x="236.299957" xlink:href="#CMUSerif-Bold-53"/>
      </g>
     </g>
    </g>
    <g id="ytick_5">
     <g id="line2d_59">
      <path clip-path="url(#p1f587252c8)" d="M 58.3575 86.884356 
L 337.3575 86.884356 
" style="fill:none;stroke:#b0b0b0;stroke-linecap:square;stroke-width:0.5;"/>
     </g>
     <g id="line2d_60">
      <g>
       <use style="stroke:#000000;stroke-width:0.5;" x="58.3575" xlink:href="#m66726b272a" y="86.884356"/>
      </g>
     </g>
     <g id="line2d_61">
      <g>
       <use style="stroke:#000000;stroke-width:0.5;" x="337.3575" xlink:href="#m37bc226d52" y="86.884356"/>
      </g>
     </g>
     <g id="text_10">
      <!-- −0.10 -->
      <g transform="translate(19.6 91.048731)scale(0.12 -0.12)">
       <use xlink:href="#CMUSerif-Bold-8722"/>
       <use x="89.399994" xlink:href="#CMUSerif-Bold-48"/>
       <use x="146.899979" xlink:href="#CMUSerif-Bold-46"/>
       <use x="178.799973" xlink:href="#CMUSerif-Bold-49"/>
       <use x="236.299957" xlink:href="#CMUSerif-Bold-48"/>
      </g>
     </g>
    </g>
    <g id="ytick_6">
     <g id="line2d_62">
      <path clip-path="url(#p1f587252c8)" d="M 58.3575 58.232178 
L 337.3575 58.232178 
" style="fill:none;stroke:#b0b0b0;stroke-linecap:square;stroke-width:0.5;"/>
     </g>
     <g id="line2d_63">
      <g>
       <use style="stroke:#000000;stroke-width:0.5;" x="58.3575" xlink:href="#m66726b272a" y="58.232178"/>
      </g>
     </g>
     <g id="line2d_64">
      <g>
       <use style="stroke:#000000;stroke-width:0.5;" x="337.3575" xlink:href="#m37bc226d52" y="58.232178"/>
      </g>
     </g>
     <g id="text_11">
      <!-- −0.05 -->
      <g transform="translate(19.6 62.396553)scale(0.12 -0.12)">
       <use xlink:href="#CMUSerif-Bold-8722"/>
       <use x="89.399994" xlink:href="#CMUSerif-Bold-48"/>
       <use x="146.899979" xlink:href="#CMUSerif-Bold-46"/>
       <use x="178.799973" xlink:href="#CMUSerif-Bold-48"/>
       <use x="236.299957" xlink:href="#CMUSerif-Bold-53"/>
      </g>
     </g>
    </g>
    <g id="ytick_7">
     <g id="line2d_65">
      <path clip-path="url(#p1f587252c8)" d="M 58.3575 29.58 
L 337.3575 29.58 
" style="fill:none;stroke:#b0b0b0;stroke-linecap:square;stroke-width:0.5;"/>
     </g>
     <g id="line2d_66">
      <g>
       <use style="stroke:#000000;stroke-width:0.5;" x="58.3575" xlink:href="#m66726b272a" y="29.58"/>
      </g>
     </g>
     <g id="line2d_67">
      <g>
       <use style="stroke:#000000;stroke-width:0.5;" x="337.3575" xlink:href="#m37bc226d52" y="29.58"/>
      </g>
     </g>
     <g id="text_12">
      <!-- 0.00 -->
      <g transform="translate(30.32875 33.744375)scale(0.12 -0.12)">
       <use xlink:href="#CMUSerif-Bold-48"/>
       <use x="57.499985" xlink:href="#CMUSerif-Bold-46"/>
       <use x="89.399979" xlink:href="#CMUSerif-Bold-48"/>
       <use x="146.899963" xlink:href="#CMUSerif-Bold-48"/>
      </g>
     </g>
    </g>
    <g id="ytick_8">
     <g id="line2d_68">
      <defs>
       <path d="M 0 0 
L 1.5 0 
" id="m57f79b2872" style="stroke:#000000;stroke-width:0.5;"/>
      </defs>
      <g>
       <use style="stroke:#000000;stroke-width:0.5;" x="58.3575" xlink:href="#m57f79b2872" y="212.95394"/>
      </g>
     </g>
     <g id="line2d_69">
      <defs>
       <path d="M 0 0 
L -1.5 0 
" id="m0bb90cda6b" style="stroke:#000000;stroke-width:0.5;"/>
      </defs>
      <g>
       <use style="stroke:#000000;stroke-width:0.5;" x="337.3575" xlink:href="#m0bb90cda6b" y="212.95394"/>
      </g>
     </g>
    </g>
    <g id="ytick_9">
     <g id="line2d_70">
      <g>
       <use style="stroke:#000000;stroke-width:0.5;" x="58.3575" xlink:href="#m57f79b2872" y="207.223505"/>
      </g>
     </g>
     <g id="line2d_71">
      <g>
       <use style="stroke:#000000;stroke-width:0.5;" x="337.3575" xlink:href="#m0bb90cda6b" y="207.223505"/>
      </g>
     </g>
    </g>
    <g id="ytick_10">
     <g id="line2d_72">
      <g>
       <use style="stroke:#000000;stroke-width:0.5;" x="58.3575" xlink:href="#m57f79b2872" y="195.762633"/>
      </g>
     </g>
     <g id="line2d_73">
      <g>
       <use style="stroke:#000000;stroke-width:0.5;" x="337.3575" xlink:href="#m0bb90cda6b" y="195.762633"/>
      </g>
     </g>
    </g>
    <g id="ytick_11">
     <g id="line2d_74">
      <g>
       <use style="stroke:#000000;stroke-width:0.5;" x="58.3575" xlink:href="#m57f79b2872" y="190.032198"/>
      </g>
     </g>
     <g id="line2d_75">
      <g>
       <use style="stroke:#000000;stroke-width:0.5;" x="337.3575" xlink:href="#m0bb90cda6b" y="190.032198"/>
      </g>
     </g>
    </g>
    <g id="ytick_12">
     <g id="line2d_76">
      <g>
       <use style="stroke:#000000;stroke-width:0.5;" x="58.3575" xlink:href="#m57f79b2872" y="184.301762"/>
      </g>
     </g>
     <g id="line2d_77">
      <g>
       <use style="stroke:#000000;stroke-width:0.5;" x="337.3575" xlink:href="#m0bb90cda6b" y="184.301762"/>
      </g>
     </g>
    </g>
    <g id="ytick_13">
     <g id="line2d_78">
      <g>
       <use style="stroke:#000000;stroke-width:0.5;" x="58.3575" xlink:href="#m57f79b2872" y="178.571326"/>
      </g>
     </g>
     <g id="line2d_79">
      <g>
       <use style="stroke:#000000;stroke-width:0.5;" x="337.3575" xlink:href="#m0bb90cda6b" y="178.571326"/>
      </g>
     </g>
    </g>
    <g id="ytick_14">
     <g id="line2d_80">
      <g>
       <use style="stroke:#000000;stroke-width:0.5;" x="58.3575" xlink:href="#m57f79b2872" y="167.110455"/>
      </g>
     </g>
     <g id="line2d_81">
      <g>
       <use style="stroke:#000000;stroke-width:0.5;" x="337.3575" xlink:href="#m0bb90cda6b" y="167.110455"/>
      </g>
     </g>
    </g>
    <g id="ytick_15">
     <g id="line2d_82">
      <g>
       <use style="stroke:#000000;stroke-width:0.5;" x="58.3575" xlink:href="#m57f79b2872" y="161.380019"/>
      </g>
     </g>
     <g id="line2d_83">
      <g>
       <use style="stroke:#000000;stroke-width:0.5;" x="337.3575" xlink:href="#m0bb90cda6b" y="161.380019"/>
      </g>
     </g>
    </g>
    <g id="ytick_16">
     <g id="line2d_84">
      <g>
       <use style="stroke:#000000;stroke-width:0.5;" x="58.3575" xlink:href="#m57f79b2872" y="155.649584"/>
      </g>
     </g>
     <g id="line2d_85">
      <g>
       <use style="stroke:#000000;stroke-width:0.5;" x="337.3575" xlink:href="#m0bb90cda6b" y="155.649584"/>
      </g>
     </g>
    </g>
    <g id="ytick_17">
     <g id="line2d_86">
      <g>
       <use style="stroke:#000000;stroke-width:0.5;" x="58.3575" xlink:href="#m57f79b2872" y="149.919148"/>
      </g>
     </g>
     <g id="line2d_87">
      <g>
       <use style="stroke:#000000;stroke-width:0.5;" x="337.3575" xlink:href="#m0bb90cda6b" y="149.919148"/>
      </g>
     </g>
    </g>
    <g id="ytick_18">
     <g id="line2d_88">
      <g>
       <use style="stroke:#000000;stroke-width:0.5;" x="58.3575" xlink:href="#m57f79b2872" y="138.458277"/>
      </g>
     </g>
     <g id="line2d_89">
      <g>
       <use style="stroke:#000000;stroke-width:0.5;" x="337.3575" xlink:href="#m0bb90cda6b" y="138.458277"/>
      </g>
     </g>
    </g>
    <g id="ytick_19">
     <g id="line2d_90">
      <g>
       <use style="stroke:#000000;stroke-width:0.5;" x="58.3575" xlink:href="#m57f79b2872" y="132.727841"/>
      </g>
     </g>
     <g id="line2d_91">
      <g>
       <use style="stroke:#000000;stroke-width:0.5;" x="337.3575" xlink:href="#m0bb90cda6b" y="132.727841"/>
      </g>
     </g>
    </g>
    <g id="ytick_20">
     <g id="line2d_92">
      <g>
       <use style="stroke:#000000;stroke-width:0.5;" x="58.3575" xlink:href="#m57f79b2872" y="126.997406"/>
      </g>
     </g>
     <g id="line2d_93">
      <g>
       <use style="stroke:#000000;stroke-width:0.5;" x="337.3575" xlink:href="#m0bb90cda6b" y="126.997406"/>
      </g>
     </g>
    </g>
    <g id="ytick_21">
     <g id="line2d_94">
      <g>
       <use style="stroke:#000000;stroke-width:0.5;" x="58.3575" xlink:href="#m57f79b2872" y="121.26697"/>
      </g>
     </g>
     <g id="line2d_95">
      <g>
       <use style="stroke:#000000;stroke-width:0.5;" x="337.3575" xlink:href="#m0bb90cda6b" y="121.26697"/>
      </g>
     </g>
    </g>
    <g id="ytick_22">
     <g id="line2d_96">
      <g>
       <use style="stroke:#000000;stroke-width:0.5;" x="58.3575" xlink:href="#m57f79b2872" y="109.806099"/>
      </g>
     </g>
     <g id="line2d_97">
      <g>
       <use style="stroke:#000000;stroke-width:0.5;" x="337.3575" xlink:href="#m0bb90cda6b" y="109.806099"/>
      </g>
     </g>
    </g>
    <g id="ytick_23">
     <g id="line2d_98">
      <g>
       <use style="stroke:#000000;stroke-width:0.5;" x="58.3575" xlink:href="#m57f79b2872" y="104.075663"/>
      </g>
     </g>
     <g id="line2d_99">
      <g>
       <use style="stroke:#000000;stroke-width:0.5;" x="337.3575" xlink:href="#m0bb90cda6b" y="104.075663"/>
      </g>
     </g>
    </g>
    <g id="ytick_24">
     <g id="line2d_100">
      <g>
       <use style="stroke:#000000;stroke-width:0.5;" x="58.3575" xlink:href="#m57f79b2872" y="98.345228"/>
      </g>
     </g>
     <g id="line2d_101">
      <g>
       <use style="stroke:#000000;stroke-width:0.5;" x="337.3575" xlink:href="#m0bb90cda6b" y="98.345228"/>
      </g>
     </g>
    </g>
    <g id="ytick_25">
     <g id="line2d_102">
      <g>
       <use style="stroke:#000000;stroke-width:0.5;" x="58.3575" xlink:href="#m57f79b2872" y="92.614792"/>
      </g>
     </g>
     <g id="line2d_103">
      <g>
       <use style="stroke:#000000;stroke-width:0.5;" x="337.3575" xlink:href="#m0bb90cda6b" y="92.614792"/>
      </g>
     </g>
    </g>
    <g id="ytick_26">
     <g id="line2d_104">
      <g>
       <use style="stroke:#000000;stroke-width:0.5;" x="58.3575" xlink:href="#m57f79b2872" y="81.153921"/>
      </g>
     </g>
     <g id="line2d_105">
      <g>
       <use style="stroke:#000000;stroke-width:0.5;" x="337.3575" xlink:href="#m0bb90cda6b" y="81.153921"/>
      </g>
     </g>
    </g>
    <g id="ytick_27">
     <g id="line2d_106">
      <g>
       <use style="stroke:#000000;stroke-width:0.5;" x="58.3575" xlink:href="#m57f79b2872" y="75.423485"/>
      </g>
     </g>
     <g id="line2d_107">
      <g>
       <use style="stroke:#000000;stroke-width:0.5;" x="337.3575" xlink:href="#m0bb90cda6b" y="75.423485"/>
      </g>
     </g>
    </g>
    <g id="ytick_28">
     <g id="line2d_108">
      <g>
       <use style="stroke:#000000;stroke-width:0.5;" x="58.3575" xlink:href="#m57f79b2872" y="69.693049"/>
      </g>
     </g>
     <g id="line2d_109">
      <g>
       <use style="stroke:#000000;stroke-width:0.5;" x="337.3575" xlink:href="#m0bb90cda6b" y="69.693049"/>
      </g>
     </g>
    </g>
    <g id="ytick_29">
     <g id="line2d_110">
      <g>
       <use style="stroke:#000000;stroke-width:0.5;" x="58.3575" xlink:href="#m57f79b2872" y="63.962614"/>
      </g>
     </g>
     <g id="line2d_111">
      <g>
       <use style="stroke:#000000;stroke-width:0.5;" x="337.3575" xlink:href="#m0bb90cda6b" y="63.962614"/>
      </g>
     </g>
    </g>
    <g id="ytick_30">
     <g id="line2d_112">
      <g>
       <use style="stroke:#000000;stroke-width:0.5;" x="58.3575" xlink:href="#m57f79b2872" y="52.501743"/>
      </g>
     </g>
     <g id="line2d_113">
      <g>
       <use style="stroke:#000000;stroke-width:0.5;" x="337.3575" xlink:href="#m0bb90cda6b" y="52.501743"/>
      </g>
     </g>
    </g>
    <g id="ytick_31">
     <g id="line2d_114">
      <g>
       <use style="stroke:#000000;stroke-width:0.5;" x="58.3575" xlink:href="#m57f79b2872" y="46.771307"/>
      </g>
     </g>
     <g id="line2d_115">
      <g>
       <use style="stroke:#000000;stroke-width:0.5;" x="337.3575" xlink:href="#m0bb90cda6b" y="46.771307"/>
      </g>
     </g>
    </g>
    <g id="ytick_32">
     <g id="line2d_116">
      <g>
       <use style="stroke:#000000;stroke-width:0.5;" x="58.3575" xlink:href="#m57f79b2872" y="41.040871"/>
      </g>
     </g>
     <g id="line2d_117">
      <g>
       <use style="stroke:#000000;stroke-width:0.5;" x="337.3575" xlink:href="#m0bb90cda6b" y="41.040871"/>
      </g>
     </g>
    </g>
    <g id="ytick_33">
     <g id="line2d_118">
      <g>
       <use style="stroke:#000000;stroke-width:0.5;" x="58.3575" xlink:href="#m57f79b2872" y="35.310436"/>
      </g>
     </g>
     <g id="line2d_119">
      <g>
       <use style="stroke:#000000;stroke-width:0.5;" x="337.3575" xlink:href="#m0bb90cda6b" y="35.310436"/>
      </g>
     </g>
    </g>
    <g id="ytick_34">
     <g id="line2d_120">
      <g>
       <use style="stroke:#000000;stroke-width:0.5;" x="58.3575" xlink:href="#m57f79b2872" y="23.849564"/>
      </g>
     </g>
     <g id="line2d_121">
      <g>
       <use style="stroke:#000000;stroke-width:0.5;" x="337.3575" xlink:href="#m0bb90cda6b" y="23.849564"/>
      </g>
     </g>
    </g>
    <g id="text_13">
     <!-- $\mathrm{E} - \mathrm{E}_F$ [eV] -->
     <defs>
      <path d="M 5.515625 0 
L 5.515625 5.171875 
L 14.796875 5.171875 
L 14.796875 67.671875 
L 5.515625 67.671875 
L 5.515625 72.90625 
L 64.203125 72.90625 
L 64.203125 56.6875 
L 58.203125 56.6875 
L 58.203125 66.890625 
L 24.703125 66.890625 
L 24.703125 42.484375 
L 48.578125 42.484375 
L 48.578125 51.609375 
L 54.59375 51.609375 
L 54.59375 27.390625 
L 48.578125 27.390625 
L 48.578125 36.53125 
L 24.703125 36.53125 
L 24.703125 6 
L 58.984375 6 
L 58.984375 16.21875 
L 64.984375 16.21875 
L 64.984375 0 
z
" id="DejaVuSerif-69"/>
      <path d="M 3.203125 22.5 
Q 3.203125 32.296875 9.75 38.796875 
Q 16.296875 45.296875 27.90625 45.296875 
Q 38.203125 45.296875 43.796875 39.90625 
Q 49.40625 34.296875 49.40625 24.5 
Q 49.40625 22.59375 48.75 22.1875 
Q 48.09375 21.796875 46.203125 21.796875 
L 16 21.796875 
Q 16 3.40625 30.203125 3.40625 
Q 35.09375 3.40625 39 5.59375 
Q 42.90625 7.796875 44.5 11.40625 
Q 45 12.703125 45.390625 13.09375 
Q 45.796875 13.5 47 13.5 
Q 49.40625 13.5 49.40625 11.703125 
Q 49.40625 11 48.84375 9.75 
Q 48.296875 8.5 46.84375 6.640625 
Q 45.40625 4.796875 43.25 3.1875 
Q 41.09375 1.59375 37.4375 0.5 
Q 33.796875 -0.59375 29.296875 -0.59375 
Q 17.40625 -0.59375 10.296875 5.84375 
Q 3.203125 12.296875 3.203125 22.5 
z
M 16 25.09375 
L 39.90625 25.09375 
Q 39.40625 41.703125 27.90625 41.703125 
Q 21.796875 41.703125 18.40625 36.5 
Q 16.40625 33.40625 16 25.09375 
z
" id="CMUSerif-Bold-101"/>
      <path d="M 2.59375 63.90625 
L 2.59375 68.59375 
Q 6.09375 68.296875 18.40625 68.296875 
Q 32.296875 68.296875 36.09375 68.59375 
L 36.09375 63.90625 
L 26.703125 63.90625 
L 48 16 
L 68.203125 61.5 
Q 68.203125 61.59375 68.34375 61.84375 
Q 68.5 62.09375 68.546875 62.296875 
Q 68.59375 62.5 68.59375 62.703125 
Q 68.59375 63.90625 59.796875 63.90625 
L 59.796875 68.59375 
Q 63.703125 68.296875 72.90625 68.296875 
Q 74.09375 68.296875 76 68.34375 
Q 77.90625 68.40625 80.40625 68.5 
Q 82.90625 68.59375 84.203125 68.59375 
L 84.203125 63.90625 
L 82.296875 63.90625 
Q 78.796875 63.90625 77 63.59375 
Q 75.203125 63.296875 74.796875 62.890625 
Q 74.40625 62.5 74 61.703125 
L 47.40625 1.59375 
Q 46.703125 0 45.796875 -0.390625 
Q 44.90625 -0.796875 43.40625 -0.796875 
Q 41.5 -0.796875 40.796875 -0.25 
Q 40.09375 0.296875 39.40625 1.796875 
L 11.796875 63.90625 
z
" id="CMUSerif-Bold-86"/>
     </defs>
     <g transform="translate(12.6 151.5)rotate(-90)scale(0.12 -0.12)">
      <use xlink:href="#DejaVuSerif-69"/>
      <use transform="translate(91.962891 0)" xlink:href="#DejaVuSerif-8722"/>
      <use transform="translate(194.716797 0)" xlink:href="#DejaVuSerif-69"/>
      <use transform="translate(268.623203 -15.571875)scale(0.7)" xlink:href="#DejaVuSerif-Italic-70"/>
      <use transform="translate(319.787852 0)" xlink:href="#CMUSerif-Bold-32"/>
      <use transform="translate(358.087839 0)" xlink:href="#CMUSerif-Bold-91"/>
      <use transform="translate(389.987833 0)" xlink:href="#CMUSerif-Bold-101"/>
      <use transform="translate(442.68783 0)" xlink:href="#CMUSerif-Bold-86"/>
      <use transform="translate(529.587824 0)" xlink:href="#CMUSerif-Bold-93"/>
     </g>
    </g>
   </g>
   <g id="line2d_122">
    <defs>
     <path d="M 0 3 
C 0.795609 3 1.55874 2.683901 2.12132 2.12132 
C 2.683901 1.55874 3 0.795609 3 0 
C 3 -0.795609 2.683901 -1.55874 2.12132 -2.12132 
C 1.55874 -2.683901 0.795609 -3 0 -3 
C -0.795609 -3 -1.55874 -2.683901 -2.12132 -2.12132 
C -2.683901 -1.55874 -3 -0.795609 -3 0 
C -3 0.795609 -2.683901 1.55874 -2.12132 2.12132 
C -1.55874 2.683901 -0.795609 3 0 3 
z
" id="m7518febee3" style="stroke:#0000ff;stroke-width:1.5;"/>
    </defs>
    <g clip-path="url(#p1f587252c8)">
     <use style="fill-opacity:0;stroke:#0000ff;stroke-width:1.5;" x="324.675682" xlink:href="#m7518febee3" y="204.833913"/>
     <use style="fill-opacity:0;stroke:#0000ff;stroke-width:1.5;" x="318.462704" xlink:href="#m7518febee3" y="204.833913"/>
     <use style="fill-opacity:0;stroke:#0000ff;stroke-width:1.5;" x="312.2437" xlink:href="#m7518febee3" y="204.833913"/>
     <use style="fill-opacity:0;stroke:#0000ff;stroke-width:1.5;" x="305.958384" xlink:href="#m7518febee3" y="205.98"/>
     <use style="fill-opacity:0;stroke:#0000ff;stroke-width:1.5;" x="299.907723" xlink:href="#m7518febee3" y="202.541739"/>
     <use style="fill-opacity:0;stroke:#0000ff;stroke-width:1.5;" x="293.759666" xlink:href="#m7518febee3" y="200.822608"/>
     <use style="fill-opacity:0;stroke:#0000ff;stroke-width:1.5;" x="287.664046" xlink:href="#m7518febee3" y="197.95739"/>
     <use style="fill-opacity:0;stroke:#0000ff;stroke-width:1.5;" x="281.531411" xlink:href="#m7518febee3" y="195.665216"/>
     <use style="fill-opacity:0;stroke:#0000ff;stroke-width:1.5;" x="275.244982" xlink:href="#m7518febee3" y="196.238259"/>
     <use style="fill-opacity:0;stroke:#0000ff;stroke-width:1.5;" x="269.098899" xlink:href="#m7518febee3" y="193.946085"/>
     <use style="fill-opacity:0;stroke:#0000ff;stroke-width:1.5;" x="263.003712" xlink:href="#m7518febee3" y="190.507824"/>
     <use style="fill-opacity:0;stroke:#0000ff;stroke-width:1.5;" x="256.814311" xlink:href="#m7518febee3" y="188.788693"/>
     <use style="fill-opacity:0;stroke:#0000ff;stroke-width:1.5;" x="250.70419" xlink:href="#m7518febee3" y="185.350432"/>
     <use style="fill-opacity:0;stroke:#0000ff;stroke-width:1.5;" x="244.500922" xlink:href="#m7518febee3" y="183.631301"/>
     <use style="fill-opacity:0;stroke:#0000ff;stroke-width:1.5;" x="238.347667" xlink:href="#m7518febee3" y="180.766083"/>
     <use style="fill-opacity:0;stroke:#0000ff;stroke-width:1.5;" x="232.327899" xlink:href="#m7518febee3" y="175.035648"/>
     <use style="fill-opacity:0;stroke:#0000ff;stroke-width:1.5;" x="226.159279" xlink:href="#m7518febee3" y="172.17043"/>
     <use style="fill-opacity:0;stroke:#0000ff;stroke-width:1.5;" x="220.094694" xlink:href="#m7518febee3" y="167.013038"/>
     <use style="fill-opacity:0;stroke:#0000ff;stroke-width:1.5;" x="213.855714" xlink:href="#m7518febee3" y="165.293907"/>
     <use style="fill-opacity:0;stroke:#0000ff;stroke-width:1.5;" x="207.692679" xlink:href="#m7518febee3" y="161.855646"/>
     <use style="fill-opacity:0;stroke:#0000ff;stroke-width:1.5;" x="201.549488" xlink:href="#m7518febee3" y="157.844341"/>
     <use style="fill-opacity:0;stroke:#0000ff;stroke-width:1.5;" x="195.507054" xlink:href="#m7518febee3" y="151.540862"/>
     <use style="fill-opacity:0;stroke:#0000ff;stroke-width:1.5;" x="189.347672" xlink:href="#m7518febee3" y="147.529557"/>
     <use style="fill-opacity:0;stroke:#0000ff;stroke-width:1.5;" x="183.287731" xlink:href="#m7518febee3" y="141.226077"/>
     <use style="fill-opacity:0;stroke:#0000ff;stroke-width:1.5;" x="177.112277" xlink:href="#m7518febee3" y="137.214772"/>
     <use style="fill-opacity:0;stroke:#0000ff;stroke-width:1.5;" x="174.393753" xlink:href="#m7518febee3" y="135.495642"/>
     <use style="fill-opacity:0;stroke:#0000ff;stroke-width:1.5;" x="173.389814" xlink:href="#m7518febee3" y="133.75932"/>
     <use style="fill-opacity:0;stroke:#0000ff;stroke-width:1.5;" x="171.451792" xlink:href="#m7518febee3" y="132.022998"/>
     <use style="fill-opacity:0;stroke:#0000ff;stroke-width:1.5;" x="169.378003" xlink:href="#m7518febee3" y="130.286676"/>
     <use style="fill-opacity:0;stroke:#0000ff;stroke-width:1.5;" x="168.171192" xlink:href="#m7518febee3" y="128.550354"/>
     <use style="fill-opacity:0;stroke:#0000ff;stroke-width:1.5;" x="165.801855" xlink:href="#m7518febee3" y="126.814032"/>
     <use style="fill-opacity:0;stroke:#0000ff;stroke-width:1.5;" x="163.35257" xlink:href="#m7518febee3" y="125.07771"/>
     <use style="fill-opacity:0;stroke:#0000ff;stroke-width:1.5;" x="162.476726" xlink:href="#m7518febee3" y="123.341388"/>
     <use style="fill-opacity:0;stroke:#0000ff;stroke-width:1.5;" x="161.264781" xlink:href="#m7518febee3" y="121.605066"/>
     <use style="fill-opacity:0;stroke:#0000ff;stroke-width:1.5;" x="159.861441" xlink:href="#m7518febee3" y="119.868744"/>
     <use style="fill-opacity:0;stroke:#0000ff;stroke-width:1.5;" x="158.707869" xlink:href="#m7518febee3" y="118.132422"/>
     <use style="fill-opacity:0;stroke:#0000ff;stroke-width:1.5;" x="155.538137" xlink:href="#m7518febee3" y="116.3961"/>
     <use style="fill-opacity:0;stroke:#0000ff;stroke-width:1.5;" x="153.976464" xlink:href="#m7518febee3" y="114.659778"/>
     <use style="fill-opacity:0;stroke:#0000ff;stroke-width:1.5;" x="152.967739" xlink:href="#m7518febee3" y="112.923456"/>
     <use style="fill-opacity:0;stroke:#0000ff;stroke-width:1.5;" x="151.087701" xlink:href="#m7518febee3" y="111.187134"/>
     <use style="fill-opacity:0;stroke:#0000ff;stroke-width:1.5;" x="149.49092" xlink:href="#m7518febee3" y="109.450812"/>
     <use style="fill-opacity:0;stroke:#0000ff;stroke-width:1.5;" x="148.247327" xlink:href="#m7518febee3" y="107.71449"/>
     <use style="fill-opacity:0;stroke:#0000ff;stroke-width:1.5;" x="146.720085" xlink:href="#m7518febee3" y="105.978168"/>
     <use style="fill-opacity:0;stroke:#0000ff;stroke-width:1.5;" x="144.903558" xlink:href="#m7518febee3" y="104.241846"/>
     <use style="fill-opacity:0;stroke:#0000ff;stroke-width:1.5;" x="142.663381" xlink:href="#m7518febee3" y="102.505524"/>
     <use style="fill-opacity:0;stroke:#0000ff;stroke-width:1.5;" x="141.813581" xlink:href="#m7518febee3" y="100.769202"/>
     <use style="fill-opacity:0;stroke:#0000ff;stroke-width:1.5;" x="140.205299" xlink:href="#m7518febee3" y="99.03288"/>
     <use style="fill-opacity:0;stroke:#0000ff;stroke-width:1.5;" x="138.532981" xlink:href="#m7518febee3" y="97.296558"/>
     <use style="fill-opacity:0;stroke:#0000ff;stroke-width:1.5;" x="138.299108" xlink:href="#m7518febee3" y="95.560236"/>
     <use style="fill-opacity:0;stroke:#0000ff;stroke-width:1.5;" x="135.663446" xlink:href="#m7518febee3" y="93.823914"/>
     <use style="fill-opacity:0;stroke:#0000ff;stroke-width:1.5;" x="134.407452" xlink:href="#m7518febee3" y="92.087592"/>
     <use style="fill-opacity:0;stroke:#0000ff;stroke-width:1.5;" x="132.680102" xlink:href="#m7518febee3" y="90.35127"/>
     <use style="fill-opacity:0;stroke:#0000ff;stroke-width:1.5;" x="131.082998" xlink:href="#m7518febee3" y="88.614948"/>
     <use style="fill-opacity:0;stroke:#0000ff;stroke-width:1.5;" x="131.004602" xlink:href="#m7518febee3" y="86.878626"/>
     <use style="fill-opacity:0;stroke:#0000ff;stroke-width:1.5;" x="128.376002" xlink:href="#m7518febee3" y="85.142304"/>
     <use style="fill-opacity:0;stroke:#0000ff;stroke-width:1.5;" x="126.480142" xlink:href="#m7518febee3" y="83.405982"/>
     <use style="fill-opacity:0;stroke:#0000ff;stroke-width:1.5;" x="126.009032" xlink:href="#m7518febee3" y="81.66966"/>
     <use style="fill-opacity:0;stroke:#0000ff;stroke-width:1.5;" x="125.475703" xlink:href="#m7518febee3" y="79.933338"/>
     <use style="fill-opacity:0;stroke:#0000ff;stroke-width:1.5;" x="123.556672" xlink:href="#m7518febee3" y="78.197016"/>
     <use style="fill-opacity:0;stroke:#0000ff;stroke-width:1.5;" x="122.847321" xlink:href="#m7518febee3" y="76.460694"/>
     <use style="fill-opacity:0;stroke:#0000ff;stroke-width:1.5;" x="121.94594" xlink:href="#m7518febee3" y="74.724372"/>
     <use style="fill-opacity:0;stroke:#0000ff;stroke-width:1.5;" x="120.875107" xlink:href="#m7518febee3" y="72.98805"/>
     <use style="fill-opacity:0;stroke:#0000ff;stroke-width:1.5;" x="119.763473" xlink:href="#m7518febee3" y="71.251728"/>
     <use style="fill-opacity:0;stroke:#0000ff;stroke-width:1.5;" x="117.863394" xlink:href="#m7518febee3" y="69.515406"/>
     <use style="fill-opacity:0;stroke:#0000ff;stroke-width:1.5;" x="116.215277" xlink:href="#m7518febee3" y="67.779084"/>
     <use style="fill-opacity:0;stroke:#0000ff;stroke-width:1.5;" x="115.276064" xlink:href="#m7518febee3" y="66.042762"/>
     <use style="fill-opacity:0;stroke:#0000ff;stroke-width:1.5;" x="114.788906" xlink:href="#m7518febee3" y="64.30644"/>
     <use style="fill-opacity:0;stroke:#0000ff;stroke-width:1.5;" x="112.969502" xlink:href="#m7518febee3" y="62.570118"/>
     <use style="fill-opacity:0;stroke:#0000ff;stroke-width:1.5;" x="111.451265" xlink:href="#m7518febee3" y="60.833796"/>
     <use style="fill-opacity:0;stroke:#0000ff;stroke-width:1.5;" x="109.310212" xlink:href="#m7518febee3" y="59.097474"/>
     <use style="fill-opacity:0;stroke:#0000ff;stroke-width:1.5;" x="106.461644" xlink:href="#m7518febee3" y="57.361152"/>
     <use style="fill-opacity:0;stroke:#0000ff;stroke-width:1.5;" x="106.403639" xlink:href="#m7518febee3" y="55.62483"/>
     <use style="fill-opacity:0;stroke:#0000ff;stroke-width:1.5;" x="104.556561" xlink:href="#m7518febee3" y="53.888508"/>
     <use style="fill-opacity:0;stroke:#0000ff;stroke-width:1.5;" x="102.7508" xlink:href="#m7518febee3" y="52.152186"/>
     <use style="fill-opacity:0;stroke:#0000ff;stroke-width:1.5;" x="100.668122" xlink:href="#m7518febee3" y="50.415864"/>
     <use style="fill-opacity:0;stroke:#0000ff;stroke-width:1.5;" x="98.494437" xlink:href="#m7518febee3" y="48.679542"/>
     <use style="fill-opacity:0;stroke:#0000ff;stroke-width:1.5;" x="96.92903" xlink:href="#m7518febee3" y="46.94322"/>
     <use style="fill-opacity:0;stroke:#0000ff;stroke-width:1.5;" x="95.195592" xlink:href="#m7518febee3" y="45.206898"/>
     <use style="fill-opacity:0;stroke:#0000ff;stroke-width:1.5;" x="92.898986" xlink:href="#m7518febee3" y="43.470576"/>
     <use style="fill-opacity:0;stroke:#0000ff;stroke-width:1.5;" x="90.484344" xlink:href="#m7518febee3" y="41.734254"/>
     <use style="fill-opacity:0;stroke:#0000ff;stroke-width:1.5;" x="89.868286" xlink:href="#m7518febee3" y="39.997932"/>
     <use style="fill-opacity:0;stroke:#0000ff;stroke-width:1.5;" x="85.655196" xlink:href="#m7518febee3" y="38.26161"/>
     <use style="fill-opacity:0;stroke:#0000ff;stroke-width:1.5;" x="84.092366" xlink:href="#m7518febee3" y="36.525288"/>
     <use style="fill-opacity:0;stroke:#0000ff;stroke-width:1.5;" x="81.642815" xlink:href="#m7518febee3" y="34.788966"/>
     <use style="fill-opacity:0;stroke:#0000ff;stroke-width:1.5;" x="77.642946" xlink:href="#m7518febee3" y="33.052644"/>
     <use style="fill-opacity:0;stroke:#0000ff;stroke-width:1.5;" x="72.638029" xlink:href="#m7518febee3" y="31.316322"/>
     <use style="fill-opacity:0;stroke:#0000ff;stroke-width:1.5;" x="71.039318" xlink:href="#m7518febee3" y="29.58"/>
    </g>
   </g>
   <g id="patch_3">
    <path d="M 58.3575 214.8 
L 58.3575 20.76 
" style="fill:none;stroke:#000000;stroke-linecap:square;stroke-linejoin:miter;stroke-width:0.5;"/>
   </g>
   <g id="patch_4">
    <path d="M 337.3575 214.8 
L 337.3575 20.76 
" style="fill:none;stroke:#000000;stroke-linecap:square;stroke-linejoin:miter;stroke-width:0.5;"/>
   </g>
   <g id="patch_5">
    <path d="M 58.3575 214.8 
L 337.3575 214.8 
" style="fill:none;stroke:#000000;stroke-linecap:square;stroke-linejoin:miter;stroke-width:0.5;"/>
   </g>
   <g id="patch_6">
    <path d="M 58.3575 20.76 
L 337.3575 20.76 
" style="fill:none;stroke:#000000;stroke-linecap:square;stroke-linejoin:miter;stroke-width:0.5;"/>
   </g>
   <g id="text_14">
    <!-- Momentum-energy curve, $\mathrm{E}_F = 0.83$ [meV], $\mathrm{k}_F = 0.6926$ [$\mathrm{\AA}^{-1}$] -->
    <defs>
     <path d="M 4 0 
L 4 4.703125 
L 6.5 4.703125 
Q 9.5 4.703125 11.90625 5 
Q 14 5.203125 14.390625 5.546875 
Q 14.796875 5.90625 14.796875 7.59375 
L 14.796875 63.90625 
L 4 63.90625 
L 4 68.59375 
L 26.203125 68.59375 
Q 27.5 68.59375 28.09375 68.5 
Q 28.703125 68.40625 29.390625 67.84375 
Q 30.09375 67.296875 30.59375 66.09375 
L 54.59375 13.203125 
L 78.59375 66.09375 
Q 79.40625 67.796875 80.25 68.1875 
Q 81.09375 68.59375 83 68.59375 
L 105.09375 68.59375 
L 105.09375 63.90625 
L 94.296875 63.90625 
L 94.296875 4.703125 
L 105.09375 4.703125 
L 105.09375 0 
Q 101.5 0.296875 88 0.296875 
Q 74.59375 0.296875 71 0 
L 71 4.703125 
L 81.796875 4.703125 
L 81.796875 63.90625 
L 81.703125 63.90625 
L 53.796875 2.40625 
Q 52.703125 0 50.59375 0 
Q 48.5 0 47.40625 2.5 
L 20.203125 62.59375 
L 20.09375 62.59375 
L 20.09375 7.59375 
Q 20.09375 5.90625 20.5 5.546875 
Q 20.90625 5.203125 23.09375 5 
Q 25.796875 4.703125 28.40625 4.703125 
L 30.90625 4.703125 
L 30.90625 0 
Q 26.796875 0.296875 17.40625 0.296875 
Q 7.796875 0.296875 4 0 
z
" id="CMUSerif-Bold-77"/>
     <path d="M 3.203125 21.796875 
Q 3.203125 32.09375 9.953125 38.6875 
Q 16.703125 45.296875 28.703125 45.296875 
Q 40.59375 45.296875 47.390625 38.6875 
Q 54.203125 32.09375 54.203125 21.796875 
Q 54.203125 12.09375 47.5 5.75 
Q 40.796875 -0.59375 28.6875 -0.59375 
Q 16.59375 -0.59375 9.890625 5.75 
Q 3.203125 12.09375 3.203125 21.796875 
z
M 16 22.90625 
Q 16 19.90625 16.046875 18.34375 
Q 16.09375 16.796875 16.4375 14.046875 
Q 16.796875 11.296875 17.59375 9.796875 
Q 18.40625 8.296875 19.75 6.59375 
Q 21.09375 4.90625 23.34375 4.15625 
Q 25.59375 3.40625 28.6875 3.40625 
Q 31.796875 3.40625 34.046875 4.15625 
Q 36.296875 4.90625 37.640625 6.59375 
Q 39 8.296875 39.796875 9.796875 
Q 40.59375 11.296875 40.9375 14.046875 
Q 41.296875 16.796875 41.34375 18.34375 
Q 41.40625 19.90625 41.40625 22.90625 
Q 41.40625 33.203125 39.296875 36.59375 
Q 36.09375 41.703125 28.703125 41.703125 
Q 20.703125 41.703125 17.703125 35.90625 
Q 16 32.5 16 22.90625 
z
" id="CMUSerif-Bold-111"/>
     <path d="M 4.5 0 
L 4.5 4.703125 
L 11.40625 4.703125 
L 11.40625 35.59375 
Q 11.40625 38.40625 10.34375 38.953125 
Q 9.296875 39.5 4.5 39.5 
L 4.5 44.203125 
L 21.703125 45 
L 21.703125 34.203125 
Q 27.203125 45 39.296875 45 
Q 52.203125 45 54.296875 35.40625 
Q 59.703125 45 71.203125 45 
Q 79.09375 45 82.84375 41.59375 
Q 86.59375 38.203125 86.59375 30.59375 
L 86.59375 4.703125 
L 93.5 4.703125 
L 93.5 0 
Q 85.09375 0.296875 80.890625 0.296875 
Q 76.703125 0.296875 68.296875 0 
L 68.296875 4.703125 
L 75.203125 4.703125 
L 75.203125 31.703125 
Q 75.203125 37.203125 73.796875 39.296875 
Q 72.40625 41.40625 69.59375 41.40625 
Q 64.203125 41.40625 59.453125 37.25 
Q 54.703125 33.09375 54.703125 25.59375 
L 54.703125 4.703125 
L 61.59375 4.703125 
L 61.59375 0 
Q 53.203125 0.296875 49 0.296875 
Q 44.796875 0.296875 36.40625 0 
L 36.40625 4.703125 
L 43.296875 4.703125 
L 43.296875 31.703125 
Q 43.296875 37.203125 41.890625 39.296875 
Q 40.5 41.40625 37.703125 41.40625 
Q 32.296875 41.40625 27.546875 37.25 
Q 22.796875 33.09375 22.796875 25.59375 
L 22.796875 4.703125 
L 29.703125 4.703125 
L 29.703125 0 
Q 21.296875 0.296875 17.09375 0.296875 
Q 12.90625 0.296875 4.5 0 
z
" id="CMUSerif-Bold-109"/>
     <path d="M 4.5 0 
L 4.5 4.703125 
L 11.40625 4.703125 
L 11.40625 35.59375 
Q 11.40625 38.40625 10.34375 38.953125 
Q 9.296875 39.5 4.5 39.5 
L 4.5 44.203125 
L 21.703125 45 
L 21.703125 34.203125 
Q 27.203125 45 39.203125 45 
Q 46.90625 45 50.75 41.640625 
Q 54.59375 38.296875 54.59375 30.59375 
L 54.59375 4.703125 
L 61.5 4.703125 
L 61.5 0 
Q 53.09375 0.296875 48.890625 0.296875 
Q 44.703125 0.296875 36.296875 0 
L 36.296875 4.703125 
L 43.203125 4.703125 
L 43.203125 31.703125 
Q 43.203125 37.09375 41.796875 39.25 
Q 40.40625 41.40625 37.703125 41.40625 
Q 32.203125 41.40625 27.5 37.25 
Q 22.796875 33.09375 22.796875 25.59375 
L 22.796875 4.703125 
L 29.703125 4.703125 
L 29.703125 0 
Q 21.296875 0.296875 17.09375 0.296875 
Q 12.90625 0.296875 4.5 0 
z
" id="CMUSerif-Bold-110"/>
     <path d="M 2.09375 39.703125 
L 2.09375 43.296875 
Q 9.09375 43.5 13 49.453125 
Q 16.90625 55.40625 17 63.5 
L 21.703125 63.5 
L 21.703125 44.40625 
L 36.296875 44.40625 
L 36.296875 39.703125 
L 21.703125 39.703125 
L 21.703125 12.09375 
Q 21.703125 3.40625 27.5 3.40625 
Q 29.90625 3.40625 31.703125 5.65625 
Q 33.5 7.90625 33.5 12.59375 
L 33.5 17.703125 
L 38.203125 17.703125 
L 38.203125 12.40625 
Q 38.203125 6.796875 34.953125 3.09375 
Q 31.703125 -0.59375 26.09375 -0.59375 
Q 10.296875 -0.59375 10.296875 12.296875 
L 10.296875 39.703125 
z
" id="CMUSerif-Bold-116"/>
     <path d="M 4.5 39.5 
L 4.5 44.203125 
L 22.796875 45 
L 22.796875 10.90625 
Q 22.796875 6.296875 24.09375 4.640625 
Q 25.40625 3 30.796875 3 
Q 36.296875 3 39.75 6.703125 
Q 43.203125 10.40625 43.203125 16.5 
L 43.203125 35.59375 
Q 43.203125 38.40625 42.140625 38.953125 
Q 41.09375 39.5 36.296875 39.5 
L 36.296875 44.203125 
L 54.59375 45 
L 54.59375 8.59375 
Q 54.59375 5.796875 55.640625 5.25 
Q 56.703125 4.703125 61.5 4.703125 
L 61.5 0 
L 43.796875 -0.59375 
L 43.796875 7.203125 
Q 39.203125 -0.59375 29.40625 -0.59375 
Q 20.90625 -0.59375 16.15625 2.15625 
Q 11.40625 4.90625 11.40625 12.296875 
L 11.40625 35.59375 
Q 11.40625 38.40625 10.34375 38.953125 
Q 9.296875 39.5 4.5 39.5 
z
" id="CMUSerif-Bold-117"/>
     <path d="M 1.203125 17.40625 
L 1.203125 27.09375 
L 31.796875 27.09375 
L 31.796875 17.40625 
z
" id="CMUSerif-Bold-45"/>
     <path d="M 3.703125 0 
L 3.703125 4.703125 
L 10.59375 4.703125 
L 10.59375 35.59375 
Q 10.59375 38.40625 9.546875 38.953125 
Q 8.5 39.5 3.703125 39.5 
L 3.703125 44.203125 
L 20.296875 45 
L 20.296875 33.703125 
Q 24.40625 45 33.59375 45 
Q 37.796875 45 41 42.796875 
Q 44.203125 40.59375 44.203125 36.796875 
Q 44.203125 34 42.34375 32.34375 
Q 40.5 30.703125 38.09375 30.703125 
Q 35.703125 30.703125 33.84375 32.296875 
Q 32 33.90625 32 36.796875 
Q 32 39.5 33.90625 41.40625 
Q 30.40625 41.40625 27.796875 39.453125 
Q 25.203125 37.5 23.890625 34.34375 
Q 22.59375 31.203125 22 28.203125 
Q 21.40625 25.203125 21.40625 22.203125 
L 21.40625 4.703125 
L 30.09375 4.703125 
L 30.09375 0 
Q 26.5 0.296875 16.296875 0.296875 
Q 14.203125 0.296875 3.703125 0 
z
" id="CMUSerif-Bold-114"/>
     <path d="M 3.203125 -7.5 
Q 3.203125 -5.296875 4.296875 -3.546875 
Q 5.40625 -1.796875 7.09375 -0.84375 
Q 8.796875 0.09375 9.84375 0.546875 
Q 10.90625 1 11.796875 1.203125 
Q 7.40625 4.703125 7.40625 10.796875 
Q 7.40625 15.40625 10.796875 19.703125 
Q 8.40625 21.40625 7 24.25 
Q 5.59375 27.09375 5.59375 30.203125 
Q 5.59375 36.203125 10.546875 40.59375 
Q 15.5 45 25.5 45 
Q 34 45 38.90625 41.703125 
Q 43.703125 45.5 49.5 45.5 
Q 52.59375 45.5 54.1875 43.640625 
Q 55.796875 41.796875 55.796875 39.703125 
Q 55.796875 37.90625 54.59375 36.65625 
Q 53.40625 35.40625 51.5 35.40625 
Q 49.59375 35.40625 48.390625 36.59375 
Q 47.203125 37.796875 47.203125 39.703125 
Q 47.203125 40.703125 47.59375 41.703125 
Q 44.40625 41.40625 41.40625 39.796875 
Q 45.40625 35.5 45.40625 30.203125 
Q 45.40625 24.203125 40.453125 19.796875 
Q 35.5 15.40625 25.5 15.40625 
Q 18.296875 15.40625 13.296875 18 
Q 12.296875 16.703125 12.296875 14.703125 
Q 12.296875 12.796875 13.59375 10.84375 
Q 14.90625 8.90625 17.796875 8.40625 
Q 18.296875 8.296875 25.5 8.296875 
Q 31.5 8.296875 34.296875 8.1875 
Q 37.09375 8.09375 40.546875 7.4375 
Q 44 6.796875 46.703125 5.5 
Q 54.203125 1.703125 54.203125 -7.203125 
Q 54.203125 -12.796875 47.75 -16.4375 
Q 41.296875 -20.09375 28.703125 -20.09375 
Q 15.203125 -20.09375 9.203125 -16.1875 
Q 3.203125 -12.296875 3.203125 -7.5 
z
M 11.796875 -7.296875 
Q 11.796875 -11.09375 16.046875 -13.796875 
Q 20.296875 -16.5 28.703125 -16.5 
Q 37.5 -16.5 41.546875 -13.703125 
Q 45.59375 -10.90625 45.59375 -7.5 
Q 45.59375 -1.296875 31.203125 -1.296875 
L 19.5 -1.296875 
Q 11.796875 -1.296875 11.796875 -7.296875 
z
M 16.796875 34.203125 
Q 16.703125 32.09375 16.703125 30.1875 
Q 16.703125 28.296875 16.75 27.25 
Q 16.796875 26.203125 17.25 24.390625 
Q 17.703125 22.59375 18.59375 21.59375 
Q 19.5 20.59375 21.25 19.796875 
Q 23 19 25.5 19 
Q 28 19 29.75 19.796875 
Q 31.5 20.59375 32.390625 21.59375 
Q 33.296875 22.59375 33.75 24.390625 
Q 34.203125 26.203125 34.25 27.25 
Q 34.296875 28.296875 34.296875 30.1875 
Q 34.296875 32.09375 34.25 33.140625 
Q 34.203125 34.203125 33.75 36 
Q 33.296875 37.796875 32.390625 38.796875 
Q 31.5 39.796875 29.75 40.59375 
Q 28 41.40625 25.5 41.40625 
Q 23 41.40625 21.25 40.59375 
Q 19.5 39.796875 18.59375 38.796875 
Q 17.703125 37.796875 17.25 36 
Q 16.796875 34.203125 16.703125 32.09375 
z
" id="CMUSerif-Bold-103"/>
     <path d="M 2.203125 -10.796875 
Q 2.203125 -8 3.890625 -6.5 
Q 5.59375 -5 7.90625 -5 
Q 10.40625 -5 12.046875 -6.59375 
Q 13.703125 -8.203125 13.703125 -10.703125 
Q 13.703125 -14.59375 10.5 -16 
Q 11.59375 -16.40625 12.90625 -16.40625 
Q 15.40625 -16.40625 17.453125 -15.34375 
Q 19.5 -14.296875 21.046875 -12.25 
Q 22.59375 -10.203125 23.4375 -8.75 
Q 24.296875 -7.296875 25.40625 -4.796875 
L 27.703125 0 
L 9 39.703125 
L 2.59375 39.703125 
L 2.59375 44.40625 
Q 3.59375 44.40625 8 44.25 
Q 12.40625 44.09375 14 44.09375 
Q 21.40625 44.09375 26.40625 44.40625 
L 26.40625 39.703125 
L 21 39.703125 
L 33.703125 12.703125 
L 45.203125 37.296875 
Q 45.703125 37.796875 45.703125 38.5 
Q 45.703125 39.703125 41 39.703125 
L 41 44.40625 
Q 47.296875 44.09375 50.09375 44.09375 
Q 54.40625 44.09375 58 44.40625 
L 58 39.703125 
Q 54.90625 39.703125 53.34375 39.453125 
Q 51.796875 39.203125 51.390625 38.84375 
Q 51 38.5 50.59375 37.59375 
L 29.09375 -8.09375 
Q 26.796875 -13 22.5 -16.5 
Q 18.203125 -20 12.90625 -20 
Q 8.40625 -20 5.296875 -17.296875 
Q 2.203125 -14.59375 2.203125 -10.796875 
z
" id="CMUSerif-Bold-121"/>
     <path d="M 3.796875 22.203125 
Q 3.796875 31.796875 10.140625 38.546875 
Q 16.5 45.296875 29.09375 45.296875 
Q 46.5 45.296875 46.5 36.09375 
Q 46.5 33.09375 44.59375 31.4375 
Q 42.703125 29.796875 40.203125 29.796875 
Q 37.90625 29.796875 35.953125 31.4375 
Q 34 33.09375 34 36.09375 
Q 34 38.90625 36 40.703125 
Q 33.40625 41.296875 29.5 41.296875 
Q 25.796875 41.296875 23.1875 39.796875 
Q 20.59375 38.296875 19.34375 36.4375 
Q 18.09375 34.59375 17.4375 31.546875 
Q 16.796875 28.5 16.6875 26.84375 
Q 16.59375 25.203125 16.59375 22.703125 
Q 16.59375 3.40625 30.5 3.40625 
Q 39.59375 3.40625 43 11.59375 
Q 43.40625 12.59375 43.75 12.84375 
Q 44.09375 13.09375 45.40625 13.09375 
Q 47.796875 13.09375 47.796875 11.703125 
Q 47.796875 11.296875 47.390625 10.140625 
Q 47 9 45.703125 7.09375 
Q 44.40625 5.203125 42.40625 3.546875 
Q 40.40625 1.90625 36.75 0.65625 
Q 33.09375 -0.59375 28.59375 -0.59375 
Q 17.203125 -0.59375 10.5 5.75 
Q 3.796875 12.09375 3.796875 22.203125 
z
" id="CMUSerif-Bold-99"/>
     <path d="M 2.59375 39.703125 
L 2.59375 44.40625 
Q 3.59375 44.40625 8 44.25 
Q 12.40625 44.09375 14 44.09375 
Q 21.40625 44.09375 26.40625 44.40625 
L 26.40625 39.703125 
L 21 39.703125 
L 33.703125 12.40625 
L 45.296875 37.40625 
Q 45.796875 38.40625 45.796875 38.59375 
Q 45.796875 39.703125 41 39.703125 
L 41 44.40625 
Q 47.296875 44.09375 50.09375 44.09375 
Q 54.203125 44.09375 58 44.40625 
L 58 39.703125 
Q 53.59375 39.703125 52.34375 39.25 
Q 51.09375 38.796875 50.59375 37.59375 
L 34 2 
Q 32.90625 -0.40625 30.296875 -0.40625 
Q 27.703125 -0.40625 26.5 2.09375 
L 9 39.703125 
z
" id="CMUSerif-Bold-118"/>
     <path d="M 8.09375 7.796875 
Q 8.09375 11.09375 10.25 13.34375 
Q 12.40625 15.59375 15.796875 15.59375 
Q 20 15.59375 22.5 12 
Q 25 8.40625 25 3.09375 
Q 25 -0.796875 23.890625 -4.546875 
Q 22.796875 -8.296875 21.1875 -10.84375 
Q 19.59375 -13.40625 17.84375 -15.453125 
Q 16.09375 -17.5 14.796875 -18.453125 
Q 13.5 -19.40625 13 -19.40625 
Q 12.40625 -19.40625 11.75 -18.75 
Q 11.09375 -18.09375 11.09375 -17.40625 
Q 11.09375 -16.796875 12 -16 
Q 20.59375 -8.59375 21.40625 2 
Q 19.40625 0 15.90625 0 
Q 12.296875 0 10.1875 2.296875 
Q 8.09375 4.59375 8.09375 7.796875 
z
" id="CMUSerif-Bold-44"/>
     <path d="M 10.59375 45.21875 
L 73.1875 45.21875 
L 73.1875 37.40625 
L 10.59375 37.40625 
z
M 10.59375 25.296875 
L 73.1875 25.296875 
L 73.1875 17.484375 
L 10.59375 17.484375 
z
" id="DejaVuSerif-61"/>
     <path d="M 31.78125 3.421875 
Q 39.265625 3.421875 42.96875 11.625 
Q 46.6875 19.828125 46.6875 36.375 
Q 46.6875 52.984375 42.96875 61.1875 
Q 39.265625 69.390625 31.78125 69.390625 
Q 24.3125 69.390625 20.59375 61.1875 
Q 16.890625 52.984375 16.890625 36.375 
Q 16.890625 19.828125 20.59375 11.625 
Q 24.3125 3.421875 31.78125 3.421875 
z
M 31.78125 -1.421875 
Q 19.921875 -1.421875 13.25 8.53125 
Q 6.59375 18.5 6.59375 36.375 
Q 6.59375 54.296875 13.25 64.25 
Q 19.921875 74.21875 31.78125 74.21875 
Q 43.703125 74.21875 50.34375 64.25 
Q 56.984375 54.296875 56.984375 36.375 
Q 56.984375 18.5 50.34375 8.53125 
Q 43.703125 -1.421875 31.78125 -1.421875 
z
" id="DejaVuSerif-48"/>
     <path d="M 9.421875 5.078125 
Q 9.421875 7.8125 11.28125 9.71875 
Q 13.140625 11.625 15.921875 11.625 
Q 18.609375 11.625 20.5 9.71875 
Q 22.40625 7.8125 22.40625 5.078125 
Q 22.40625 2.390625 20.5 0.484375 
Q 18.609375 -1.421875 15.921875 -1.421875 
Q 13.140625 -1.421875 11.28125 0.453125 
Q 9.421875 2.34375 9.421875 5.078125 
z
" id="DejaVuSerif-46"/>
     <path d="M 46.578125 19.921875 
Q 46.578125 27.734375 42.6875 32.046875 
Q 38.8125 36.375 31.78125 36.375 
Q 24.75 36.375 20.875 32.046875 
Q 17 27.734375 17 19.921875 
Q 17 12.0625 20.875 7.734375 
Q 24.75 3.421875 31.78125 3.421875 
Q 38.8125 3.421875 42.6875 7.734375 
Q 46.578125 12.0625 46.578125 19.921875 
z
M 44.578125 55.328125 
Q 44.578125 61.96875 41.203125 65.671875 
Q 37.84375 69.390625 31.78125 69.390625 
Q 25.78125 69.390625 22.390625 65.671875 
Q 19 61.96875 19 55.328125 
Q 19 48.640625 22.390625 44.921875 
Q 25.78125 41.21875 31.78125 41.21875 
Q 37.84375 41.21875 41.203125 44.921875 
Q 44.578125 48.640625 44.578125 55.328125 
z
M 39.3125 38.8125 
Q 47.609375 37.703125 52.25 32.6875 
Q 56.890625 27.6875 56.890625 19.921875 
Q 56.890625 9.671875 50.390625 4.125 
Q 43.890625 -1.421875 31.78125 -1.421875 
Q 19.734375 -1.421875 13.203125 4.125 
Q 6.6875 9.671875 6.6875 19.921875 
Q 6.6875 27.6875 11.328125 32.6875 
Q 15.96875 37.703125 24.3125 38.8125 
Q 16.9375 40.140625 13 44.40625 
Q 9.078125 48.6875 9.078125 55.328125 
Q 9.078125 64.109375 15.125 69.15625 
Q 21.1875 74.21875 31.78125 74.21875 
Q 42.390625 74.21875 48.4375 69.15625 
Q 54.5 64.109375 54.5 55.328125 
Q 54.5 48.6875 50.5625 44.40625 
Q 46.625 40.140625 39.3125 38.8125 
z
" id="DejaVuSerif-56"/>
     <path d="M 9.71875 69.828125 
Q 15.4375 71.96875 20.671875 73.09375 
Q 25.921875 74.21875 30.515625 74.21875 
Q 41.21875 74.21875 47.21875 69.59375 
Q 53.21875 64.984375 53.21875 56.78125 
Q 53.21875 50.203125 49.0625 45.78125 
Q 44.921875 41.359375 37.3125 39.796875 
Q 46.296875 38.53125 51.25 33.28125 
Q 56.203125 28.03125 56.203125 19.671875 
Q 56.203125 9.46875 49.34375 4.015625 
Q 42.484375 -1.421875 29.59375 -1.421875 
Q 23.875 -1.421875 18.421875 -0.1875 
Q 12.984375 1.03125 7.625 3.515625 
L 7.625 17.671875 
L 13.09375 17.671875 
Q 13.578125 10.640625 17.828125 7.03125 
Q 22.078125 3.421875 29.78125 3.421875 
Q 37.25 3.421875 41.578125 7.734375 
Q 45.90625 12.0625 45.90625 19.578125 
Q 45.90625 28.171875 41.453125 32.59375 
Q 37.015625 37.015625 28.421875 37.015625 
L 23.78125 37.015625 
L 23.78125 42 
L 26.21875 42 
Q 34.765625 42 39.03125 45.53125 
Q 43.3125 49.078125 43.3125 56.203125 
Q 43.3125 62.59375 39.796875 65.984375 
Q 36.28125 69.390625 29.6875 69.390625 
Q 23.09375 69.390625 19.453125 66.265625 
Q 15.828125 63.140625 15.1875 56.984375 
L 9.71875 56.984375 
z
" id="DejaVuSerif-51"/>
     <path d="M 32.71875 3.421875 
Q 39.59375 3.421875 43.296875 8.46875 
Q 47.015625 13.53125 47.015625 23 
Q 47.015625 32.46875 43.296875 37.515625 
Q 39.59375 42.578125 32.71875 42.578125 
Q 25.734375 42.578125 22.0625 37.6875 
Q 18.40625 32.8125 18.40625 23.578125 
Q 18.40625 13.875 22.109375 8.640625 
Q 25.828125 3.421875 32.71875 3.421875 
z
M 16.796875 40.140625 
Q 20.125 43.796875 24.3125 45.59375 
Q 28.515625 47.40625 33.796875 47.40625 
Q 44.671875 47.40625 51 40.859375 
Q 57.328125 34.328125 57.328125 23 
Q 57.328125 11.921875 50.515625 5.25 
Q 43.703125 -1.421875 32.328125 -1.421875 
Q 19.96875 -1.421875 13.328125 7.78125 
Q 6.6875 17 6.6875 34.078125 
Q 6.6875 53.21875 14.546875 63.71875 
Q 22.40625 74.21875 36.71875 74.21875 
Q 40.578125 74.21875 44.828125 73.484375 
Q 49.078125 72.75 53.515625 71.296875 
L 53.515625 59.28125 
L 48 59.28125 
Q 47.40625 64.203125 44.234375 66.796875 
Q 41.0625 69.390625 35.6875 69.390625 
Q 26.21875 69.390625 21.578125 62.203125 
Q 16.9375 55.03125 16.796875 40.140625 
z
" id="DejaVuSerif-54"/>
     <path d="M 46.78125 32.671875 
Q 43.5 29 39.25 27.1875 
Q 35.015625 25.390625 29.6875 25.390625 
Q 18.84375 25.390625 12.5625 31.9375 
Q 6.296875 38.484375 6.296875 49.8125 
Q 6.296875 60.890625 13.109375 67.546875 
Q 19.921875 74.21875 31.296875 74.21875 
Q 43.65625 74.21875 50.265625 65.015625 
Q 56.890625 55.8125 56.890625 38.71875 
Q 56.890625 19.578125 49.015625 9.078125 
Q 41.15625 -1.421875 26.90625 -1.421875 
Q 23.046875 -1.421875 18.796875 -0.6875 
Q 14.546875 0.046875 10.109375 1.515625 
L 10.109375 13.625 
L 15.578125 13.625 
Q 16.21875 8.6875 19.390625 6.046875 
Q 22.5625 3.421875 27.875 3.421875 
Q 37.359375 3.421875 41.984375 10.5625 
Q 46.625 17.71875 46.78125 32.671875 
z
M 30.90625 69.390625 
Q 23.96875 69.390625 20.28125 64.328125 
Q 16.609375 59.28125 16.609375 49.8125 
Q 16.609375 40.328125 20.28125 35.25 
Q 23.96875 30.171875 30.90625 30.171875 
Q 37.84375 30.171875 41.53125 35.078125 
Q 45.21875 39.984375 45.21875 49.21875 
Q 45.21875 58.9375 41.5 64.15625 
Q 37.796875 69.390625 30.90625 69.390625 
z
" id="DejaVuSerif-57"/>
     <path d="M 12.796875 55.515625 
L 7.328125 55.515625 
L 7.328125 68.5 
Q 12.546875 71.296875 17.84375 72.75 
Q 23.140625 74.21875 28.21875 74.21875 
Q 39.59375 74.21875 46.1875 68.703125 
Q 52.78125 63.1875 52.78125 53.71875 
Q 52.78125 43.015625 37.84375 28.125 
Q 36.671875 27 36.078125 26.421875 
L 17.671875 8.015625 
L 48.09375 8.015625 
L 48.09375 17 
L 53.8125 17 
L 53.8125 0 
L 6.78125 0 
L 6.78125 5.328125 
L 28.90625 27.390625 
Q 36.234375 34.71875 39.359375 40.84375 
Q 42.484375 46.96875 42.484375 53.71875 
Q 42.484375 61.078125 38.640625 65.234375 
Q 34.8125 69.390625 28.078125 69.390625 
Q 21.09375 69.390625 17.28125 65.921875 
Q 13.484375 62.453125 12.796875 55.515625 
z
" id="DejaVuSerif-50"/>
    </defs>
    <g transform="translate(12.8775 14.76)scale(0.12 -0.12)">
     <use transform="translate(0 0.171875)" xlink:href="#CMUSerif-Bold-77"/>
     <use transform="translate(109.099991 0.171875)" xlink:href="#CMUSerif-Bold-111"/>
     <use transform="translate(166.599976 0.171875)" xlink:href="#CMUSerif-Bold-109"/>
     <use transform="translate(262.399963 0.171875)" xlink:href="#CMUSerif-Bold-101"/>
     <use transform="translate(315.09996 0.171875)" xlink:href="#CMUSerif-Bold-110"/>
     <use transform="translate(378.899948 0.171875)" xlink:href="#CMUSerif-Bold-116"/>
     <use transform="translate(423.599945 0.171875)" xlink:href="#CMUSerif-Bold-117"/>
     <use transform="translate(487.399933 0.171875)" xlink:href="#CMUSerif-Bold-109"/>
     <use transform="translate(583.199921 0.171875)" xlink:href="#CMUSerif-Bold-45"/>
     <use transform="translate(621.499908 0.171875)" xlink:href="#CMUSerif-Bold-101"/>
     <use transform="translate(674.199905 0.171875)" xlink:href="#CMUSerif-Bold-110"/>
     <use transform="translate(737.999893 0.171875)" xlink:href="#CMUSerif-Bold-101"/>
     <use transform="translate(790.69989 0.171875)" xlink:href="#CMUSerif-Bold-114"/>
     <use transform="translate(837.999878 0.171875)" xlink:href="#CMUSerif-Bold-103"/>
     <use transform="translate(895.499863 0.171875)" xlink:href="#CMUSerif-Bold-121"/>
     <use transform="translate(956.099854 0.171875)" xlink:href="#CMUSerif-Bold-32"/>
     <use transform="translate(994.399841 0.171875)" xlink:href="#CMUSerif-Bold-99"/>
     <use transform="translate(1045.499832 0.171875)" xlink:href="#CMUSerif-Bold-117"/>
     <use transform="translate(1109.29982 0.171875)" xlink:href="#CMUSerif-Bold-114"/>
     <use transform="translate(1156.599808 0.171875)" xlink:href="#CMUSerif-Bold-118"/>
     <use transform="translate(1217.199799 0.171875)" xlink:href="#CMUSerif-Bold-101"/>
     <use transform="translate(1269.899796 0.171875)" xlink:href="#CMUSerif-Bold-44"/>
     <use transform="translate(1301.799789 0.171875)" xlink:href="#CMUSerif-Bold-32"/>
     <use transform="translate(1340.099777 0.171875)" xlink:href="#DejaVuSerif-69"/>
     <use transform="translate(1414.006183 -15.4)scale(0.7)" xlink:href="#DejaVuSerif-Italic-70"/>
     <use transform="translate(1484.135676 0.171875)" xlink:href="#DejaVuSerif-61"/>
     <use transform="translate(1586.889582 0.171875)" xlink:href="#DejaVuSerif-48"/>
     <use transform="translate(1650.512629 0.171875)" xlink:href="#DejaVuSerif-46"/>
     <use transform="translate(1682.252863 0.171875)" xlink:href="#DejaVuSerif-56"/>
     <use transform="translate(1745.87591 0.171875)" xlink:href="#DejaVuSerif-51"/>
     <use transform="translate(1809.498957 0.171875)" xlink:href="#CMUSerif-Bold-32"/>
     <use transform="translate(1847.798945 0.171875)" xlink:href="#CMUSerif-Bold-91"/>
     <use transform="translate(1879.698939 0.171875)" xlink:href="#CMUSerif-Bold-109"/>
     <use transform="translate(1975.498926 0.171875)" xlink:href="#CMUSerif-Bold-101"/>
     <use transform="translate(2028.198923 0.171875)" xlink:href="#CMUSerif-Bold-86"/>
     <use transform="translate(2115.098917 0.171875)" xlink:href="#CMUSerif-Bold-93"/>
     <use transform="translate(2146.998911 0.171875)" xlink:href="#CMUSerif-Bold-44"/>
     <use transform="translate(2178.898905 0.171875)" xlink:href="#CMUSerif-Bold-32"/>
     <use transform="translate(2217.198893 0.171875)" xlink:href="#DejaVuSerif-107"/>
     <use transform="translate(2278.702955 -15.4)scale(0.7)" xlink:href="#DejaVuSerif-Italic-70"/>
     <use transform="translate(2348.832448 0.171875)" xlink:href="#DejaVuSerif-61"/>
     <use transform="translate(2451.586354 0.171875)" xlink:href="#DejaVuSerif-48"/>
     <use transform="translate(2515.209401 0.171875)" xlink:href="#DejaVuSerif-46"/>
     <use transform="translate(2546.99651 0.171875)" xlink:href="#DejaVuSerif-54"/>
     <use transform="translate(2610.619557 0.171875)" xlink:href="#DejaVuSerif-57"/>
     <use transform="translate(2674.226979 0.171875)" xlink:href="#DejaVuSerif-50"/>
     <use transform="translate(2737.850026 0.171875)" xlink:href="#DejaVuSerif-54"/>
     <use transform="translate(2801.473073 0.171875)" xlink:href="#CMUSerif-Bold-32"/>
     <use transform="translate(2839.77306 0.171875)" xlink:href="#CMUSerif-Bold-91"/>
     <use transform="translate(2871.673054 0.171875)" xlink:href="#DejaVuSerif-197"/>
     <use transform="translate(2944.79821 36.50625)scale(0.7)" xlink:href="#DejaVuSerif-8722"/>
     <use transform="translate(3003.450554 36.50625)scale(0.7)" xlink:href="#DejaVuSerif-49"/>
     <use transform="translate(3050.582 0.171875)" xlink:href="#CMUSerif-Bold-93"/>
    </g>
   </g>
  </g>
 </g>
 <defs>
  <clipPath id="p1f587252c8">
   <rect height="194.04" width="279" x="58.3575" y="20.76"/>
  </clipPath>
 </defs>
</svg>
