<?xml version="1.0" encoding="utf-8" standalone="no"?>
<!DOCTYPE svg PUBLIC "-//W3C//DTD SVG 1.1//EN"
  "http://www.w3.org/Graphics/SVG/1.1/DTD/svg11.dtd">
<!-- Created with matplotlib (https://matplotlib.org/) -->
<svg height="250.7175pt" version="1.1" viewBox="0 0 426.6 250.7175" width="426.6pt" xmlns="http://www.w3.org/2000/svg" xmlns:xlink="http://www.w3.org/1999/xlink">
 <defs>
  <style type="text/css">
*{stroke-linecap:butt;stroke-linejoin:round;}
  </style>
 </defs>
 <g id="figure_1">
  <g id="patch_1">
   <path d="M 0 250.7175 
L 426.6 250.7175 
L 426.6 0 
L 0 0 
z
" style="fill:#ffffff;"/>
  </g>
  <g id="axes_1">
   <g id="patch_2">
    <path d="M 73.8 214.8 
L 352.8 214.8 
L 352.8 20.76 
L 73.8 20.76 
z
" style="fill:#ffffff;"/>
   </g>
   <g id="matplotlib.axis_1">
    <g id="xtick_1">
     <g id="line2d_1">
      <path clip-path="url(#p77547dce4d)" d="M 89.448334 214.8 
L 89.448334 20.76 
" style="fill:none;stroke:#b0b0b0;stroke-linecap:square;stroke-width:0.5;"/>
     </g>
     <g id="line2d_2">
      <defs>
       <path d="M 0 0 
L 0 -3 
" id="m840887bb1d" style="stroke:#000000;stroke-width:0.5;"/>
      </defs>
      <g>
       <use style="stroke:#000000;stroke-width:0.5;" x="89.448334" xlink:href="#m840887bb1d" y="214.8"/>
      </g>
     </g>
     <g id="line2d_3">
      <defs>
       <path d="M 0 0 
L 0 3 
" id="md462f1196a" style="stroke:#000000;stroke-width:0.5;"/>
      </defs>
      <g>
       <use style="stroke:#000000;stroke-width:0.5;" x="89.448334" xlink:href="#md462f1196a" y="20.76"/>
      </g>
     </g>
     <g id="text_1">
      <!-- 0.00 -->
      <defs>
       <path d="M 4.59375 24.90625 
Q 4.5 28.90625 4.5 31.90625 
Q 4.5 34.90625 4.546875 36.90625 
Q 4.59375 38.90625 5.09375 42.75 
Q 5.59375 46.59375 6.4375 49.296875 
Q 7.296875 52 9.09375 55.296875 
Q 10.90625 58.59375 13.34375 60.640625 
Q 15.796875 62.703125 19.75 64.09375 
Q 23.703125 65.5 28.703125 65.5 
Q 33.703125 65.5 37.640625 64.046875 
Q 41.59375 62.59375 44.046875 60.59375 
Q 46.5 58.59375 48.296875 55.25 
Q 50.09375 51.90625 50.9375 49.25 
Q 51.796875 46.59375 52.296875 42.75 
Q 52.796875 38.90625 52.84375 36.90625 
Q 52.90625 34.90625 52.90625 31.90625 
Q 52.90625 28.90625 52.84375 26.84375 
Q 52.796875 24.796875 52.296875 21.046875 
Q 51.796875 17.296875 50.9375 14.640625 
Q 50.09375 12 48.296875 8.796875 
Q 46.5 5.59375 44 3.59375 
Q 41.5 1.59375 37.546875 0.25 
Q 33.59375 -1.09375 28.703125 -1.09375 
Q 23.703125 -1.09375 19.75 0.296875 
Q 15.796875 1.703125 13.34375 3.640625 
Q 10.90625 5.59375 9.09375 8.84375 
Q 7.296875 12.09375 6.4375 14.6875 
Q 5.59375 17.296875 5.09375 21.09375 
Q 4.59375 24.90625 4.5 28.90625 
z
M 17.296875 33.09375 
Q 17.296875 17.203125 18.203125 12 
Q 19.09375 7.09375 22.25 4.796875 
Q 25.40625 2.5 28.703125 2.5 
Q 30.703125 2.5 32.59375 3.140625 
Q 34.5 3.796875 36.640625 6.34375 
Q 38.796875 8.90625 39.40625 13.203125 
Q 40.09375 18.40625 40.09375 33.09375 
Q 40.09375 51.90625 38.40625 55.59375 
Q 37.09375 58.703125 34.390625 60.296875 
Q 31.703125 61.90625 28.703125 61.90625 
Q 26.90625 61.90625 25.046875 61.40625 
Q 23.203125 60.90625 20.890625 58.453125 
Q 18.59375 56 18.09375 52 
Q 17.296875 46.796875 17.296875 33.09375 
z
" id="CMUSerif-Bold-48"/>
       <path d="M 8.09375 7.796875 
Q 8.09375 11.203125 10.5 13.390625 
Q 12.90625 15.59375 15.90625 15.59375 
Q 19 15.59375 21.34375 13.34375 
Q 23.703125 11.09375 23.703125 7.796875 
Q 23.703125 4.796875 21.453125 2.390625 
Q 19.203125 0 15.90625 0 
Q 12.796875 0 10.4375 2.25 
Q 8.09375 4.5 8.09375 7.796875 
z
" id="CMUSerif-Bold-46"/>
      </defs>
      <g transform="translate(77.183959 226.62875)scale(0.12 -0.12)">
       <use xlink:href="#CMUSerif-Bold-48"/>
       <use x="57.499985" xlink:href="#CMUSerif-Bold-46"/>
       <use x="89.399979" xlink:href="#CMUSerif-Bold-48"/>
       <use x="146.899963" xlink:href="#CMUSerif-Bold-48"/>
      </g>
     </g>
    </g>
    <g id="xtick_2">
     <g id="line2d_4">
      <path clip-path="url(#p77547dce4d)" d="M 155.777553 214.8 
L 155.777553 20.76 
" style="fill:none;stroke:#b0b0b0;stroke-linecap:square;stroke-width:0.5;"/>
     </g>
     <g id="line2d_5">
      <g>
       <use style="stroke:#000000;stroke-width:0.5;" x="155.777553" xlink:href="#m840887bb1d" y="214.8"/>
      </g>
     </g>
     <g id="line2d_6">
      <g>
       <use style="stroke:#000000;stroke-width:0.5;" x="155.777553" xlink:href="#md462f1196a" y="20.76"/>
      </g>
     </g>
     <g id="text_2">
      <!-- 0.05 -->
      <defs>
       <path d="M 5.703125 15.90625 
Q 5.703125 18.703125 7.140625 20.390625 
Q 8.59375 22.09375 9.9375 22.5 
Q 11.296875 22.90625 12.40625 22.90625 
Q 14.796875 22.90625 16.9375 21.25 
Q 19.09375 19.59375 19.09375 16.09375 
Q 19.09375 13.09375 17.25 11.34375 
Q 15.40625 9.59375 12.59375 9.40625 
Q 17.203125 3.203125 25.5 3.203125 
Q 28 3.203125 29.953125 3.796875 
Q 31.90625 4.40625 33.15625 5.296875 
Q 34.40625 6.203125 35.25 7.75 
Q 36.09375 9.296875 36.546875 10.546875 
Q 37 11.796875 37.203125 13.890625 
Q 37.40625 16 37.453125 17.203125 
Q 37.5 18.40625 37.5 20.5 
Q 37.5 23.703125 37.453125 25.390625 
Q 37.40625 27.09375 36.953125 29.75 
Q 36.5 32.40625 35.59375 33.75 
Q 34.703125 35.09375 32.953125 36.1875 
Q 31.203125 37.296875 28.59375 37.296875 
Q 19.90625 37.296875 15.203125 31.703125 
Q 14.203125 30.5 13 30.5 
Q 12 30.5 11.5 30.953125 
Q 11 31.40625 10.890625 31.953125 
Q 10.796875 32.5 10.796875 33.59375 
L 10.796875 62.796875 
Q 10.796875 63.796875 10.84375 64.25 
Q 10.90625 64.703125 11.203125 65.09375 
Q 11.5 65.5 12.203125 65.5 
Q 12.296875 65.5 13.5 65.09375 
Q 21.59375 62.296875 29 62.296875 
Q 37 62.296875 44.296875 65.09375 
Q 45.40625 65.5 45.796875 65.5 
Q 47.203125 65.5 47.203125 63.703125 
Q 47.203125 62.59375 45.453125 60.4375 
Q 43.703125 58.296875 40.796875 55.890625 
Q 37.90625 53.5 33.203125 51.703125 
Q 28.5 49.90625 23.40625 49.90625 
Q 20 49.90625 16.09375 50.59375 
L 16.09375 37.40625 
Q 21.203125 40.90625 29 40.90625 
Q 39.703125 40.90625 45.703125 35 
Q 51.703125 29.09375 51.703125 20.09375 
Q 51.703125 10.796875 44.703125 4.84375 
Q 37.703125 -1.09375 25.90625 -1.09375 
Q 17 -1.09375 11.34375 4.046875 
Q 5.703125 9.203125 5.703125 15.90625 
z
" id="CMUSerif-Bold-53"/>
      </defs>
      <g transform="translate(143.513178 226.62875)scale(0.12 -0.12)">
       <use xlink:href="#CMUSerif-Bold-48"/>
       <use x="57.499985" xlink:href="#CMUSerif-Bold-46"/>
       <use x="89.399979" xlink:href="#CMUSerif-Bold-48"/>
       <use x="146.899963" xlink:href="#CMUSerif-Bold-53"/>
      </g>
     </g>
    </g>
    <g id="xtick_3">
     <g id="line2d_7">
      <path clip-path="url(#p77547dce4d)" d="M 222.106771 214.8 
L 222.106771 20.76 
" style="fill:none;stroke:#b0b0b0;stroke-linecap:square;stroke-width:0.5;"/>
     </g>
     <g id="line2d_8">
      <g>
       <use style="stroke:#000000;stroke-width:0.5;" x="222.106771" xlink:href="#m840887bb1d" y="214.8"/>
      </g>
     </g>
     <g id="line2d_9">
      <g>
       <use style="stroke:#000000;stroke-width:0.5;" x="222.106771" xlink:href="#md462f1196a" y="20.76"/>
      </g>
     </g>
     <g id="text_3">
      <!-- 0.10 -->
      <defs>
       <path d="M 8.5 54.40625 
L 8.5 59.09375 
L 10.5 59.09375 
Q 22.90625 59.09375 30.59375 64.796875 
Q 31.5 65.5 32.796875 65.5 
Q 34.59375 65.5 35 64.84375 
Q 35.40625 64.203125 35.40625 62.296875 
L 35.40625 4.703125 
L 49.40625 4.703125 
L 49.40625 0 
Q 45 0.296875 29.5 0.296875 
Q 14 0.296875 9.59375 0 
L 9.59375 4.703125 
L 23.5 4.703125 
L 23.5 56.40625 
Q 17.296875 54.40625 10.5 54.40625 
z
" id="CMUSerif-Bold-49"/>
      </defs>
      <g transform="translate(209.842396 226.62875)scale(0.12 -0.12)">
       <use xlink:href="#CMUSerif-Bold-48"/>
       <use x="57.499985" xlink:href="#CMUSerif-Bold-46"/>
       <use x="89.399979" xlink:href="#CMUSerif-Bold-49"/>
       <use x="146.899963" xlink:href="#CMUSerif-Bold-48"/>
      </g>
     </g>
    </g>
    <g id="xtick_4">
     <g id="line2d_10">
      <path clip-path="url(#p77547dce4d)" d="M 288.43599 214.8 
L 288.43599 20.76 
" style="fill:none;stroke:#b0b0b0;stroke-linecap:square;stroke-width:0.5;"/>
     </g>
     <g id="line2d_11">
      <g>
       <use style="stroke:#000000;stroke-width:0.5;" x="288.43599" xlink:href="#m840887bb1d" y="214.8"/>
      </g>
     </g>
     <g id="line2d_12">
      <g>
       <use style="stroke:#000000;stroke-width:0.5;" x="288.43599" xlink:href="#md462f1196a" y="20.76"/>
      </g>
     </g>
     <g id="text_4">
      <!-- 0.15 -->
      <g transform="translate(276.171615 226.62875)scale(0.12 -0.12)">
       <use xlink:href="#CMUSerif-Bold-48"/>
       <use x="57.499985" xlink:href="#CMUSerif-Bold-46"/>
       <use x="89.399979" xlink:href="#CMUSerif-Bold-49"/>
       <use x="146.899963" xlink:href="#CMUSerif-Bold-53"/>
      </g>
     </g>
    </g>
    <g id="xtick_5">
     <g id="line2d_13">
      <defs>
       <path d="M 0 0 
L 0 -1.5 
" id="m2f894c30b5" style="stroke:#000000;stroke-width:0.5;"/>
      </defs>
      <g>
       <use style="stroke:#000000;stroke-width:0.5;" x="76.18249" xlink:href="#m2f894c30b5" y="214.8"/>
      </g>
     </g>
     <g id="line2d_14">
      <defs>
       <path d="M 0 0 
L 0 1.5 
" id="mfb36b41f2d" style="stroke:#000000;stroke-width:0.5;"/>
      </defs>
      <g>
       <use style="stroke:#000000;stroke-width:0.5;" x="76.18249" xlink:href="#mfb36b41f2d" y="20.76"/>
      </g>
     </g>
    </g>
    <g id="xtick_6">
     <g id="line2d_15">
      <g>
       <use style="stroke:#000000;stroke-width:0.5;" x="102.714178" xlink:href="#m2f894c30b5" y="214.8"/>
      </g>
     </g>
     <g id="line2d_16">
      <g>
       <use style="stroke:#000000;stroke-width:0.5;" x="102.714178" xlink:href="#mfb36b41f2d" y="20.76"/>
      </g>
     </g>
    </g>
    <g id="xtick_7">
     <g id="line2d_17">
      <g>
       <use style="stroke:#000000;stroke-width:0.5;" x="115.980022" xlink:href="#m2f894c30b5" y="214.8"/>
      </g>
     </g>
     <g id="line2d_18">
      <g>
       <use style="stroke:#000000;stroke-width:0.5;" x="115.980022" xlink:href="#mfb36b41f2d" y="20.76"/>
      </g>
     </g>
    </g>
    <g id="xtick_8">
     <g id="line2d_19">
      <g>
       <use style="stroke:#000000;stroke-width:0.5;" x="129.245865" xlink:href="#m2f894c30b5" y="214.8"/>
      </g>
     </g>
     <g id="line2d_20">
      <g>
       <use style="stroke:#000000;stroke-width:0.5;" x="129.245865" xlink:href="#mfb36b41f2d" y="20.76"/>
      </g>
     </g>
    </g>
    <g id="xtick_9">
     <g id="line2d_21">
      <g>
       <use style="stroke:#000000;stroke-width:0.5;" x="142.511709" xlink:href="#m2f894c30b5" y="214.8"/>
      </g>
     </g>
     <g id="line2d_22">
      <g>
       <use style="stroke:#000000;stroke-width:0.5;" x="142.511709" xlink:href="#mfb36b41f2d" y="20.76"/>
      </g>
     </g>
    </g>
    <g id="xtick_10">
     <g id="line2d_23">
      <g>
       <use style="stroke:#000000;stroke-width:0.5;" x="169.043396" xlink:href="#m2f894c30b5" y="214.8"/>
      </g>
     </g>
     <g id="line2d_24">
      <g>
       <use style="stroke:#000000;stroke-width:0.5;" x="169.043396" xlink:href="#mfb36b41f2d" y="20.76"/>
      </g>
     </g>
    </g>
    <g id="xtick_11">
     <g id="line2d_25">
      <g>
       <use style="stroke:#000000;stroke-width:0.5;" x="182.30924" xlink:href="#m2f894c30b5" y="214.8"/>
      </g>
     </g>
     <g id="line2d_26">
      <g>
       <use style="stroke:#000000;stroke-width:0.5;" x="182.30924" xlink:href="#mfb36b41f2d" y="20.76"/>
      </g>
     </g>
    </g>
    <g id="xtick_12">
     <g id="line2d_27">
      <g>
       <use style="stroke:#000000;stroke-width:0.5;" x="195.575084" xlink:href="#m2f894c30b5" y="214.8"/>
      </g>
     </g>
     <g id="line2d_28">
      <g>
       <use style="stroke:#000000;stroke-width:0.5;" x="195.575084" xlink:href="#mfb36b41f2d" y="20.76"/>
      </g>
     </g>
    </g>
    <g id="xtick_13">
     <g id="line2d_29">
      <g>
       <use style="stroke:#000000;stroke-width:0.5;" x="208.840927" xlink:href="#m2f894c30b5" y="214.8"/>
      </g>
     </g>
     <g id="line2d_30">
      <g>
       <use style="stroke:#000000;stroke-width:0.5;" x="208.840927" xlink:href="#mfb36b41f2d" y="20.76"/>
      </g>
     </g>
    </g>
    <g id="xtick_14">
     <g id="line2d_31">
      <g>
       <use style="stroke:#000000;stroke-width:0.5;" x="235.372615" xlink:href="#m2f894c30b5" y="214.8"/>
      </g>
     </g>
     <g id="line2d_32">
      <g>
       <use style="stroke:#000000;stroke-width:0.5;" x="235.372615" xlink:href="#mfb36b41f2d" y="20.76"/>
      </g>
     </g>
    </g>
    <g id="xtick_15">
     <g id="line2d_33">
      <g>
       <use style="stroke:#000000;stroke-width:0.5;" x="248.638459" xlink:href="#m2f894c30b5" y="214.8"/>
      </g>
     </g>
     <g id="line2d_34">
      <g>
       <use style="stroke:#000000;stroke-width:0.5;" x="248.638459" xlink:href="#mfb36b41f2d" y="20.76"/>
      </g>
     </g>
    </g>
    <g id="xtick_16">
     <g id="line2d_35">
      <g>
       <use style="stroke:#000000;stroke-width:0.5;" x="261.904302" xlink:href="#m2f894c30b5" y="214.8"/>
      </g>
     </g>
     <g id="line2d_36">
      <g>
       <use style="stroke:#000000;stroke-width:0.5;" x="261.904302" xlink:href="#mfb36b41f2d" y="20.76"/>
      </g>
     </g>
    </g>
    <g id="xtick_17">
     <g id="line2d_37">
      <g>
       <use style="stroke:#000000;stroke-width:0.5;" x="275.170146" xlink:href="#m2f894c30b5" y="214.8"/>
      </g>
     </g>
     <g id="line2d_38">
      <g>
       <use style="stroke:#000000;stroke-width:0.5;" x="275.170146" xlink:href="#mfb36b41f2d" y="20.76"/>
      </g>
     </g>
    </g>
    <g id="xtick_18">
     <g id="line2d_39">
      <g>
       <use style="stroke:#000000;stroke-width:0.5;" x="301.701833" xlink:href="#m2f894c30b5" y="214.8"/>
      </g>
     </g>
     <g id="line2d_40">
      <g>
       <use style="stroke:#000000;stroke-width:0.5;" x="301.701833" xlink:href="#mfb36b41f2d" y="20.76"/>
      </g>
     </g>
    </g>
    <g id="xtick_19">
     <g id="line2d_41">
      <g>
       <use style="stroke:#000000;stroke-width:0.5;" x="314.967677" xlink:href="#m2f894c30b5" y="214.8"/>
      </g>
     </g>
     <g id="line2d_42">
      <g>
       <use style="stroke:#000000;stroke-width:0.5;" x="314.967677" xlink:href="#mfb36b41f2d" y="20.76"/>
      </g>
     </g>
    </g>
    <g id="xtick_20">
     <g id="line2d_43">
      <g>
       <use style="stroke:#000000;stroke-width:0.5;" x="328.233521" xlink:href="#m2f894c30b5" y="214.8"/>
      </g>
     </g>
     <g id="line2d_44">
      <g>
       <use style="stroke:#000000;stroke-width:0.5;" x="328.233521" xlink:href="#mfb36b41f2d" y="20.76"/>
      </g>
     </g>
    </g>
    <g id="xtick_21">
     <g id="line2d_45">
      <g>
       <use style="stroke:#000000;stroke-width:0.5;" x="341.499364" xlink:href="#m2f894c30b5" y="214.8"/>
      </g>
     </g>
     <g id="line2d_46">
      <g>
       <use style="stroke:#000000;stroke-width:0.5;" x="341.499364" xlink:href="#mfb36b41f2d" y="20.76"/>
      </g>
     </g>
    </g>
    <g id="text_5">
     <!-- $\mathrm{k} - \mathrm{k}_F$ [$\mathrm{\AA}^{-1}$] -->
     <defs>
      <path d="M 28.609375 0 
L 3.421875 0 
L 3.421875 5.171875 
L 11.53125 5.171875 
L 11.53125 70.796875 
L 2.875 70.796875 
L 2.875 75.984375 
L 20.515625 75.984375 
L 20.515625 26.515625 
L 42.390625 46.6875 
L 34.90625 46.6875 
L 34.90625 51.90625 
L 58.40625 51.90625 
L 58.40625 46.6875 
L 49.515625 46.6875 
L 34.078125 32.421875 
L 53.8125 5.171875 
L 61.28125 5.171875 
L 61.28125 0 
L 35.6875 0 
L 35.6875 5.171875 
L 43.109375 5.171875 
L 27.59375 26.515625 
L 20.515625 19.921875 
L 20.515625 5.171875 
L 28.609375 5.171875 
z
" id="DejaVuSerif-107"/>
      <path d="M 10.59375 35.296875 
L 73.1875 35.296875 
L 73.1875 27.390625 
L 10.59375 27.390625 
z
" id="DejaVuSerif-8722"/>
      <path d="M -1.515625 0 
L -0.53125 5.171875 
L 8.734375 5.171875 
L 20.90625 67.671875 
L 11.625 67.671875 
L 12.640625 72.90625 
L 72.3125 72.90625 
L 69.1875 56.6875 
L 63.1875 56.6875 
L 65.140625 66.890625 
L 30.671875 66.890625 
L 25.921875 42.484375 
L 50.828125 42.484375 
L 52.59375 51.609375 
L 58.59375 51.609375 
L 53.90625 27.390625 
L 47.90625 27.390625 
L 49.65625 36.53125 
L 24.75 36.53125 
L 18.65625 5.171875 
L 30.328125 5.171875 
L 29.34375 0 
z
" id="DejaVuSerif-Italic-70"/>
      <path id="CMUSerif-Bold-32"/>
      <path d="M 10.5 -25 
L 10.5 75 
L 29.40625 75 
L 29.40625 71.40625 
L 21.40625 71.40625 
L 21.40625 -21.40625 
L 29.40625 -21.40625 
L 29.40625 -25 
z
" id="CMUSerif-Bold-91"/>
      <path d="M 43.3125 79.390625 
Q 43.3125 82.46875 41.140625 84.640625 
Q 38.96875 86.8125 35.890625 86.8125 
Q 32.765625 86.8125 30.640625 84.6875 
Q 28.515625 82.5625 28.515625 79.390625 
Q 28.515625 76.3125 30.640625 74.15625 
Q 32.765625 72.015625 35.890625 72.015625 
Q 38.96875 72.015625 41.140625 74.15625 
Q 43.3125 76.3125 43.3125 79.390625 
z
M 20.015625 26.421875 
L 46.6875 26.421875 
L 33.40625 61.078125 
z
M -0.59375 0 
L -0.59375 5.171875 
L 5.8125 5.171875 
L 29.6875 67.578125 
Q 26.171875 69.390625 24.34375 72.359375 
Q 22.515625 75.34375 22.515625 79.390625 
Q 22.515625 84.96875 26.421875 88.890625 
Q 30.328125 92.828125 35.890625 92.828125 
Q 41.453125 92.828125 45.375 88.890625 
Q 49.3125 84.96875 49.3125 79.390625 
Q 49.3125 75.484375 47.40625 72.375 
Q 45.515625 69.28125 42 67.578125 
L 66.015625 5.171875 
L 73.1875 5.171875 
L 73.1875 0 
L 46.6875 0 
L 46.6875 5.171875 
L 54.78125 5.171875 
L 48.6875 21.1875 
L 18.015625 21.1875 
L 11.921875 5.171875 
L 19.921875 5.171875 
L 19.921875 0 
z
" id="DejaVuSerif-197"/>
      <path d="M 14.203125 0 
L 14.203125 5.171875 
L 26.90625 5.171875 
L 26.90625 65.828125 
L 12.203125 56.296875 
L 12.203125 62.703125 
L 29.984375 74.21875 
L 36.71875 74.21875 
L 36.71875 5.171875 
L 49.421875 5.171875 
L 49.421875 0 
z
" id="DejaVuSerif-49"/>
      <path d="M 2.5 -21.40625 
L 10.5 -21.40625 
L 10.5 71.40625 
L 2.5 71.40625 
L 2.5 75 
L 21.40625 75 
L 21.40625 -25 
L 2.5 -25 
z
" id="CMUSerif-Bold-93"/>
     </defs>
     <g transform="translate(178.74 244.1175)scale(0.12 -0.12)">
      <use transform="translate(0 0.171875)" xlink:href="#DejaVuSerif-107"/>
      <use transform="translate(79.560547 0.171875)" xlink:href="#DejaVuSerif-8722"/>
      <use transform="translate(182.314453 0.171875)" xlink:href="#DejaVuSerif-107"/>
      <use transform="translate(243.818516 -15.4)scale(0.7)" xlink:href="#DejaVuSerif-Italic-70"/>
      <use transform="translate(294.983164 0.171875)" xlink:href="#CMUSerif-Bold-32"/>
      <use transform="translate(333.283152 0.171875)" xlink:href="#CMUSerif-Bold-91"/>
      <use transform="translate(365.183146 0.171875)" xlink:href="#DejaVuSerif-197"/>
      <use transform="translate(438.308302 36.50625)scale(0.7)" xlink:href="#DejaVuSerif-8722"/>
      <use transform="translate(496.960646 36.50625)scale(0.7)" xlink:href="#DejaVuSerif-49"/>
      <use transform="translate(544.092091 0.171875)" xlink:href="#CMUSerif-Bold-93"/>
     </g>
    </g>
   </g>
   <g id="matplotlib.axis_2">
    <g id="ytick_1">
     <g id="line2d_47">
      <path clip-path="url(#p77547dce4d)" d="M 73.8 196.830729 
L 352.8 196.830729 
" style="fill:none;stroke:#b0b0b0;stroke-linecap:square;stroke-width:0.5;"/>
     </g>
     <g id="line2d_48">
      <defs>
       <path d="M 0 0 
L 3 0 
" id="mc355b4858f" style="stroke:#000000;stroke-width:0.5;"/>
      </defs>
      <g>
       <use style="stroke:#000000;stroke-width:0.5;" x="73.8" xlink:href="#mc355b4858f" y="196.830729"/>
      </g>
     </g>
     <g id="line2d_49">
      <defs>
       <path d="M 0 0 
L -3 0 
" id="mbd121e87e1" style="stroke:#000000;stroke-width:0.5;"/>
      </defs>
      <g>
       <use style="stroke:#000000;stroke-width:0.5;" x="352.8" xlink:href="#mbd121e87e1" y="196.830729"/>
      </g>
     </g>
     <g id="text_6">
      <!-- −0.30 -->
      <defs>
       <path d="M 9.203125 23.203125 
Q 6.40625 23.203125 6.40625 25 
Q 6.40625 26.796875 9.296875 26.796875 
L 80 26.796875 
Q 82.796875 26.796875 82.796875 25 
Q 82.796875 23.296875 80.296875 23.203125 
L 9.203125 23.203125 
z
" id="CMUSerif-Bold-8722"/>
       <path d="M 4.796875 13.90625 
Q 4.796875 17.59375 7 19.640625 
Q 9.203125 21.703125 12.5 21.703125 
Q 15.796875 21.703125 17.9375 19.59375 
Q 20.09375 17.5 20.09375 14.09375 
Q 20.09375 8.203125 14.296875 6.59375 
Q 19.703125 3.203125 26.90625 3.203125 
Q 29.90625 3.203125 32 4.390625 
Q 34.09375 5.59375 35.09375 7.046875 
Q 36.09375 8.5 36.640625 10.890625 
Q 37.203125 13.296875 37.25 14.640625 
Q 37.296875 16 37.296875 18.09375 
Q 37.296875 20.296875 37.25 21.640625 
Q 37.203125 23 36.59375 25.453125 
Q 36 27.90625 34.953125 29.296875 
Q 33.90625 30.703125 31.703125 31.84375 
Q 29.5 33 26.40625 33 
L 22 33 
Q 20.90625 33 20.453125 33.046875 
Q 20 33.09375 19.59375 33.5 
Q 19.203125 33.90625 19.203125 34.796875 
Q 19.203125 36.40625 20.40625 36.5 
Q 21.5 36.703125 25.203125 36.90625 
Q 27.703125 37 29.59375 38.046875 
Q 31.5 39.09375 32.546875 40.796875 
Q 33.59375 42.5 34.296875 44.09375 
Q 35 45.703125 35.296875 47.59375 
Q 35.59375 49.5 35.640625 50.34375 
Q 35.703125 51.203125 35.703125 51.90625 
Q 35.703125 61.59375 27.09375 61.59375 
Q 20.59375 61.59375 16.09375 58 
Q 21.90625 56.59375 21.90625 51 
Q 21.90625 48.09375 20 46.09375 
Q 18.09375 44.09375 14.90625 44.09375 
Q 12 44.09375 10 46.046875 
Q 8 48 8 51.09375 
Q 8 57.203125 13.453125 61.34375 
Q 18.90625 65.5 27.703125 65.5 
Q 37.90625 65.5 43.65625 61.546875 
Q 49.40625 57.59375 49.40625 51.59375 
Q 49.40625 45.59375 45.203125 41.296875 
Q 41 37 35.203125 35.203125 
Q 40.296875 34.09375 43.9375 32.046875 
Q 47.59375 30 49.34375 27.453125 
Q 51.09375 24.90625 51.84375 22.65625 
Q 52.59375 20.40625 52.59375 18 
Q 52.59375 10.296875 46.25 4.59375 
Q 39.90625 -1.09375 27.40625 -1.09375 
Q 17.59375 -1.09375 11.1875 3.046875 
Q 4.796875 7.203125 4.796875 13.90625 
z
" id="CMUSerif-Bold-51"/>
      </defs>
      <g transform="translate(35.0425 200.995104)scale(0.12 -0.12)">
       <use xlink:href="#CMUSerif-Bold-8722"/>
       <use x="89.399994" xlink:href="#CMUSerif-Bold-48"/>
       <use x="146.899979" xlink:href="#CMUSerif-Bold-46"/>
       <use x="178.799973" xlink:href="#CMUSerif-Bold-51"/>
       <use x="236.299957" xlink:href="#CMUSerif-Bold-48"/>
      </g>
     </g>
    </g>
    <g id="ytick_2">
     <g id="line2d_50">
      <path clip-path="url(#p77547dce4d)" d="M 73.8 169.558373 
L 352.8 169.558373 
" style="fill:none;stroke:#b0b0b0;stroke-linecap:square;stroke-width:0.5;"/>
     </g>
     <g id="line2d_51">
      <g>
       <use style="stroke:#000000;stroke-width:0.5;" x="73.8" xlink:href="#mc355b4858f" y="169.558373"/>
      </g>
     </g>
     <g id="line2d_52">
      <g>
       <use style="stroke:#000000;stroke-width:0.5;" x="352.8" xlink:href="#mbd121e87e1" y="169.558373"/>
      </g>
     </g>
     <g id="text_7">
      <!-- −0.25 -->
      <defs>
       <path d="M 5.703125 0 
L 5.703125 1.796875 
Q 5.703125 3.40625 5.890625 3.84375 
Q 6.09375 4.296875 7 5.203125 
L 27.09375 25.703125 
Q 37.90625 36.703125 37.90625 46.5 
Q 37.90625 52.5 34.40625 56.640625 
Q 30.90625 60.796875 24.703125 60.796875 
Q 18.59375 60.796875 14.40625 57.296875 
Q 15.5 57 16.59375 56.453125 
Q 17.703125 55.90625 18.890625 54.203125 
Q 20.09375 52.5 20.09375 50.09375 
Q 20.09375 46.59375 17.84375 44.75 
Q 15.59375 42.90625 12.90625 42.90625 
Q 10.40625 42.90625 8.046875 44.65625 
Q 5.703125 46.40625 5.703125 50.296875 
Q 5.703125 57 11.84375 61.25 
Q 18 65.5 27.203125 65.5 
Q 37.90625 65.5 44.796875 60.296875 
Q 51.703125 55.09375 51.703125 46.59375 
Q 51.703125 43.09375 50.703125 40.390625 
Q 49.703125 37.703125 46.890625 34.75 
Q 44.09375 31.796875 41.6875 29.890625 
Q 39.296875 28 33.90625 24 
Q 29.203125 20.59375 19.5 12.5 
L 34.203125 12.5 
Q 43.296875 12.5 44.40625 13.09375 
Q 45.703125 13.796875 47 22.203125 
L 51.703125 22.203125 
L 48.59375 0 
z
" id="CMUSerif-Bold-50"/>
      </defs>
      <g transform="translate(35.0425 173.722748)scale(0.12 -0.12)">
       <use xlink:href="#CMUSerif-Bold-8722"/>
       <use x="89.399994" xlink:href="#CMUSerif-Bold-48"/>
       <use x="146.899979" xlink:href="#CMUSerif-Bold-46"/>
       <use x="178.799973" xlink:href="#CMUSerif-Bold-50"/>
       <use x="236.299957" xlink:href="#CMUSerif-Bold-53"/>
      </g>
     </g>
    </g>
    <g id="ytick_3">
     <g id="line2d_53">
      <path clip-path="url(#p77547dce4d)" d="M 73.8 142.286017 
L 352.8 142.286017 
" style="fill:none;stroke:#b0b0b0;stroke-linecap:square;stroke-width:0.5;"/>
     </g>
     <g id="line2d_54">
      <g>
       <use style="stroke:#000000;stroke-width:0.5;" x="73.8" xlink:href="#mc355b4858f" y="142.286017"/>
      </g>
     </g>
     <g id="line2d_55">
      <g>
       <use style="stroke:#000000;stroke-width:0.5;" x="352.8" xlink:href="#mbd121e87e1" y="142.286017"/>
      </g>
     </g>
     <g id="text_8">
      <!-- −0.20 -->
      <g transform="translate(35.0425 146.450392)scale(0.12 -0.12)">
       <use xlink:href="#CMUSerif-Bold-8722"/>
       <use x="89.399994" xlink:href="#CMUSerif-Bold-48"/>
       <use x="146.899979" xlink:href="#CMUSerif-Bold-46"/>
       <use x="178.799973" xlink:href="#CMUSerif-Bold-50"/>
       <use x="236.299957" xlink:href="#CMUSerif-Bold-48"/>
      </g>
     </g>
    </g>
    <g id="ytick_4">
     <g id="line2d_56">
      <path clip-path="url(#p77547dce4d)" d="M 73.8 115.013661 
L 352.8 115.013661 
" style="fill:none;stroke:#b0b0b0;stroke-linecap:square;stroke-width:0.5;"/>
     </g>
     <g id="line2d_57">
      <g>
       <use style="stroke:#000000;stroke-width:0.5;" x="73.8" xlink:href="#mc355b4858f" y="115.013661"/>
      </g>
     </g>
     <g id="line2d_58">
      <g>
       <use style="stroke:#000000;stroke-width:0.5;" x="352.8" xlink:href="#mbd121e87e1" y="115.013661"/>
      </g>
     </g>
     <g id="text_9">
      <!-- −0.15 -->
      <g transform="translate(35.0425 119.178036)scale(0.12 -0.12)">
       <use xlink:href="#CMUSerif-Bold-8722"/>
       <use x="89.399994" xlink:href="#CMUSerif-Bold-48"/>
       <use x="146.899979" xlink:href="#CMUSerif-Bold-46"/>
       <use x="178.799973" xlink:href="#CMUSerif-Bold-49"/>
       <use x="236.299957" xlink:href="#CMUSerif-Bold-53"/>
      </g>
     </g>
    </g>
    <g id="ytick_5">
     <g id="line2d_59">
      <path clip-path="url(#p77547dce4d)" d="M 73.8 87.741305 
L 352.8 87.741305 
" style="fill:none;stroke:#b0b0b0;stroke-linecap:square;stroke-width:0.5;"/>
     </g>
     <g id="line2d_60">
      <g>
       <use style="stroke:#000000;stroke-width:0.5;" x="73.8" xlink:href="#mc355b4858f" y="87.741305"/>
      </g>
     </g>
     <g id="line2d_61">
      <g>
       <use style="stroke:#000000;stroke-width:0.5;" x="352.8" xlink:href="#mbd121e87e1" y="87.741305"/>
      </g>
     </g>
     <g id="text_10">
      <!-- −0.10 -->
      <g transform="translate(35.0425 91.90568)scale(0.12 -0.12)">
       <use xlink:href="#CMUSerif-Bold-8722"/>
       <use x="89.399994" xlink:href="#CMUSerif-Bold-48"/>
       <use x="146.899979" xlink:href="#CMUSerif-Bold-46"/>
       <use x="178.799973" xlink:href="#CMUSerif-Bold-49"/>
       <use x="236.299957" xlink:href="#CMUSerif-Bold-48"/>
      </g>
     </g>
    </g>
    <g id="ytick_6">
     <g id="line2d_62">
      <path clip-path="url(#p77547dce4d)" d="M 73.8 60.468949 
L 352.8 60.468949 
" style="fill:none;stroke:#b0b0b0;stroke-linecap:square;stroke-width:0.5;"/>
     </g>
     <g id="line2d_63">
      <g>
       <use style="stroke:#000000;stroke-width:0.5;" x="73.8" xlink:href="#mc355b4858f" y="60.468949"/>
      </g>
     </g>
     <g id="line2d_64">
      <g>
       <use style="stroke:#000000;stroke-width:0.5;" x="352.8" xlink:href="#mbd121e87e1" y="60.468949"/>
      </g>
     </g>
     <g id="text_11">
      <!-- −0.05 -->
      <g transform="translate(35.0425 64.633324)scale(0.12 -0.12)">
       <use xlink:href="#CMUSerif-Bold-8722"/>
       <use x="89.399994" xlink:href="#CMUSerif-Bold-48"/>
       <use x="146.899979" xlink:href="#CMUSerif-Bold-46"/>
       <use x="178.799973" xlink:href="#CMUSerif-Bold-48"/>
       <use x="236.299957" xlink:href="#CMUSerif-Bold-53"/>
      </g>
     </g>
    </g>
    <g id="ytick_7">
     <g id="line2d_65">
      <path clip-path="url(#p77547dce4d)" d="M 73.8 33.196594 
L 352.8 33.196594 
" style="fill:none;stroke:#b0b0b0;stroke-linecap:square;stroke-width:0.5;"/>
     </g>
     <g id="line2d_66">
      <g>
       <use style="stroke:#000000;stroke-width:0.5;" x="73.8" xlink:href="#mc355b4858f" y="33.196594"/>
      </g>
     </g>
     <g id="line2d_67">
      <g>
       <use style="stroke:#000000;stroke-width:0.5;" x="352.8" xlink:href="#mbd121e87e1" y="33.196594"/>
      </g>
     </g>
     <g id="text_12">
      <!-- 0.00 -->
      <g transform="translate(45.77125 37.360969)scale(0.12 -0.12)">
       <use xlink:href="#CMUSerif-Bold-48"/>
       <use x="57.499985" xlink:href="#CMUSerif-Bold-46"/>
       <use x="89.399979" xlink:href="#CMUSerif-Bold-48"/>
       <use x="146.899963" xlink:href="#CMUSerif-Bold-48"/>
      </g>
     </g>
    </g>
    <g id="ytick_8">
     <g id="line2d_68">
      <defs>
       <path d="M 0 0 
L 1.5 0 
" id="mb4b0b2bf39" style="stroke:#000000;stroke-width:0.5;"/>
      </defs>
      <g>
       <use style="stroke:#000000;stroke-width:0.5;" x="73.8" xlink:href="#mb4b0b2bf39" y="213.194143"/>
      </g>
     </g>
     <g id="line2d_69">
      <defs>
       <path d="M 0 0 
L -1.5 0 
" id="mceba07aa10" style="stroke:#000000;stroke-width:0.5;"/>
      </defs>
      <g>
       <use style="stroke:#000000;stroke-width:0.5;" x="352.8" xlink:href="#mceba07aa10" y="213.194143"/>
      </g>
     </g>
    </g>
    <g id="ytick_9">
     <g id="line2d_70">
      <g>
       <use style="stroke:#000000;stroke-width:0.5;" x="73.8" xlink:href="#mb4b0b2bf39" y="207.739671"/>
      </g>
     </g>
     <g id="line2d_71">
      <g>
       <use style="stroke:#000000;stroke-width:0.5;" x="352.8" xlink:href="#mceba07aa10" y="207.739671"/>
      </g>
     </g>
    </g>
    <g id="ytick_10">
     <g id="line2d_72">
      <g>
       <use style="stroke:#000000;stroke-width:0.5;" x="73.8" xlink:href="#mb4b0b2bf39" y="202.2852"/>
      </g>
     </g>
     <g id="line2d_73">
      <g>
       <use style="stroke:#000000;stroke-width:0.5;" x="352.8" xlink:href="#mceba07aa10" y="202.2852"/>
      </g>
     </g>
    </g>
    <g id="ytick_11">
     <g id="line2d_74">
      <g>
       <use style="stroke:#000000;stroke-width:0.5;" x="73.8" xlink:href="#mb4b0b2bf39" y="191.376258"/>
      </g>
     </g>
     <g id="line2d_75">
      <g>
       <use style="stroke:#000000;stroke-width:0.5;" x="352.8" xlink:href="#mceba07aa10" y="191.376258"/>
      </g>
     </g>
    </g>
    <g id="ytick_12">
     <g id="line2d_76">
      <g>
       <use style="stroke:#000000;stroke-width:0.5;" x="73.8" xlink:href="#mb4b0b2bf39" y="185.921787"/>
      </g>
     </g>
     <g id="line2d_77">
      <g>
       <use style="stroke:#000000;stroke-width:0.5;" x="352.8" xlink:href="#mceba07aa10" y="185.921787"/>
      </g>
     </g>
    </g>
    <g id="ytick_13">
     <g id="line2d_78">
      <g>
       <use style="stroke:#000000;stroke-width:0.5;" x="73.8" xlink:href="#mb4b0b2bf39" y="180.467315"/>
      </g>
     </g>
     <g id="line2d_79">
      <g>
       <use style="stroke:#000000;stroke-width:0.5;" x="352.8" xlink:href="#mceba07aa10" y="180.467315"/>
      </g>
     </g>
    </g>
    <g id="ytick_14">
     <g id="line2d_80">
      <g>
       <use style="stroke:#000000;stroke-width:0.5;" x="73.8" xlink:href="#mb4b0b2bf39" y="175.012844"/>
      </g>
     </g>
     <g id="line2d_81">
      <g>
       <use style="stroke:#000000;stroke-width:0.5;" x="352.8" xlink:href="#mceba07aa10" y="175.012844"/>
      </g>
     </g>
    </g>
    <g id="ytick_15">
     <g id="line2d_82">
      <g>
       <use style="stroke:#000000;stroke-width:0.5;" x="73.8" xlink:href="#mb4b0b2bf39" y="164.103902"/>
      </g>
     </g>
     <g id="line2d_83">
      <g>
       <use style="stroke:#000000;stroke-width:0.5;" x="352.8" xlink:href="#mceba07aa10" y="164.103902"/>
      </g>
     </g>
    </g>
    <g id="ytick_16">
     <g id="line2d_84">
      <g>
       <use style="stroke:#000000;stroke-width:0.5;" x="73.8" xlink:href="#mb4b0b2bf39" y="158.649431"/>
      </g>
     </g>
     <g id="line2d_85">
      <g>
       <use style="stroke:#000000;stroke-width:0.5;" x="352.8" xlink:href="#mceba07aa10" y="158.649431"/>
      </g>
     </g>
    </g>
    <g id="ytick_17">
     <g id="line2d_86">
      <g>
       <use style="stroke:#000000;stroke-width:0.5;" x="73.8" xlink:href="#mb4b0b2bf39" y="153.19496"/>
      </g>
     </g>
     <g id="line2d_87">
      <g>
       <use style="stroke:#000000;stroke-width:0.5;" x="352.8" xlink:href="#mceba07aa10" y="153.19496"/>
      </g>
     </g>
    </g>
    <g id="ytick_18">
     <g id="line2d_88">
      <g>
       <use style="stroke:#000000;stroke-width:0.5;" x="73.8" xlink:href="#mb4b0b2bf39" y="147.740488"/>
      </g>
     </g>
     <g id="line2d_89">
      <g>
       <use style="stroke:#000000;stroke-width:0.5;" x="352.8" xlink:href="#mceba07aa10" y="147.740488"/>
      </g>
     </g>
    </g>
    <g id="ytick_19">
     <g id="line2d_90">
      <g>
       <use style="stroke:#000000;stroke-width:0.5;" x="73.8" xlink:href="#mb4b0b2bf39" y="136.831546"/>
      </g>
     </g>
     <g id="line2d_91">
      <g>
       <use style="stroke:#000000;stroke-width:0.5;" x="352.8" xlink:href="#mceba07aa10" y="136.831546"/>
      </g>
     </g>
    </g>
    <g id="ytick_20">
     <g id="line2d_92">
      <g>
       <use style="stroke:#000000;stroke-width:0.5;" x="73.8" xlink:href="#mb4b0b2bf39" y="131.377075"/>
      </g>
     </g>
     <g id="line2d_93">
      <g>
       <use style="stroke:#000000;stroke-width:0.5;" x="352.8" xlink:href="#mceba07aa10" y="131.377075"/>
      </g>
     </g>
    </g>
    <g id="ytick_21">
     <g id="line2d_94">
      <g>
       <use style="stroke:#000000;stroke-width:0.5;" x="73.8" xlink:href="#mb4b0b2bf39" y="125.922604"/>
      </g>
     </g>
     <g id="line2d_95">
      <g>
       <use style="stroke:#000000;stroke-width:0.5;" x="352.8" xlink:href="#mceba07aa10" y="125.922604"/>
      </g>
     </g>
    </g>
    <g id="ytick_22">
     <g id="line2d_96">
      <g>
       <use style="stroke:#000000;stroke-width:0.5;" x="73.8" xlink:href="#mb4b0b2bf39" y="120.468132"/>
      </g>
     </g>
     <g id="line2d_97">
      <g>
       <use style="stroke:#000000;stroke-width:0.5;" x="352.8" xlink:href="#mceba07aa10" y="120.468132"/>
      </g>
     </g>
    </g>
    <g id="ytick_23">
     <g id="line2d_98">
      <g>
       <use style="stroke:#000000;stroke-width:0.5;" x="73.8" xlink:href="#mb4b0b2bf39" y="109.55919"/>
      </g>
     </g>
     <g id="line2d_99">
      <g>
       <use style="stroke:#000000;stroke-width:0.5;" x="352.8" xlink:href="#mceba07aa10" y="109.55919"/>
      </g>
     </g>
    </g>
    <g id="ytick_24">
     <g id="line2d_100">
      <g>
       <use style="stroke:#000000;stroke-width:0.5;" x="73.8" xlink:href="#mb4b0b2bf39" y="104.104719"/>
      </g>
     </g>
     <g id="line2d_101">
      <g>
       <use style="stroke:#000000;stroke-width:0.5;" x="352.8" xlink:href="#mceba07aa10" y="104.104719"/>
      </g>
     </g>
    </g>
    <g id="ytick_25">
     <g id="line2d_102">
      <g>
       <use style="stroke:#000000;stroke-width:0.5;" x="73.8" xlink:href="#mb4b0b2bf39" y="98.650248"/>
      </g>
     </g>
     <g id="line2d_103">
      <g>
       <use style="stroke:#000000;stroke-width:0.5;" x="352.8" xlink:href="#mceba07aa10" y="98.650248"/>
      </g>
     </g>
    </g>
    <g id="ytick_26">
     <g id="line2d_104">
      <g>
       <use style="stroke:#000000;stroke-width:0.5;" x="73.8" xlink:href="#mb4b0b2bf39" y="93.195777"/>
      </g>
     </g>
     <g id="line2d_105">
      <g>
       <use style="stroke:#000000;stroke-width:0.5;" x="352.8" xlink:href="#mceba07aa10" y="93.195777"/>
      </g>
     </g>
    </g>
    <g id="ytick_27">
     <g id="line2d_106">
      <g>
       <use style="stroke:#000000;stroke-width:0.5;" x="73.8" xlink:href="#mb4b0b2bf39" y="82.286834"/>
      </g>
     </g>
     <g id="line2d_107">
      <g>
       <use style="stroke:#000000;stroke-width:0.5;" x="352.8" xlink:href="#mceba07aa10" y="82.286834"/>
      </g>
     </g>
    </g>
    <g id="ytick_28">
     <g id="line2d_108">
      <g>
       <use style="stroke:#000000;stroke-width:0.5;" x="73.8" xlink:href="#mb4b0b2bf39" y="76.832363"/>
      </g>
     </g>
     <g id="line2d_109">
      <g>
       <use style="stroke:#000000;stroke-width:0.5;" x="352.8" xlink:href="#mceba07aa10" y="76.832363"/>
      </g>
     </g>
    </g>
    <g id="ytick_29">
     <g id="line2d_110">
      <g>
       <use style="stroke:#000000;stroke-width:0.5;" x="73.8" xlink:href="#mb4b0b2bf39" y="71.377892"/>
      </g>
     </g>
     <g id="line2d_111">
      <g>
       <use style="stroke:#000000;stroke-width:0.5;" x="352.8" xlink:href="#mceba07aa10" y="71.377892"/>
      </g>
     </g>
    </g>
    <g id="ytick_30">
     <g id="line2d_112">
      <g>
       <use style="stroke:#000000;stroke-width:0.5;" x="73.8" xlink:href="#mb4b0b2bf39" y="65.923421"/>
      </g>
     </g>
     <g id="line2d_113">
      <g>
       <use style="stroke:#000000;stroke-width:0.5;" x="352.8" xlink:href="#mceba07aa10" y="65.923421"/>
      </g>
     </g>
    </g>
    <g id="ytick_31">
     <g id="line2d_114">
      <g>
       <use style="stroke:#000000;stroke-width:0.5;" x="73.8" xlink:href="#mb4b0b2bf39" y="55.014478"/>
      </g>
     </g>
     <g id="line2d_115">
      <g>
       <use style="stroke:#000000;stroke-width:0.5;" x="352.8" xlink:href="#mceba07aa10" y="55.014478"/>
      </g>
     </g>
    </g>
    <g id="ytick_32">
     <g id="line2d_116">
      <g>
       <use style="stroke:#000000;stroke-width:0.5;" x="73.8" xlink:href="#mb4b0b2bf39" y="49.560007"/>
      </g>
     </g>
     <g id="line2d_117">
      <g>
       <use style="stroke:#000000;stroke-width:0.5;" x="352.8" xlink:href="#mceba07aa10" y="49.560007"/>
      </g>
     </g>
    </g>
    <g id="ytick_33">
     <g id="line2d_118">
      <g>
       <use style="stroke:#000000;stroke-width:0.5;" x="73.8" xlink:href="#mb4b0b2bf39" y="44.105536"/>
      </g>
     </g>
     <g id="line2d_119">
      <g>
       <use style="stroke:#000000;stroke-width:0.5;" x="352.8" xlink:href="#mceba07aa10" y="44.105536"/>
      </g>
     </g>
    </g>
    <g id="ytick_34">
     <g id="line2d_120">
      <g>
       <use style="stroke:#000000;stroke-width:0.5;" x="73.8" xlink:href="#mb4b0b2bf39" y="38.651065"/>
      </g>
     </g>
     <g id="line2d_121">
      <g>
       <use style="stroke:#000000;stroke-width:0.5;" x="352.8" xlink:href="#mceba07aa10" y="38.651065"/>
      </g>
     </g>
    </g>
    <g id="ytick_35">
     <g id="line2d_122">
      <g>
       <use style="stroke:#000000;stroke-width:0.5;" x="73.8" xlink:href="#mb4b0b2bf39" y="27.742122"/>
      </g>
     </g>
     <g id="line2d_123">
      <g>
       <use style="stroke:#000000;stroke-width:0.5;" x="352.8" xlink:href="#mceba07aa10" y="27.742122"/>
      </g>
     </g>
    </g>
    <g id="ytick_36">
     <g id="line2d_124">
      <g>
       <use style="stroke:#000000;stroke-width:0.5;" x="73.8" xlink:href="#mb4b0b2bf39" y="22.287651"/>
      </g>
     </g>
     <g id="line2d_125">
      <g>
       <use style="stroke:#000000;stroke-width:0.5;" x="352.8" xlink:href="#mceba07aa10" y="22.287651"/>
      </g>
     </g>
    </g>
    <g id="text_13">
     <!-- $\mathrm{E} - \mathrm{E}_F$ [eV] -->
     <defs>
      <path d="M 5.515625 0 
L 5.515625 5.171875 
L 14.796875 5.171875 
L 14.796875 67.671875 
L 5.515625 67.671875 
L 5.515625 72.90625 
L 64.203125 72.90625 
L 64.203125 56.6875 
L 58.203125 56.6875 
L 58.203125 66.890625 
L 24.703125 66.890625 
L 24.703125 42.484375 
L 48.578125 42.484375 
L 48.578125 51.609375 
L 54.59375 51.609375 
L 54.59375 27.390625 
L 48.578125 27.390625 
L 48.578125 36.53125 
L 24.703125 36.53125 
L 24.703125 6 
L 58.984375 6 
L 58.984375 16.21875 
L 64.984375 16.21875 
L 64.984375 0 
z
" id="DejaVuSerif-69"/>
      <path d="M 3.203125 22.5 
Q 3.203125 32.296875 9.75 38.796875 
Q 16.296875 45.296875 27.90625 45.296875 
Q 38.203125 45.296875 43.796875 39.90625 
Q 49.40625 34.296875 49.40625 24.5 
Q 49.40625 22.59375 48.75 22.1875 
Q 48.09375 21.796875 46.203125 21.796875 
L 16 21.796875 
Q 16 3.40625 30.203125 3.40625 
Q 35.09375 3.40625 39 5.59375 
Q 42.90625 7.796875 44.5 11.40625 
Q 45 12.703125 45.390625 13.09375 
Q 45.796875 13.5 47 13.5 
Q 49.40625 13.5 49.40625 11.703125 
Q 49.40625 11 48.84375 9.75 
Q 48.296875 8.5 46.84375 6.640625 
Q 45.40625 4.796875 43.25 3.1875 
Q 41.09375 1.59375 37.4375 0.5 
Q 33.796875 -0.59375 29.296875 -0.59375 
Q 17.40625 -0.59375 10.296875 5.84375 
Q 3.203125 12.296875 3.203125 22.5 
z
M 16 25.09375 
L 39.90625 25.09375 
Q 39.40625 41.703125 27.90625 41.703125 
Q 21.796875 41.703125 18.40625 36.5 
Q 16.40625 33.40625 16 25.09375 
z
" id="CMUSerif-Bold-101"/>
      <path d="M 2.59375 63.90625 
L 2.59375 68.59375 
Q 6.09375 68.296875 18.40625 68.296875 
Q 32.296875 68.296875 36.09375 68.59375 
L 36.09375 63.90625 
L 26.703125 63.90625 
L 48 16 
L 68.203125 61.5 
Q 68.203125 61.59375 68.34375 61.84375 
Q 68.5 62.09375 68.546875 62.296875 
Q 68.59375 62.5 68.59375 62.703125 
Q 68.59375 63.90625 59.796875 63.90625 
L 59.796875 68.59375 
Q 63.703125 68.296875 72.90625 68.296875 
Q 74.09375 68.296875 76 68.34375 
Q 77.90625 68.40625 80.40625 68.5 
Q 82.90625 68.59375 84.203125 68.59375 
L 84.203125 63.90625 
L 82.296875 63.90625 
Q 78.796875 63.90625 77 63.59375 
Q 75.203125 63.296875 74.796875 62.890625 
Q 74.40625 62.5 74 61.703125 
L 47.40625 1.59375 
Q 46.703125 0 45.796875 -0.390625 
Q 44.90625 -0.796875 43.40625 -0.796875 
Q 41.5 -0.796875 40.796875 -0.25 
Q 40.09375 0.296875 39.40625 1.796875 
L 11.796875 63.90625 
z
" id="CMUSerif-Bold-86"/>
     </defs>
     <g transform="translate(28.0425 151.5)rotate(-90)scale(0.12 -0.12)">
      <use xlink:href="#DejaVuSerif-69"/>
      <use transform="translate(91.962891 0)" xlink:href="#DejaVuSerif-8722"/>
      <use transform="translate(194.716797 0)" xlink:href="#DejaVuSerif-69"/>
      <use transform="translate(268.623203 -15.571875)scale(0.7)" xlink:href="#DejaVuSerif-Italic-70"/>
      <use transform="translate(319.787852 0)" xlink:href="#CMUSerif-Bold-32"/>
      <use transform="translate(358.087839 0)" xlink:href="#CMUSerif-Bold-91"/>
      <use transform="translate(389.987833 0)" xlink:href="#CMUSerif-Bold-101"/>
      <use transform="translate(442.68783 0)" xlink:href="#CMUSerif-Bold-86"/>
      <use transform="translate(529.587824 0)" xlink:href="#CMUSerif-Bold-93"/>
     </g>
    </g>
   </g>
   <g id="line2d_126">
    <defs>
     <path d="M 0 3 
C 0.795609 3 1.55874 2.683901 2.12132 2.12132 
C 2.683901 1.55874 3 0.795609 3 0 
C 3 -0.795609 2.683901 -1.55874 2.12132 -2.12132 
C 1.55874 -2.683901 0.795609 -3 0 -3 
C -0.795609 -3 -1.55874 -2.683901 -2.12132 -2.12132 
C -2.683901 -1.55874 -3 -0.795609 -3 0 
C -3 0.795609 -2.683901 1.55874 -2.12132 2.12132 
C -1.55874 2.683901 -0.795609 3 0 3 
z
" id="m14d1551999" style="stroke:#0000ff;stroke-width:1.5;"/>
    </defs>
    <g clip-path="url(#p77547dce4d)">
     <use style="fill-opacity:0;stroke:#0000ff;stroke-width:1.5;" x="340.118182" xlink:href="#m14d1551999" y="200.010686"/>
     <use style="fill-opacity:0;stroke:#0000ff;stroke-width:1.5;" x="333.905204" xlink:href="#m14d1551999" y="200.010686"/>
     <use style="fill-opacity:0;stroke:#0000ff;stroke-width:1.5;" x="327.6862" xlink:href="#m14d1551999" y="200.010686"/>
     <use style="fill-opacity:0;stroke:#0000ff;stroke-width:1.5;" x="321.400884" xlink:href="#m14d1551999" y="201.10158"/>
     <use style="fill-opacity:0;stroke:#0000ff;stroke-width:1.5;" x="315.350223" xlink:href="#m14d1551999" y="197.828897"/>
     <use style="fill-opacity:0;stroke:#0000ff;stroke-width:1.5;" x="309.202166" xlink:href="#m14d1551999" y="196.192556"/>
     <use style="fill-opacity:0;stroke:#0000ff;stroke-width:1.5;" x="303.106546" xlink:href="#m14d1551999" y="193.46532"/>
     <use style="fill-opacity:0;stroke:#0000ff;stroke-width:1.5;" x="296.973911" xlink:href="#m14d1551999" y="191.283532"/>
     <use style="fill-opacity:0;stroke:#0000ff;stroke-width:1.5;" x="290.687482" xlink:href="#m14d1551999" y="191.828979"/>
     <use style="fill-opacity:0;stroke:#0000ff;stroke-width:1.5;" x="284.541399" xlink:href="#m14d1551999" y="189.64719"/>
     <use style="fill-opacity:0;stroke:#0000ff;stroke-width:1.5;" x="278.446212" xlink:href="#m14d1551999" y="186.374508"/>
     <use style="fill-opacity:0;stroke:#0000ff;stroke-width:1.5;" x="272.256811" xlink:href="#m14d1551999" y="184.738166"/>
     <use style="fill-opacity:0;stroke:#0000ff;stroke-width:1.5;" x="266.14669" xlink:href="#m14d1551999" y="181.465484"/>
     <use style="fill-opacity:0;stroke:#0000ff;stroke-width:1.5;" x="259.943422" xlink:href="#m14d1551999" y="179.829142"/>
     <use style="fill-opacity:0;stroke:#0000ff;stroke-width:1.5;" x="253.790167" xlink:href="#m14d1551999" y="177.101907"/>
     <use style="fill-opacity:0;stroke:#0000ff;stroke-width:1.5;" x="247.770399" xlink:href="#m14d1551999" y="171.647436"/>
     <use style="fill-opacity:0;stroke:#0000ff;stroke-width:1.5;" x="241.601779" xlink:href="#m14d1551999" y="168.9202"/>
     <use style="fill-opacity:0;stroke:#0000ff;stroke-width:1.5;" x="235.537194" xlink:href="#m14d1551999" y="164.011176"/>
     <use style="fill-opacity:0;stroke:#0000ff;stroke-width:1.5;" x="229.298214" xlink:href="#m14d1551999" y="162.374835"/>
     <use style="fill-opacity:0;stroke:#0000ff;stroke-width:1.5;" x="223.135179" xlink:href="#m14d1551999" y="159.102152"/>
     <use style="fill-opacity:0;stroke:#0000ff;stroke-width:1.5;" x="216.991988" xlink:href="#m14d1551999" y="155.284022"/>
     <use style="fill-opacity:0;stroke:#0000ff;stroke-width:1.5;" x="210.949554" xlink:href="#m14d1551999" y="149.284104"/>
     <use style="fill-opacity:0;stroke:#0000ff;stroke-width:1.5;" x="204.790172" xlink:href="#m14d1551999" y="145.465974"/>
     <use style="fill-opacity:0;stroke:#0000ff;stroke-width:1.5;" x="198.730231" xlink:href="#m14d1551999" y="139.466056"/>
     <use style="fill-opacity:0;stroke:#0000ff;stroke-width:1.5;" x="192.554777" xlink:href="#m14d1551999" y="135.647926"/>
     <use style="fill-opacity:0;stroke:#0000ff;stroke-width:1.5;" x="189.836253" xlink:href="#m14d1551999" y="134.011584"/>
     <use style="fill-opacity:0;stroke:#0000ff;stroke-width:1.5;" x="188.832314" xlink:href="#m14d1551999" y="132.35888"/>
     <use style="fill-opacity:0;stroke:#0000ff;stroke-width:1.5;" x="186.894292" xlink:href="#m14d1551999" y="130.706175"/>
     <use style="fill-opacity:0;stroke:#0000ff;stroke-width:1.5;" x="184.820503" xlink:href="#m14d1551999" y="129.05347"/>
     <use style="fill-opacity:0;stroke:#0000ff;stroke-width:1.5;" x="183.613692" xlink:href="#m14d1551999" y="127.400765"/>
     <use style="fill-opacity:0;stroke:#0000ff;stroke-width:1.5;" x="181.244355" xlink:href="#m14d1551999" y="125.748061"/>
     <use style="fill-opacity:0;stroke:#0000ff;stroke-width:1.5;" x="178.79507" xlink:href="#m14d1551999" y="124.095356"/>
     <use style="fill-opacity:0;stroke:#0000ff;stroke-width:1.5;" x="177.919226" xlink:href="#m14d1551999" y="122.442651"/>
     <use style="fill-opacity:0;stroke:#0000ff;stroke-width:1.5;" x="176.707281" xlink:href="#m14d1551999" y="120.789946"/>
     <use style="fill-opacity:0;stroke:#0000ff;stroke-width:1.5;" x="175.303941" xlink:href="#m14d1551999" y="119.137241"/>
     <use style="fill-opacity:0;stroke:#0000ff;stroke-width:1.5;" x="174.150369" xlink:href="#m14d1551999" y="117.484537"/>
     <use style="fill-opacity:0;stroke:#0000ff;stroke-width:1.5;" x="170.980637" xlink:href="#m14d1551999" y="115.831832"/>
     <use style="fill-opacity:0;stroke:#0000ff;stroke-width:1.5;" x="169.418964" xlink:href="#m14d1551999" y="114.179127"/>
     <use style="fill-opacity:0;stroke:#0000ff;stroke-width:1.5;" x="168.410239" xlink:href="#m14d1551999" y="112.526422"/>
     <use style="fill-opacity:0;stroke:#0000ff;stroke-width:1.5;" x="166.530201" xlink:href="#m14d1551999" y="110.873718"/>
     <use style="fill-opacity:0;stroke:#0000ff;stroke-width:1.5;" x="164.93342" xlink:href="#m14d1551999" y="109.221013"/>
     <use style="fill-opacity:0;stroke:#0000ff;stroke-width:1.5;" x="163.689827" xlink:href="#m14d1551999" y="107.568308"/>
     <use style="fill-opacity:0;stroke:#0000ff;stroke-width:1.5;" x="162.162585" xlink:href="#m14d1551999" y="105.915603"/>
     <use style="fill-opacity:0;stroke:#0000ff;stroke-width:1.5;" x="160.346058" xlink:href="#m14d1551999" y="104.262899"/>
     <use style="fill-opacity:0;stroke:#0000ff;stroke-width:1.5;" x="158.105881" xlink:href="#m14d1551999" y="102.610194"/>
     <use style="fill-opacity:0;stroke:#0000ff;stroke-width:1.5;" x="157.256081" xlink:href="#m14d1551999" y="100.957489"/>
     <use style="fill-opacity:0;stroke:#0000ff;stroke-width:1.5;" x="155.647799" xlink:href="#m14d1551999" y="99.304784"/>
     <use style="fill-opacity:0;stroke:#0000ff;stroke-width:1.5;" x="153.975481" xlink:href="#m14d1551999" y="97.65208"/>
     <use style="fill-opacity:0;stroke:#0000ff;stroke-width:1.5;" x="153.741608" xlink:href="#m14d1551999" y="95.999375"/>
     <use style="fill-opacity:0;stroke:#0000ff;stroke-width:1.5;" x="151.105946" xlink:href="#m14d1551999" y="94.34667"/>
     <use style="fill-opacity:0;stroke:#0000ff;stroke-width:1.5;" x="149.849952" xlink:href="#m14d1551999" y="92.693965"/>
     <use style="fill-opacity:0;stroke:#0000ff;stroke-width:1.5;" x="148.122602" xlink:href="#m14d1551999" y="91.04126"/>
     <use style="fill-opacity:0;stroke:#0000ff;stroke-width:1.5;" x="146.525498" xlink:href="#m14d1551999" y="89.388556"/>
     <use style="fill-opacity:0;stroke:#0000ff;stroke-width:1.5;" x="146.447102" xlink:href="#m14d1551999" y="87.735851"/>
     <use style="fill-opacity:0;stroke:#0000ff;stroke-width:1.5;" x="143.818502" xlink:href="#m14d1551999" y="86.083146"/>
     <use style="fill-opacity:0;stroke:#0000ff;stroke-width:1.5;" x="141.922642" xlink:href="#m14d1551999" y="84.430441"/>
     <use style="fill-opacity:0;stroke:#0000ff;stroke-width:1.5;" x="141.451532" xlink:href="#m14d1551999" y="82.777737"/>
     <use style="fill-opacity:0;stroke:#0000ff;stroke-width:1.5;" x="140.918203" xlink:href="#m14d1551999" y="81.125032"/>
     <use style="fill-opacity:0;stroke:#0000ff;stroke-width:1.5;" x="138.999172" xlink:href="#m14d1551999" y="79.472327"/>
     <use style="fill-opacity:0;stroke:#0000ff;stroke-width:1.5;" x="138.289821" xlink:href="#m14d1551999" y="77.819622"/>
     <use style="fill-opacity:0;stroke:#0000ff;stroke-width:1.5;" x="137.38844" xlink:href="#m14d1551999" y="76.166918"/>
     <use style="fill-opacity:0;stroke:#0000ff;stroke-width:1.5;" x="136.317607" xlink:href="#m14d1551999" y="74.514213"/>
     <use style="fill-opacity:0;stroke:#0000ff;stroke-width:1.5;" x="135.205973" xlink:href="#m14d1551999" y="72.861508"/>
     <use style="fill-opacity:0;stroke:#0000ff;stroke-width:1.5;" x="133.305894" xlink:href="#m14d1551999" y="71.208803"/>
     <use style="fill-opacity:0;stroke:#0000ff;stroke-width:1.5;" x="131.657777" xlink:href="#m14d1551999" y="69.556098"/>
     <use style="fill-opacity:0;stroke:#0000ff;stroke-width:1.5;" x="130.718564" xlink:href="#m14d1551999" y="67.903394"/>
     <use style="fill-opacity:0;stroke:#0000ff;stroke-width:1.5;" x="130.231406" xlink:href="#m14d1551999" y="66.250689"/>
     <use style="fill-opacity:0;stroke:#0000ff;stroke-width:1.5;" x="128.412002" xlink:href="#m14d1551999" y="64.597984"/>
     <use style="fill-opacity:0;stroke:#0000ff;stroke-width:1.5;" x="126.893765" xlink:href="#m14d1551999" y="62.945279"/>
     <use style="fill-opacity:0;stroke:#0000ff;stroke-width:1.5;" x="124.752712" xlink:href="#m14d1551999" y="61.292575"/>
     <use style="fill-opacity:0;stroke:#0000ff;stroke-width:1.5;" x="121.904144" xlink:href="#m14d1551999" y="59.63987"/>
     <use style="fill-opacity:0;stroke:#0000ff;stroke-width:1.5;" x="121.846139" xlink:href="#m14d1551999" y="57.987165"/>
     <use style="fill-opacity:0;stroke:#0000ff;stroke-width:1.5;" x="119.999061" xlink:href="#m14d1551999" y="56.33446"/>
     <use style="fill-opacity:0;stroke:#0000ff;stroke-width:1.5;" x="118.1933" xlink:href="#m14d1551999" y="54.681756"/>
     <use style="fill-opacity:0;stroke:#0000ff;stroke-width:1.5;" x="116.110622" xlink:href="#m14d1551999" y="53.029051"/>
     <use style="fill-opacity:0;stroke:#0000ff;stroke-width:1.5;" x="113.936937" xlink:href="#m14d1551999" y="51.376346"/>
     <use style="fill-opacity:0;stroke:#0000ff;stroke-width:1.5;" x="112.37153" xlink:href="#m14d1551999" y="49.723641"/>
     <use style="fill-opacity:0;stroke:#0000ff;stroke-width:1.5;" x="110.638092" xlink:href="#m14d1551999" y="48.070936"/>
     <use style="fill-opacity:0;stroke:#0000ff;stroke-width:1.5;" x="108.341486" xlink:href="#m14d1551999" y="46.418232"/>
     <use style="fill-opacity:0;stroke:#0000ff;stroke-width:1.5;" x="105.926844" xlink:href="#m14d1551999" y="44.765527"/>
     <use style="fill-opacity:0;stroke:#0000ff;stroke-width:1.5;" x="105.310786" xlink:href="#m14d1551999" y="43.112822"/>
     <use style="fill-opacity:0;stroke:#0000ff;stroke-width:1.5;" x="101.097696" xlink:href="#m14d1551999" y="41.460117"/>
     <use style="fill-opacity:0;stroke:#0000ff;stroke-width:1.5;" x="99.534866" xlink:href="#m14d1551999" y="39.807413"/>
     <use style="fill-opacity:0;stroke:#0000ff;stroke-width:1.5;" x="97.085315" xlink:href="#m14d1551999" y="38.154708"/>
     <use style="fill-opacity:0;stroke:#0000ff;stroke-width:1.5;" x="93.085446" xlink:href="#m14d1551999" y="36.502003"/>
     <use style="fill-opacity:0;stroke:#0000ff;stroke-width:1.5;" x="88.080529" xlink:href="#m14d1551999" y="34.849298"/>
     <use style="fill-opacity:0;stroke:#0000ff;stroke-width:1.5;" x="86.481818" xlink:href="#m14d1551999" y="33.196594"/>
    </g>
   </g>
   <g id="line2d_127">
    <path clip-path="url(#p77547dce4d)" d="M 340.118182 205.98 
L 333.905204 204.870292 
L 327.6862 203.597997 
L 321.400884 202.147951 
L 315.350223 200.596115 
L 309.202166 198.862626 
L 303.106546 196.988013 
L 296.973911 194.945357 
L 290.687482 192.688383 
L 284.541399 190.322172 
L 278.446212 187.819688 
L 272.256811 185.119685 
L 266.14669 182.297273 
L 259.943422 179.272269 
L 253.790167 176.112818 
L 247.770399 172.868827 
L 241.601779 169.387558 
L 235.537194 165.810017 
L 229.298214 161.969243 
L 223.135179 158.015549 
L 216.991988 153.916657 
L 210.949554 149.731175 
L 204.790172 145.307684 
L 198.730231 140.80092 
L 192.554777 136.050406 
L 189.836253 133.908651 
L 188.832314 133.109903 
L 186.894292 131.556076 
L 184.820503 129.876015 
L 183.613692 128.890059 
L 181.244355 126.936626 
L 178.79507 124.892623 
L 177.919226 124.155621 
L 176.707281 123.130512 
L 175.303941 121.935846 
L 174.150369 120.947648 
L 170.980637 118.203691 
L 169.418964 116.836356 
L 168.410239 115.947742 
L 166.530201 114.280218 
L 164.93342 112.852336 
L 163.689827 111.732904 
L 162.162585 110.349302 
L 160.346058 108.690936 
L 158.105881 106.626819 
L 157.256081 105.838322 
L 155.647799 104.337799 
L 153.975481 102.766069 
L 153.741608 102.545333 
L 151.105946 100.041909 
L 149.849952 98.838721 
L 148.122602 97.173229 
L 146.525498 95.622226 
L 146.447102 95.545819 
L 143.818502 92.96903 
L 141.922642 91.09262 
L 141.451532 90.624014 
L 140.918203 90.092399 
L 138.999172 88.16971 
L 138.289821 87.455111 
L 137.38844 86.544029 
L 136.317607 85.457259 
L 135.205973 84.324013 
L 133.305894 82.375038 
L 131.657777 80.672294 
L 130.718564 79.696873 
L 130.231406 79.189484 
L 128.412002 77.285753 
L 126.893765 75.686562 
L 124.752712 73.414979 
L 121.904144 70.363054 
L 121.846139 70.300556 
L 119.999061 68.303052 
L 118.1933 66.336449 
L 116.110622 64.051347 
L 113.936937 61.647063 
L 112.37153 59.903361 
L 110.638092 57.960544 
L 108.341486 55.3672 
L 105.926844 52.616804 
L 105.310786 51.911183 
L 101.097696 47.04309 
L 99.534866 45.218432 
L 97.085315 42.337964 
L 93.085446 37.580563 
L 88.080529 31.533618 
L 86.481818 29.58 
" style="fill:none;stroke:#ff0000;stroke-dasharray:3.7,1.6;stroke-dashoffset:0;"/>
   </g>
   <g id="patch_3">
    <path d="M 73.8 214.8 
L 73.8 20.76 
" style="fill:none;stroke:#000000;stroke-linecap:square;stroke-linejoin:miter;stroke-width:0.5;"/>
   </g>
   <g id="patch_4">
    <path d="M 352.8 214.8 
L 352.8 20.76 
" style="fill:none;stroke:#000000;stroke-linecap:square;stroke-linejoin:miter;stroke-width:0.5;"/>
   </g>
   <g id="patch_5">
    <path d="M 73.8 214.8 
L 352.8 214.8 
" style="fill:none;stroke:#000000;stroke-linecap:square;stroke-linejoin:miter;stroke-width:0.5;"/>
   </g>
   <g id="patch_6">
    <path d="M 73.8 20.76 
L 352.8 20.76 
" style="fill:none;stroke:#000000;stroke-linecap:square;stroke-linejoin:miter;stroke-width:0.5;"/>
   </g>
   <g id="text_14">
    <!-- Momentum-energy curve with fit, $\mathrm{E}_F = 0.83$ [meV], $\mathrm{k}_F = 0.6926$ [$\mathrm{\AA}^{-1}$] -->
    <defs>
     <path d="M 4 0 
L 4 4.703125 
L 6.5 4.703125 
Q 9.5 4.703125 11.90625 5 
Q 14 5.203125 14.390625 5.546875 
Q 14.796875 5.90625 14.796875 7.59375 
L 14.796875 63.90625 
L 4 63.90625 
L 4 68.59375 
L 26.203125 68.59375 
Q 27.5 68.59375 28.09375 68.5 
Q 28.703125 68.40625 29.390625 67.84375 
Q 30.09375 67.296875 30.59375 66.09375 
L 54.59375 13.203125 
L 78.59375 66.09375 
Q 79.40625 67.796875 80.25 68.1875 
Q 81.09375 68.59375 83 68.59375 
L 105.09375 68.59375 
L 105.09375 63.90625 
L 94.296875 63.90625 
L 94.296875 4.703125 
L 105.09375 4.703125 
L 105.09375 0 
Q 101.5 0.296875 88 0.296875 
Q 74.59375 0.296875 71 0 
L 71 4.703125 
L 81.796875 4.703125 
L 81.796875 63.90625 
L 81.703125 63.90625 
L 53.796875 2.40625 
Q 52.703125 0 50.59375 0 
Q 48.5 0 47.40625 2.5 
L 20.203125 62.59375 
L 20.09375 62.59375 
L 20.09375 7.59375 
Q 20.09375 5.90625 20.5 5.546875 
Q 20.90625 5.203125 23.09375 5 
Q 25.796875 4.703125 28.40625 4.703125 
L 30.90625 4.703125 
L 30.90625 0 
Q 26.796875 0.296875 17.40625 0.296875 
Q 7.796875 0.296875 4 0 
z
" id="CMUSerif-Bold-77"/>
     <path d="M 3.203125 21.796875 
Q 3.203125 32.09375 9.953125 38.6875 
Q 16.703125 45.296875 28.703125 45.296875 
Q 40.59375 45.296875 47.390625 38.6875 
Q 54.203125 32.09375 54.203125 21.796875 
Q 54.203125 12.09375 47.5 5.75 
Q 40.796875 -0.59375 28.6875 -0.59375 
Q 16.59375 -0.59375 9.890625 5.75 
Q 3.203125 12.09375 3.203125 21.796875 
z
M 16 22.90625 
Q 16 19.90625 16.046875 18.34375 
Q 16.09375 16.796875 16.4375 14.046875 
Q 16.796875 11.296875 17.59375 9.796875 
Q 18.40625 8.296875 19.75 6.59375 
Q 21.09375 4.90625 23.34375 4.15625 
Q 25.59375 3.40625 28.6875 3.40625 
Q 31.796875 3.40625 34.046875 4.15625 
Q 36.296875 4.90625 37.640625 6.59375 
Q 39 8.296875 39.796875 9.796875 
Q 40.59375 11.296875 40.9375 14.046875 
Q 41.296875 16.796875 41.34375 18.34375 
Q 41.40625 19.90625 41.40625 22.90625 
Q 41.40625 33.203125 39.296875 36.59375 
Q 36.09375 41.703125 28.703125 41.703125 
Q 20.703125 41.703125 17.703125 35.90625 
Q 16 32.5 16 22.90625 
z
" id="CMUSerif-Bold-111"/>
     <path d="M 4.5 0 
L 4.5 4.703125 
L 11.40625 4.703125 
L 11.40625 35.59375 
Q 11.40625 38.40625 10.34375 38.953125 
Q 9.296875 39.5 4.5 39.5 
L 4.5 44.203125 
L 21.703125 45 
L 21.703125 34.203125 
Q 27.203125 45 39.296875 45 
Q 52.203125 45 54.296875 35.40625 
Q 59.703125 45 71.203125 45 
Q 79.09375 45 82.84375 41.59375 
Q 86.59375 38.203125 86.59375 30.59375 
L 86.59375 4.703125 
L 93.5 4.703125 
L 93.5 0 
Q 85.09375 0.296875 80.890625 0.296875 
Q 76.703125 0.296875 68.296875 0 
L 68.296875 4.703125 
L 75.203125 4.703125 
L 75.203125 31.703125 
Q 75.203125 37.203125 73.796875 39.296875 
Q 72.40625 41.40625 69.59375 41.40625 
Q 64.203125 41.40625 59.453125 37.25 
Q 54.703125 33.09375 54.703125 25.59375 
L 54.703125 4.703125 
L 61.59375 4.703125 
L 61.59375 0 
Q 53.203125 0.296875 49 0.296875 
Q 44.796875 0.296875 36.40625 0 
L 36.40625 4.703125 
L 43.296875 4.703125 
L 43.296875 31.703125 
Q 43.296875 37.203125 41.890625 39.296875 
Q 40.5 41.40625 37.703125 41.40625 
Q 32.296875 41.40625 27.546875 37.25 
Q 22.796875 33.09375 22.796875 25.59375 
L 22.796875 4.703125 
L 29.703125 4.703125 
L 29.703125 0 
Q 21.296875 0.296875 17.09375 0.296875 
Q 12.90625 0.296875 4.5 0 
z
" id="CMUSerif-Bold-109"/>
     <path d="M 4.5 0 
L 4.5 4.703125 
L 11.40625 4.703125 
L 11.40625 35.59375 
Q 11.40625 38.40625 10.34375 38.953125 
Q 9.296875 39.5 4.5 39.5 
L 4.5 44.203125 
L 21.703125 45 
L 21.703125 34.203125 
Q 27.203125 45 39.203125 45 
Q 46.90625 45 50.75 41.640625 
Q 54.59375 38.296875 54.59375 30.59375 
L 54.59375 4.703125 
L 61.5 4.703125 
L 61.5 0 
Q 53.09375 0.296875 48.890625 0.296875 
Q 44.703125 0.296875 36.296875 0 
L 36.296875 4.703125 
L 43.203125 4.703125 
L 43.203125 31.703125 
Q 43.203125 37.09375 41.796875 39.25 
Q 40.40625 41.40625 37.703125 41.40625 
Q 32.203125 41.40625 27.5 37.25 
Q 22.796875 33.09375 22.796875 25.59375 
L 22.796875 4.703125 
L 29.703125 4.703125 
L 29.703125 0 
Q 21.296875 0.296875 17.09375 0.296875 
Q 12.90625 0.296875 4.5 0 
z
" id="CMUSerif-Bold-110"/>
     <path d="M 2.09375 39.703125 
L 2.09375 43.296875 
Q 9.09375 43.5 13 49.453125 
Q 16.90625 55.40625 17 63.5 
L 21.703125 63.5 
L 21.703125 44.40625 
L 36.296875 44.40625 
L 36.296875 39.703125 
L 21.703125 39.703125 
L 21.703125 12.09375 
Q 21.703125 3.40625 27.5 3.40625 
Q 29.90625 3.40625 31.703125 5.65625 
Q 33.5 7.90625 33.5 12.59375 
L 33.5 17.703125 
L 38.203125 17.703125 
L 38.203125 12.40625 
Q 38.203125 6.796875 34.953125 3.09375 
Q 31.703125 -0.59375 26.09375 -0.59375 
Q 10.296875 -0.59375 10.296875 12.296875 
L 10.296875 39.703125 
z
" id="CMUSerif-Bold-116"/>
     <path d="M 4.5 39.5 
L 4.5 44.203125 
L 22.796875 45 
L 22.796875 10.90625 
Q 22.796875 6.296875 24.09375 4.640625 
Q 25.40625 3 30.796875 3 
Q 36.296875 3 39.75 6.703125 
Q 43.203125 10.40625 43.203125 16.5 
L 43.203125 35.59375 
Q 43.203125 38.40625 42.140625 38.953125 
Q 41.09375 39.5 36.296875 39.5 
L 36.296875 44.203125 
L 54.59375 45 
L 54.59375 8.59375 
Q 54.59375 5.796875 55.640625 5.25 
Q 56.703125 4.703125 61.5 4.703125 
L 61.5 0 
L 43.796875 -0.59375 
L 43.796875 7.203125 
Q 39.203125 -0.59375 29.40625 -0.59375 
Q 20.90625 -0.59375 16.15625 2.15625 
Q 11.40625 4.90625 11.40625 12.296875 
L 11.40625 35.59375 
Q 11.40625 38.40625 10.34375 38.953125 
Q 9.296875 39.5 4.5 39.5 
z
" id="CMUSerif-Bold-117"/>
     <path d="M 1.203125 17.40625 
L 1.203125 27.09375 
L 31.796875 27.09375 
L 31.796875 17.40625 
z
" id="CMUSerif-Bold-45"/>
     <path d="M 3.703125 0 
L 3.703125 4.703125 
L 10.59375 4.703125 
L 10.59375 35.59375 
Q 10.59375 38.40625 9.546875 38.953125 
Q 8.5 39.5 3.703125 39.5 
L 3.703125 44.203125 
L 20.296875 45 
L 20.296875 33.703125 
Q 24.40625 45 33.59375 45 
Q 37.796875 45 41 42.796875 
Q 44.203125 40.59375 44.203125 36.796875 
Q 44.203125 34 42.34375 32.34375 
Q 40.5 30.703125 38.09375 30.703125 
Q 35.703125 30.703125 33.84375 32.296875 
Q 32 33.90625 32 36.796875 
Q 32 39.5 33.90625 41.40625 
Q 30.40625 41.40625 27.796875 39.453125 
Q 25.203125 37.5 23.890625 34.34375 
Q 22.59375 31.203125 22 28.203125 
Q 21.40625 25.203125 21.40625 22.203125 
L 21.40625 4.703125 
L 30.09375 4.703125 
L 30.09375 0 
Q 26.5 0.296875 16.296875 0.296875 
Q 14.203125 0.296875 3.703125 0 
z
" id="CMUSerif-Bold-114"/>
     <path d="M 3.203125 -7.5 
Q 3.203125 -5.296875 4.296875 -3.546875 
Q 5.40625 -1.796875 7.09375 -0.84375 
Q 8.796875 0.09375 9.84375 0.546875 
Q 10.90625 1 11.796875 1.203125 
Q 7.40625 4.703125 7.40625 10.796875 
Q 7.40625 15.40625 10.796875 19.703125 
Q 8.40625 21.40625 7 24.25 
Q 5.59375 27.09375 5.59375 30.203125 
Q 5.59375 36.203125 10.546875 40.59375 
Q 15.5 45 25.5 45 
Q 34 45 38.90625 41.703125 
Q 43.703125 45.5 49.5 45.5 
Q 52.59375 45.5 54.1875 43.640625 
Q 55.796875 41.796875 55.796875 39.703125 
Q 55.796875 37.90625 54.59375 36.65625 
Q 53.40625 35.40625 51.5 35.40625 
Q 49.59375 35.40625 48.390625 36.59375 
Q 47.203125 37.796875 47.203125 39.703125 
Q 47.203125 40.703125 47.59375 41.703125 
Q 44.40625 41.40625 41.40625 39.796875 
Q 45.40625 35.5 45.40625 30.203125 
Q 45.40625 24.203125 40.453125 19.796875 
Q 35.5 15.40625 25.5 15.40625 
Q 18.296875 15.40625 13.296875 18 
Q 12.296875 16.703125 12.296875 14.703125 
Q 12.296875 12.796875 13.59375 10.84375 
Q 14.90625 8.90625 17.796875 8.40625 
Q 18.296875 8.296875 25.5 8.296875 
Q 31.5 8.296875 34.296875 8.1875 
Q 37.09375 8.09375 40.546875 7.4375 
Q 44 6.796875 46.703125 5.5 
Q 54.203125 1.703125 54.203125 -7.203125 
Q 54.203125 -12.796875 47.75 -16.4375 
Q 41.296875 -20.09375 28.703125 -20.09375 
Q 15.203125 -20.09375 9.203125 -16.1875 
Q 3.203125 -12.296875 3.203125 -7.5 
z
M 11.796875 -7.296875 
Q 11.796875 -11.09375 16.046875 -13.796875 
Q 20.296875 -16.5 28.703125 -16.5 
Q 37.5 -16.5 41.546875 -13.703125 
Q 45.59375 -10.90625 45.59375 -7.5 
Q 45.59375 -1.296875 31.203125 -1.296875 
L 19.5 -1.296875 
Q 11.796875 -1.296875 11.796875 -7.296875 
z
M 16.796875 34.203125 
Q 16.703125 32.09375 16.703125 30.1875 
Q 16.703125 28.296875 16.75 27.25 
Q 16.796875 26.203125 17.25 24.390625 
Q 17.703125 22.59375 18.59375 21.59375 
Q 19.5 20.59375 21.25 19.796875 
Q 23 19 25.5 19 
Q 28 19 29.75 19.796875 
Q 31.5 20.59375 32.390625 21.59375 
Q 33.296875 22.59375 33.75 24.390625 
Q 34.203125 26.203125 34.25 27.25 
Q 34.296875 28.296875 34.296875 30.1875 
Q 34.296875 32.09375 34.25 33.140625 
Q 34.203125 34.203125 33.75 36 
Q 33.296875 37.796875 32.390625 38.796875 
Q 31.5 39.796875 29.75 40.59375 
Q 28 41.40625 25.5 41.40625 
Q 23 41.40625 21.25 40.59375 
Q 19.5 39.796875 18.59375 38.796875 
Q 17.703125 37.796875 17.25 36 
Q 16.796875 34.203125 16.703125 32.09375 
z
" id="CMUSerif-Bold-103"/>
     <path d="M 2.203125 -10.796875 
Q 2.203125 -8 3.890625 -6.5 
Q 5.59375 -5 7.90625 -5 
Q 10.40625 -5 12.046875 -6.59375 
Q 13.703125 -8.203125 13.703125 -10.703125 
Q 13.703125 -14.59375 10.5 -16 
Q 11.59375 -16.40625 12.90625 -16.40625 
Q 15.40625 -16.40625 17.453125 -15.34375 
Q 19.5 -14.296875 21.046875 -12.25 
Q 22.59375 -10.203125 23.4375 -8.75 
Q 24.296875 -7.296875 25.40625 -4.796875 
L 27.703125 0 
L 9 39.703125 
L 2.59375 39.703125 
L 2.59375 44.40625 
Q 3.59375 44.40625 8 44.25 
Q 12.40625 44.09375 14 44.09375 
Q 21.40625 44.09375 26.40625 44.40625 
L 26.40625 39.703125 
L 21 39.703125 
L 33.703125 12.703125 
L 45.203125 37.296875 
Q 45.703125 37.796875 45.703125 38.5 
Q 45.703125 39.703125 41 39.703125 
L 41 44.40625 
Q 47.296875 44.09375 50.09375 44.09375 
Q 54.40625 44.09375 58 44.40625 
L 58 39.703125 
Q 54.90625 39.703125 53.34375 39.453125 
Q 51.796875 39.203125 51.390625 38.84375 
Q 51 38.5 50.59375 37.59375 
L 29.09375 -8.09375 
Q 26.796875 -13 22.5 -16.5 
Q 18.203125 -20 12.90625 -20 
Q 8.40625 -20 5.296875 -17.296875 
Q 2.203125 -14.59375 2.203125 -10.796875 
z
" id="CMUSerif-Bold-121"/>
     <path d="M 3.796875 22.203125 
Q 3.796875 31.796875 10.140625 38.546875 
Q 16.5 45.296875 29.09375 45.296875 
Q 46.5 45.296875 46.5 36.09375 
Q 46.5 33.09375 44.59375 31.4375 
Q 42.703125 29.796875 40.203125 29.796875 
Q 37.90625 29.796875 35.953125 31.4375 
Q 34 33.09375 34 36.09375 
Q 34 38.90625 36 40.703125 
Q 33.40625 41.296875 29.5 41.296875 
Q 25.796875 41.296875 23.1875 39.796875 
Q 20.59375 38.296875 19.34375 36.4375 
Q 18.09375 34.59375 17.4375 31.546875 
Q 16.796875 28.5 16.6875 26.84375 
Q 16.59375 25.203125 16.59375 22.703125 
Q 16.59375 3.40625 30.5 3.40625 
Q 39.59375 3.40625 43 11.59375 
Q 43.40625 12.59375 43.75 12.84375 
Q 44.09375 13.09375 45.40625 13.09375 
Q 47.796875 13.09375 47.796875 11.703125 
Q 47.796875 11.296875 47.390625 10.140625 
Q 47 9 45.703125 7.09375 
Q 44.40625 5.203125 42.40625 3.546875 
Q 40.40625 1.90625 36.75 0.65625 
Q 33.09375 -0.59375 28.59375 -0.59375 
Q 17.203125 -0.59375 10.5 5.75 
Q 3.796875 12.09375 3.796875 22.203125 
z
" id="CMUSerif-Bold-99"/>
     <path d="M 2.59375 39.703125 
L 2.59375 44.40625 
Q 3.59375 44.40625 8 44.25 
Q 12.40625 44.09375 14 44.09375 
Q 21.40625 44.09375 26.40625 44.40625 
L 26.40625 39.703125 
L 21 39.703125 
L 33.703125 12.40625 
L 45.296875 37.40625 
Q 45.796875 38.40625 45.796875 38.59375 
Q 45.796875 39.703125 41 39.703125 
L 41 44.40625 
Q 47.296875 44.09375 50.09375 44.09375 
Q 54.203125 44.09375 58 44.40625 
L 58 39.703125 
Q 53.59375 39.703125 52.34375 39.25 
Q 51.09375 38.796875 50.59375 37.59375 
L 34 2 
Q 32.90625 -0.40625 30.296875 -0.40625 
Q 27.703125 -0.40625 26.5 2.09375 
L 9 39.703125 
z
" id="CMUSerif-Bold-118"/>
     <path d="M 2.5 39.703125 
L 2.5 44.40625 
Q 12.703125 44.09375 13.40625 44.09375 
Q 19.59375 44.09375 25.703125 44.40625 
L 25.703125 39.703125 
L 20.09375 39.703125 
L 30.59375 13.90625 
L 38.5 33.09375 
Q 38.90625 34.296875 38.90625 34.40625 
Q 38.90625 34.703125 36.796875 39.703125 
L 30.90625 39.703125 
L 30.90625 44.40625 
Q 35.703125 44.09375 40.90625 44.09375 
Q 42.703125 44.09375 52.296875 44.40625 
L 52.296875 39.703125 
L 46.703125 39.703125 
L 58.09375 11.703125 
L 68.59375 37.296875 
Q 68.59375 37.40625 68.75 37.65625 
Q 68.90625 37.90625 68.953125 38.15625 
Q 69 38.40625 69 38.5 
Q 69 39.703125 63.203125 39.703125 
L 63.203125 44.40625 
Q 69.796875 44.09375 72.796875 44.09375 
Q 77 44.09375 80.5 44.40625 
L 80.5 39.703125 
Q 77.703125 39.703125 76.25 39.390625 
Q 74.796875 39.09375 74.390625 38.75 
Q 74 38.40625 73.703125 37.59375 
L 59.296875 2.296875 
Q 58.90625 1.203125 58.59375 0.75 
Q 58.296875 0.296875 57.59375 -0.046875 
Q 56.90625 -0.40625 55.703125 -0.40625 
Q 54 -0.40625 53.34375 0.1875 
Q 52.703125 0.796875 52.09375 2.296875 
L 41.5 28.203125 
L 30.90625 2.296875 
Q 30.5 1.203125 30.203125 0.75 
Q 29.90625 0.296875 29.203125 -0.046875 
Q 28.5 -0.40625 27.296875 -0.40625 
Q 25.59375 -0.40625 24.9375 0.1875 
Q 24.296875 0.796875 23.703125 2.296875 
L 8.40625 39.703125 
z
" id="CMUSerif-Bold-119"/>
     <path d="M 12.296875 53.890625 
Q 7.796875 58.5 7.796875 61.6875 
Q 7.796875 64.890625 10.046875 67.1875 
Q 12.296875 69.5 15.609375 69.5 
Q 18.796875 69.5 21.09375 67.1875 
Q 23.40625 64.890625 23.40625 61.6875 
Q 23.40625 58.5 21.09375 56.1875 
Q 18.796875 53.890625 15.609375 53.890625 
Q 12.296875 53.890625 7.796875 58.5 
z
M 4.703125 0 
L 4.703125 4.703125 
L 11.59375 4.703125 
L 11.59375 35.59375 
Q 11.59375 38.40625 10.59375 38.953125 
Q 9.59375 39.5 5 39.5 
L 5 44.203125 
L 22.40625 45 
L 22.40625 4.703125 
L 28.59375 4.703125 
L 28.59375 0 
Q 17.796875 0.296875 16.90625 0.296875 
Q 14 0.296875 4.703125 0 
z
" id="CMUSerif-Bold-105"/>
     <path d="M 4.5 0 
L 4.5 4.703125 
L 11.40625 4.703125 
L 11.40625 60 
Q 11.40625 62.796875 10.34375 63.34375 
Q 9.296875 63.90625 4.5 63.90625 
L 4.5 68.59375 
L 22.203125 69.40625 
L 22.203125 35.40625 
L 22.296875 35.40625 
Q 27.90625 45 39.203125 45 
Q 46.90625 45 50.75 41.640625 
Q 54.59375 38.296875 54.59375 30.59375 
L 54.59375 4.703125 
L 61.5 4.703125 
L 61.5 0 
Q 53.09375 0.296875 48.890625 0.296875 
Q 44.703125 0.296875 36.296875 0 
L 36.296875 4.703125 
L 43.203125 4.703125 
L 43.203125 31.703125 
Q 43.203125 37.09375 41.796875 39.25 
Q 40.40625 41.40625 37.703125 41.40625 
Q 32.203125 41.40625 27.5 37.25 
Q 22.796875 33.09375 22.796875 25.59375 
L 22.796875 4.703125 
L 29.703125 4.703125 
L 29.703125 0 
Q 21.296875 0.296875 17.09375 0.296875 
Q 12.90625 0.296875 4.5 0 
z
" id="CMUSerif-Bold-104"/>
     <path d="M 4.203125 39.703125 
L 4.203125 44.40625 
L 11.703125 44.40625 
L 11.703125 54.5 
Q 11.703125 62.296875 17.796875 66.140625 
Q 23.90625 70 32.296875 70 
Q 37.796875 70 40.75 67.390625 
Q 43.703125 64.796875 43.703125 61.296875 
Q 43.703125 58.40625 41.84375 56.75 
Q 40 55.09375 37.5 55.09375 
Q 35.203125 55.09375 33.296875 56.6875 
Q 31.40625 58.296875 31.40625 61.296875 
Q 31.40625 64.5 33.703125 66.203125 
Q 33 66.40625 32 66.40625 
Q 31 66.40625 29.953125 66.25 
Q 28.90625 66.09375 27.34375 65.34375 
Q 25.796875 64.59375 24.6875 63.4375 
Q 23.59375 62.296875 22.75 59.9375 
Q 21.90625 57.59375 21.90625 54.5 
L 21.90625 44.40625 
L 34 44.40625 
L 34 39.703125 
L 22.5 39.703125 
L 22.5 4.703125 
L 31.203125 4.703125 
L 31.203125 0 
Q 27.59375 0.296875 17.40625 0.296875 
Q 15.296875 0.296875 4.796875 0 
L 4.796875 4.703125 
L 11.703125 4.703125 
L 11.703125 39.703125 
z
" id="CMUSerif-Bold-102"/>
     <path d="M 8.09375 7.796875 
Q 8.09375 11.09375 10.25 13.34375 
Q 12.40625 15.59375 15.796875 15.59375 
Q 20 15.59375 22.5 12 
Q 25 8.40625 25 3.09375 
Q 25 -0.796875 23.890625 -4.546875 
Q 22.796875 -8.296875 21.1875 -10.84375 
Q 19.59375 -13.40625 17.84375 -15.453125 
Q 16.09375 -17.5 14.796875 -18.453125 
Q 13.5 -19.40625 13 -19.40625 
Q 12.40625 -19.40625 11.75 -18.75 
Q 11.09375 -18.09375 11.09375 -17.40625 
Q 11.09375 -16.796875 12 -16 
Q 20.59375 -8.59375 21.40625 2 
Q 19.40625 0 15.90625 0 
Q 12.296875 0 10.1875 2.296875 
Q 8.09375 4.59375 8.09375 7.796875 
z
" id="CMUSerif-Bold-44"/>
     <path d="M 10.59375 45.21875 
L 73.1875 45.21875 
L 73.1875 37.40625 
L 10.59375 37.40625 
z
M 10.59375 25.296875 
L 73.1875 25.296875 
L 73.1875 17.484375 
L 10.59375 17.484375 
z
" id="DejaVuSerif-61"/>
     <path d="M 31.78125 3.421875 
Q 39.265625 3.421875 42.96875 11.625 
Q 46.6875 19.828125 46.6875 36.375 
Q 46.6875 52.984375 42.96875 61.1875 
Q 39.265625 69.390625 31.78125 69.390625 
Q 24.3125 69.390625 20.59375 61.1875 
Q 16.890625 52.984375 16.890625 36.375 
Q 16.890625 19.828125 20.59375 11.625 
Q 24.3125 3.421875 31.78125 3.421875 
z
M 31.78125 -1.421875 
Q 19.921875 -1.421875 13.25 8.53125 
Q 6.59375 18.5 6.59375 36.375 
Q 6.59375 54.296875 13.25 64.25 
Q 19.921875 74.21875 31.78125 74.21875 
Q 43.703125 74.21875 50.34375 64.25 
Q 56.984375 54.296875 56.984375 36.375 
Q 56.984375 18.5 50.34375 8.53125 
Q 43.703125 -1.421875 31.78125 -1.421875 
z
" id="DejaVuSerif-48"/>
     <path d="M 9.421875 5.078125 
Q 9.421875 7.8125 11.28125 9.71875 
Q 13.140625 11.625 15.921875 11.625 
Q 18.609375 11.625 20.5 9.71875 
Q 22.40625 7.8125 22.40625 5.078125 
Q 22.40625 2.390625 20.5 0.484375 
Q 18.609375 -1.421875 15.921875 -1.421875 
Q 13.140625 -1.421875 11.28125 0.453125 
Q 9.421875 2.34375 9.421875 5.078125 
z
" id="DejaVuSerif-46"/>
     <path d="M 46.578125 19.921875 
Q 46.578125 27.734375 42.6875 32.046875 
Q 38.8125 36.375 31.78125 36.375 
Q 24.75 36.375 20.875 32.046875 
Q 17 27.734375 17 19.921875 
Q 17 12.0625 20.875 7.734375 
Q 24.75 3.421875 31.78125 3.421875 
Q 38.8125 3.421875 42.6875 7.734375 
Q 46.578125 12.0625 46.578125 19.921875 
z
M 44.578125 55.328125 
Q 44.578125 61.96875 41.203125 65.671875 
Q 37.84375 69.390625 31.78125 69.390625 
Q 25.78125 69.390625 22.390625 65.671875 
Q 19 61.96875 19 55.328125 
Q 19 48.640625 22.390625 44.921875 
Q 25.78125 41.21875 31.78125 41.21875 
Q 37.84375 41.21875 41.203125 44.921875 
Q 44.578125 48.640625 44.578125 55.328125 
z
M 39.3125 38.8125 
Q 47.609375 37.703125 52.25 32.6875 
Q 56.890625 27.6875 56.890625 19.921875 
Q 56.890625 9.671875 50.390625 4.125 
Q 43.890625 -1.421875 31.78125 -1.421875 
Q 19.734375 -1.421875 13.203125 4.125 
Q 6.6875 9.671875 6.6875 19.921875 
Q 6.6875 27.6875 11.328125 32.6875 
Q 15.96875 37.703125 24.3125 38.8125 
Q 16.9375 40.140625 13 44.40625 
Q 9.078125 48.6875 9.078125 55.328125 
Q 9.078125 64.109375 15.125 69.15625 
Q 21.1875 74.21875 31.78125 74.21875 
Q 42.390625 74.21875 48.4375 69.15625 
Q 54.5 64.109375 54.5 55.328125 
Q 54.5 48.6875 50.5625 44.40625 
Q 46.625 40.140625 39.3125 38.8125 
z
" id="DejaVuSerif-56"/>
     <path d="M 9.71875 69.828125 
Q 15.4375 71.96875 20.671875 73.09375 
Q 25.921875 74.21875 30.515625 74.21875 
Q 41.21875 74.21875 47.21875 69.59375 
Q 53.21875 64.984375 53.21875 56.78125 
Q 53.21875 50.203125 49.0625 45.78125 
Q 44.921875 41.359375 37.3125 39.796875 
Q 46.296875 38.53125 51.25 33.28125 
Q 56.203125 28.03125 56.203125 19.671875 
Q 56.203125 9.46875 49.34375 4.015625 
Q 42.484375 -1.421875 29.59375 -1.421875 
Q 23.875 -1.421875 18.421875 -0.1875 
Q 12.984375 1.03125 7.625 3.515625 
L 7.625 17.671875 
L 13.09375 17.671875 
Q 13.578125 10.640625 17.828125 7.03125 
Q 22.078125 3.421875 29.78125 3.421875 
Q 37.25 3.421875 41.578125 7.734375 
Q 45.90625 12.0625 45.90625 19.578125 
Q 45.90625 28.171875 41.453125 32.59375 
Q 37.015625 37.015625 28.421875 37.015625 
L 23.78125 37.015625 
L 23.78125 42 
L 26.21875 42 
Q 34.765625 42 39.03125 45.53125 
Q 43.3125 49.078125 43.3125 56.203125 
Q 43.3125 62.59375 39.796875 65.984375 
Q 36.28125 69.390625 29.6875 69.390625 
Q 23.09375 69.390625 19.453125 66.265625 
Q 15.828125 63.140625 15.1875 56.984375 
L 9.71875 56.984375 
z
" id="DejaVuSerif-51"/>
     <path d="M 32.71875 3.421875 
Q 39.59375 3.421875 43.296875 8.46875 
Q 47.015625 13.53125 47.015625 23 
Q 47.015625 32.46875 43.296875 37.515625 
Q 39.59375 42.578125 32.71875 42.578125 
Q 25.734375 42.578125 22.0625 37.6875 
Q 18.40625 32.8125 18.40625 23.578125 
Q 18.40625 13.875 22.109375 8.640625 
Q 25.828125 3.421875 32.71875 3.421875 
z
M 16.796875 40.140625 
Q 20.125 43.796875 24.3125 45.59375 
Q 28.515625 47.40625 33.796875 47.40625 
Q 44.671875 47.40625 51 40.859375 
Q 57.328125 34.328125 57.328125 23 
Q 57.328125 11.921875 50.515625 5.25 
Q 43.703125 -1.421875 32.328125 -1.421875 
Q 19.96875 -1.421875 13.328125 7.78125 
Q 6.6875 17 6.6875 34.078125 
Q 6.6875 53.21875 14.546875 63.71875 
Q 22.40625 74.21875 36.71875 74.21875 
Q 40.578125 74.21875 44.828125 73.484375 
Q 49.078125 72.75 53.515625 71.296875 
L 53.515625 59.28125 
L 48 59.28125 
Q 47.40625 64.203125 44.234375 66.796875 
Q 41.0625 69.390625 35.6875 69.390625 
Q 26.21875 69.390625 21.578125 62.203125 
Q 16.9375 55.03125 16.796875 40.140625 
z
" id="DejaVuSerif-54"/>
     <path d="M 46.78125 32.671875 
Q 43.5 29 39.25 27.1875 
Q 35.015625 25.390625 29.6875 25.390625 
Q 18.84375 25.390625 12.5625 31.9375 
Q 6.296875 38.484375 6.296875 49.8125 
Q 6.296875 60.890625 13.109375 67.546875 
Q 19.921875 74.21875 31.296875 74.21875 
Q 43.65625 74.21875 50.265625 65.015625 
Q 56.890625 55.8125 56.890625 38.71875 
Q 56.890625 19.578125 49.015625 9.078125 
Q 41.15625 -1.421875 26.90625 -1.421875 
Q 23.046875 -1.421875 18.796875 -0.6875 
Q 14.546875 0.046875 10.109375 1.515625 
L 10.109375 13.625 
L 15.578125 13.625 
Q 16.21875 8.6875 19.390625 6.046875 
Q 22.5625 3.421875 27.875 3.421875 
Q 37.359375 3.421875 41.984375 10.5625 
Q 46.625 17.71875 46.78125 32.671875 
z
M 30.90625 69.390625 
Q 23.96875 69.390625 20.28125 64.328125 
Q 16.609375 59.28125 16.609375 49.8125 
Q 16.609375 40.328125 20.28125 35.25 
Q 23.96875 30.171875 30.90625 30.171875 
Q 37.84375 30.171875 41.53125 35.078125 
Q 45.21875 39.984375 45.21875 49.21875 
Q 45.21875 58.9375 41.5 64.15625 
Q 37.796875 69.390625 30.90625 69.390625 
z
" id="DejaVuSerif-57"/>
     <path d="M 12.796875 55.515625 
L 7.328125 55.515625 
L 7.328125 68.5 
Q 12.546875 71.296875 17.84375 72.75 
Q 23.140625 74.21875 28.21875 74.21875 
Q 39.59375 74.21875 46.1875 68.703125 
Q 52.78125 63.1875 52.78125 53.71875 
Q 52.78125 43.015625 37.84375 28.125 
Q 36.671875 27 36.078125 26.421875 
L 17.671875 8.015625 
L 48.09375 8.015625 
L 48.09375 17 
L 53.8125 17 
L 53.8125 0 
L 6.78125 0 
L 6.78125 5.328125 
L 28.90625 27.390625 
Q 36.234375 34.71875 39.359375 40.84375 
Q 42.484375 46.96875 42.484375 53.71875 
Q 42.484375 61.078125 38.640625 65.234375 
Q 34.8125 69.390625 28.078125 69.390625 
Q 21.09375 69.390625 17.28125 65.921875 
Q 13.484375 62.453125 12.796875 55.515625 
z
" id="DejaVuSerif-50"/>
    </defs>
    <g transform="translate(3.6 14.76)scale(0.12 -0.12)">
     <use transform="translate(0 0.171875)" xlink:href="#CMUSerif-Bold-77"/>
     <use transform="translate(109.099991 0.171875)" xlink:href="#CMUSerif-Bold-111"/>
     <use transform="translate(166.599976 0.171875)" xlink:href="#CMUSerif-Bold-109"/>
     <use transform="translate(262.399963 0.171875)" xlink:href="#CMUSerif-Bold-101"/>
     <use transform="translate(315.09996 0.171875)" xlink:href="#CMUSerif-Bold-110"/>
     <use transform="translate(378.899948 0.171875)" xlink:href="#CMUSerif-Bold-116"/>
     <use transform="translate(423.599945 0.171875)" xlink:href="#CMUSerif-Bold-117"/>
     <use transform="translate(487.399933 0.171875)" xlink:href="#CMUSerif-Bold-109"/>
     <use transform="translate(583.199921 0.171875)" xlink:href="#CMUSerif-Bold-45"/>
     <use transform="translate(621.499908 0.171875)" xlink:href="#CMUSerif-Bold-101"/>
     <use transform="translate(674.199905 0.171875)" xlink:href="#CMUSerif-Bold-110"/>
     <use transform="translate(737.999893 0.171875)" xlink:href="#CMUSerif-Bold-101"/>
     <use transform="translate(790.69989 0.171875)" xlink:href="#CMUSerif-Bold-114"/>
     <use transform="translate(837.999878 0.171875)" xlink:href="#CMUSerif-Bold-103"/>
     <use transform="translate(895.499863 0.171875)" xlink:href="#CMUSerif-Bold-121"/>
     <use transform="translate(956.099854 0.171875)" xlink:href="#CMUSerif-Bold-32"/>
     <use transform="translate(994.399841 0.171875)" xlink:href="#CMUSerif-Bold-99"/>
     <use transform="translate(1045.499832 0.171875)" xlink:href="#CMUSerif-Bold-117"/>
     <use transform="translate(1109.29982 0.171875)" xlink:href="#CMUSerif-Bold-114"/>
     <use transform="translate(1156.599808 0.171875)" xlink:href="#CMUSerif-Bold-118"/>
     <use transform="translate(1217.199799 0.171875)" xlink:href="#CMUSerif-Bold-101"/>
     <use transform="translate(1269.899796 0.171875)" xlink:href="#CMUSerif-Bold-32"/>
     <use transform="translate(1308.199783 0.171875)" xlink:href="#CMUSerif-Bold-119"/>
     <use transform="translate(1391.199768 0.171875)" xlink:href="#CMUSerif-Bold-105"/>
     <use transform="translate(1423.099762 0.171875)" xlink:href="#CMUSerif-Bold-116"/>
     <use transform="translate(1467.799759 0.171875)" xlink:href="#CMUSerif-Bold-104"/>
     <use transform="translate(1531.599747 0.171875)" xlink:href="#CMUSerif-Bold-32"/>
     <use transform="translate(1569.899734 0.171875)" xlink:href="#CMUSerif-Bold-102"/>
     <use transform="translate(1604.999725 0.171875)" xlink:href="#CMUSerif-Bold-105"/>
     <use transform="translate(1636.899719 0.171875)" xlink:href="#CMUSerif-Bold-116"/>
     <use transform="translate(1681.599716 0.171875)" xlink:href="#CMUSerif-Bold-44"/>
     <use transform="translate(1713.49971 0.171875)" xlink:href="#CMUSerif-Bold-32"/>
     <use transform="translate(1751.799698 0.171875)" xlink:href="#DejaVuSerif-69"/>
     <use transform="translate(1825.706104 -15.4)scale(0.7)" xlink:href="#DejaVuSerif-Italic-70"/>
     <use transform="translate(1895.835596 0.171875)" xlink:href="#DejaVuSerif-61"/>
     <use transform="translate(1998.589503 0.171875)" xlink:href="#DejaVuSerif-48"/>
     <use transform="translate(2062.212549 0.171875)" xlink:href="#DejaVuSerif-46"/>
     <use transform="translate(2093.952784 0.171875)" xlink:href="#DejaVuSerif-56"/>
     <use transform="translate(2157.575831 0.171875)" xlink:href="#DejaVuSerif-51"/>
     <use transform="translate(2221.198878 0.171875)" xlink:href="#CMUSerif-Bold-32"/>
     <use transform="translate(2259.498865 0.171875)" xlink:href="#CMUSerif-Bold-91"/>
     <use transform="translate(2291.398859 0.171875)" xlink:href="#CMUSerif-Bold-109"/>
     <use transform="translate(2387.198847 0.171875)" xlink:href="#CMUSerif-Bold-101"/>
     <use transform="translate(2439.898844 0.171875)" xlink:href="#CMUSerif-Bold-86"/>
     <use transform="translate(2526.798838 0.171875)" xlink:href="#CMUSerif-Bold-93"/>
     <use transform="translate(2558.698832 0.171875)" xlink:href="#CMUSerif-Bold-44"/>
     <use transform="translate(2590.598826 0.171875)" xlink:href="#CMUSerif-Bold-32"/>
     <use transform="translate(2628.898813 0.171875)" xlink:href="#DejaVuSerif-107"/>
     <use transform="translate(2690.402876 -15.4)scale(0.7)" xlink:href="#DejaVuSerif-Italic-70"/>
     <use transform="translate(2760.532368 0.171875)" xlink:href="#DejaVuSerif-61"/>
     <use transform="translate(2863.286274 0.171875)" xlink:href="#DejaVuSerif-48"/>
     <use transform="translate(2926.909321 0.171875)" xlink:href="#DejaVuSerif-46"/>
     <use transform="translate(2958.696431 0.171875)" xlink:href="#DejaVuSerif-54"/>
     <use transform="translate(3022.319478 0.171875)" xlink:href="#DejaVuSerif-57"/>
     <use transform="translate(3085.926899 0.171875)" xlink:href="#DejaVuSerif-50"/>
     <use transform="translate(3149.549946 0.171875)" xlink:href="#DejaVuSerif-54"/>
     <use transform="translate(3213.172993 0.171875)" xlink:href="#CMUSerif-Bold-32"/>
     <use transform="translate(3251.472981 0.171875)" xlink:href="#CMUSerif-Bold-91"/>
     <use transform="translate(3283.372975 0.171875)" xlink:href="#DejaVuSerif-197"/>
     <use transform="translate(3356.498131 36.50625)scale(0.7)" xlink:href="#DejaVuSerif-8722"/>
     <use transform="translate(3415.150475 36.50625)scale(0.7)" xlink:href="#DejaVuSerif-49"/>
     <use transform="translate(3462.28192 0.171875)" xlink:href="#CMUSerif-Bold-93"/>
    </g>
   </g>
   <g id="legend_1">
    <g id="line2d_128"/>
    <g id="line2d_129">
     <g>
      <use style="fill-opacity:0;stroke:#0000ff;stroke-width:1.5;" x="249.744375" xlink:href="#m14d1551999" y="35.76"/>
     </g>
    </g>
    <g id="text_15">
     <!-- Experiment -->
     <defs>
      <path d="M 3.90625 0 
L 3.90625 4.703125 
L 14.703125 4.703125 
L 14.703125 63.296875 
L 3.90625 63.296875 
L 3.90625 68 
L 66 68 
L 69.09375 43.90625 
L 64.40625 43.90625 
Q 63.90625 48 63.25 50.640625 
Q 62.59375 53.296875 61.1875 55.890625 
Q 59.796875 58.5 57.6875 60 
Q 55.59375 61.5 52.1875 62.390625 
Q 48.796875 63.296875 44.09375 63.296875 
L 28.90625 63.296875 
L 28.90625 37.59375 
L 34.40625 37.59375 
Q 41.09375 37.59375 43.046875 40.296875 
Q 45 43 45 49.296875 
L 49.703125 49.296875 
L 49.703125 21.203125 
L 45 21.203125 
Q 45 27.5 43.046875 30.203125 
Q 41.09375 32.90625 34.40625 32.90625 
L 28.90625 32.90625 
L 28.90625 4.703125 
L 44.09375 4.703125 
Q 48.59375 4.703125 52.046875 5.34375 
Q 55.5 6 57.890625 7.546875 
Q 60.296875 9.09375 61.9375 10.84375 
Q 63.59375 12.59375 64.6875 15.4375 
Q 65.796875 18.296875 66.390625 20.890625 
Q 67 23.5 67.59375 27.40625 
L 72.296875 27.40625 
L 67.703125 0 
z
" id="CMUSerif-Bold-69"/>
      <path d="M 2.203125 0 
L 2.203125 4.703125 
Q 5.296875 4.703125 6.75 4.75 
Q 8.203125 4.796875 9.84375 5.25 
Q 11.5 5.703125 12.296875 6.59375 
L 25.40625 21.296875 
L 9.796875 39.703125 
L 2.703125 39.703125 
L 2.703125 44.40625 
Q 12.59375 44.09375 13.703125 44.09375 
Q 18 44.09375 25.796875 44.40625 
L 25.796875 39.703125 
L 21.796875 39.703125 
L 31.59375 28.203125 
L 40 37.59375 
L 40.796875 38.796875 
Q 39.296875 39.703125 37 39.703125 
L 37 44.40625 
Q 45.40625 44.09375 47.296875 44.09375 
Q 51.203125 44.09375 56.5 44.40625 
L 56.5 39.703125 
Q 52.5 39.703125 50.390625 39.453125 
Q 48.296875 39.203125 47.6875 38.84375 
Q 47.09375 38.5 46.296875 37.59375 
L 34.59375 24.59375 
L 51.40625 4.703125 
L 58.5 4.703125 
L 58.5 0 
Q 48.59375 0.296875 47.5 0.296875 
Q 43.296875 0.296875 35.5 0 
L 35.5 4.703125 
L 39.40625 4.703125 
L 28.40625 17.703125 
L 18.703125 6.796875 
Q 18 6 18 5.796875 
Q 18 4.703125 21.703125 4.703125 
L 21.703125 0 
Q 15.703125 0.296875 11.40625 0.296875 
Q 7.40625 0.296875 2.203125 0 
z
" id="CMUSerif-Bold-120"/>
      <path d="M 3.703125 -14.703125 
L 10.59375 -14.703125 
L 10.59375 35.703125 
Q 10.59375 38.5 9.546875 39 
Q 8.5 39.5 3.703125 39.5 
L 3.703125 44.203125 
L 21.40625 45 
L 21.40625 40.09375 
Q 27.703125 45 36.5 45 
Q 47.203125 45 53.59375 38.703125 
Q 60 32.40625 60 22.296875 
Q 60 11.90625 53.046875 5.65625 
Q 46.09375 -0.59375 34.796875 -0.59375 
Q 27.5 -0.59375 22 3.90625 
L 22 -14.703125 
L 28.90625 -14.703125 
L 28.90625 -19.40625 
Q 20.5 -19.09375 16.296875 -19.09375 
Q 12.09375 -19.09375 3.703125 -19.40625 
z
M 22 11.703125 
Q 22 10.203125 22.140625 9.796875 
Q 22.296875 9.40625 23.09375 8.40625 
Q 27.59375 3 33.703125 3 
Q 39.203125 3 43.203125 7.75 
Q 47.203125 12.5 47.203125 22.296875 
Q 47.203125 31.296875 43.703125 36.140625 
Q 40.203125 41 34.90625 41 
Q 28.09375 41 23.5 36.296875 
Q 22.40625 35.203125 22.203125 34.75 
Q 22 34.296875 22 32.90625 
z
" id="CMUSerif-Bold-112"/>
     </defs>
     <g transform="translate(271.344375 39.96)scale(0.12 -0.12)">
      <use xlink:href="#CMUSerif-Bold-69"/>
      <use x="75.499985" xlink:href="#CMUSerif-Bold-120"/>
      <use x="136.099976" xlink:href="#CMUSerif-Bold-112"/>
      <use x="199.899963" xlink:href="#CMUSerif-Bold-101"/>
      <use x="252.59996" xlink:href="#CMUSerif-Bold-114"/>
      <use x="299.899948" xlink:href="#CMUSerif-Bold-105"/>
      <use x="331.799942" xlink:href="#CMUSerif-Bold-109"/>
      <use x="427.59993" xlink:href="#CMUSerif-Bold-101"/>
      <use x="480.299927" xlink:href="#CMUSerif-Bold-110"/>
      <use x="544.099915" xlink:href="#CMUSerif-Bold-116"/>
     </g>
    </g>
    <g id="line2d_130">
     <path d="M 237.744375 52.48875 
L 261.744375 52.48875 
" style="fill:none;stroke:#ff0000;stroke-dasharray:3.7,1.6;stroke-dashoffset:0;"/>
    </g>
    <g id="line2d_131"/>
    <g id="text_16">
     <!-- Fit -->
     <defs>
      <path d="M 3.90625 0 
L 3.90625 4.703125 
L 14.703125 4.703125 
L 14.703125 63.296875 
L 3.90625 63.296875 
L 3.90625 68 
L 64.40625 68 
L 67.5 43.90625 
L 62.796875 43.90625 
Q 62.296875 47.90625 61.6875 50.453125 
Q 61.09375 53 59.796875 55.703125 
Q 58.5 58.40625 56.453125 59.90625 
Q 54.40625 61.40625 51 62.34375 
Q 47.59375 63.296875 42.90625 63.296875 
L 28.90625 63.296875 
L 28.90625 36.40625 
L 33.90625 36.40625 
Q 40.59375 36.40625 42.5 39.09375 
Q 44.40625 41.796875 44.40625 48.09375 
L 49.09375 48.09375 
L 49.09375 20 
L 44.40625 20 
Q 44.40625 26.296875 42.5 29 
Q 40.59375 31.703125 33.90625 31.703125 
L 28.90625 31.703125 
L 28.90625 4.703125 
L 42.40625 4.703125 
L 42.40625 0 
Q 38 0.296875 22.203125 0.296875 
Q 7.703125 0.296875 3.90625 0 
z
" id="CMUSerif-Bold-70"/>
     </defs>
     <g transform="translate(271.344375 56.68875)scale(0.12 -0.12)">
      <use xlink:href="#CMUSerif-Bold-70"/>
      <use x="72.299988" xlink:href="#CMUSerif-Bold-105"/>
      <use x="104.199982" xlink:href="#CMUSerif-Bold-116"/>
     </g>
    </g>
   </g>
  </g>
 </g>
 <defs>
  <clipPath id="p77547dce4d">
   <rect height="194.04" width="279" x="73.8" y="20.76"/>
  </clipPath>
 </defs>
</svg>
