<?xml version="1.0" encoding="utf-8" standalone="no"?>
<!DOCTYPE svg PUBLIC "-//W3C//DTD SVG 1.1//EN"
  "http://www.w3.org/Graphics/SVG/1.1/DTD/svg11.dtd">
<!-- Created with matplotlib (https://matplotlib.org/) -->
<svg height="253.814479pt" version="1.1" viewBox="0 0 376.630047 253.814479" width="376.630047pt" xmlns="http://www.w3.org/2000/svg" xmlns:xlink="http://www.w3.org/1999/xlink">
 <defs>
  <style type="text/css">
*{stroke-linecap:butt;stroke-linejoin:round;}
  </style>
 </defs>
 <g id="figure_1">
  <g id="patch_1">
   <path d="M 0 253.814479 
L 376.630047 253.814479 
L 376.630047 0 
L 0 0 
z
" style="fill:#ffffff;"/>
  </g>
  <g id="axes_1">
   <g id="patch_2">
    <path d="M 53.16429 216.701554 
L 332.16429 216.701554 
L 332.16429 22.661554 
L 53.16429 22.661554 
z
" style="fill:#ffffff;"/>
   </g>
   <g id="matplotlib.axis_1">
    <g id="xtick_1">
     <g id="line2d_1">
      <path clip-path="url(#p842347f63b)" d="M 62.111769 216.701554 
L 62.111769 22.661554 
" style="fill:none;stroke:#b0b0b0;stroke-linecap:square;stroke-width:0.5;"/>
     </g>
     <g id="line2d_2">
      <defs>
       <path d="M 0 0 
L 0 -3 
" id="m65415ea196" style="stroke:#000000;stroke-width:0.5;"/>
      </defs>
      <g>
       <use style="stroke:#000000;stroke-width:0.5;" x="62.111769" xlink:href="#m65415ea196" y="216.701554"/>
      </g>
     </g>
     <g id="line2d_3">
      <defs>
       <path d="M 0 0 
L 0 3 
" id="m8c5b098c2d" style="stroke:#000000;stroke-width:0.5;"/>
      </defs>
      <g>
       <use style="stroke:#000000;stroke-width:0.5;" x="62.111769" xlink:href="#m8c5b098c2d" y="22.661554"/>
      </g>
     </g>
     <g id="text_1">
      <!-- $0.00$ -->
      <defs>
       <path d="M 42 31.84375 
C 42 37.96875 41.90625 48.421875 37.703125 56.453125 
C 34 63.484375 28.09375 66 22.90625 66 
C 18.09375 66 12 63.78125 8.203125 56.5625 
C 4.203125 49.015625 3.796875 39.671875 3.796875 31.84375 
C 3.796875 26.109375 3.90625 17.375 7 9.734375 
C 11.296875 -0.609375 19 -2 22.90625 -2 
C 27.5 -2 34.5 -0.109375 38.59375 9.4375 
C 41.59375 16.375 42 24.5 42 31.84375 
z
M 22.90625 -0.40625 
C 16.5 -0.40625 12.703125 5.125 11.296875 12.75 
C 10.203125 18.6875 10.203125 27.328125 10.203125 32.953125 
C 10.203125 40.6875 10.203125 47.109375 11.5 53.234375 
C 13.40625 61.78125 19 64.390625 22.90625 64.390625 
C 27 64.390625 32.296875 61.671875 34.203125 53.4375 
C 35.5 47.71875 35.59375 40.984375 35.59375 32.953125 
C 35.59375 26.421875 35.59375 18.375 34.40625 12.453125 
C 32.296875 1.5 26.40625 -0.40625 22.90625 -0.40625 
z
" id="CMR17-48"/>
       <path d="M 18.40625 4.796875 
C 18.40625 7.6875 16 9.6875 13.59375 9.6875 
C 10.703125 9.6875 8.703125 7.296875 8.703125 4.890625 
C 8.703125 2 11.09375 0 13.5 0 
C 16.40625 0 18.40625 2.390625 18.40625 4.796875 
z
" id="CMMI12-58"/>
      </defs>
      <g transform="translate(51.706453 228.503734)scale(0.12 -0.12)">
       <use transform="scale(0.996264)" xlink:href="#CMR17-48"/>
       <use transform="translate(45.690477 0)scale(0.996264)" xlink:href="#CMMI12-58"/>
       <use transform="translate(72.787654 0)scale(0.996264)" xlink:href="#CMR17-48"/>
       <use transform="translate(118.478131 0)scale(0.996264)" xlink:href="#CMR17-48"/>
      </g>
     </g>
    </g>
    <g id="xtick_2">
     <g id="line2d_4">
      <path clip-path="url(#p842347f63b)" d="M 130.214086 216.701554 
L 130.214086 22.661554 
" style="fill:none;stroke:#b0b0b0;stroke-linecap:square;stroke-width:0.5;"/>
     </g>
     <g id="line2d_5">
      <g>
       <use style="stroke:#000000;stroke-width:0.5;" x="130.214086" xlink:href="#m65415ea196" y="216.701554"/>
      </g>
     </g>
     <g id="line2d_6">
      <g>
       <use style="stroke:#000000;stroke-width:0.5;" x="130.214086" xlink:href="#m8c5b098c2d" y="22.661554"/>
      </g>
     </g>
     <g id="text_2">
      <!-- $0.05$ -->
      <defs>
       <path d="M 11.40625 58.59375 
C 12.40625 58.1875 16.5 56.890625 20.703125 56.890625 
C 30 56.890625 35.09375 61.890625 38 64.6875 
C 38 65.484375 38 66 37.40625 66 
C 37.296875 66 37.09375 66 36.296875 65.59375 
C 32.796875 64.09375 28.703125 63 23.703125 63 
C 20.703125 63 16.203125 63.359375 11.296875 65.484375 
C 10.203125 66 10 66 9.90625 66 
C 9.40625 66 9.296875 65.890625 9.296875 63.90625 
L 9.296875 34.859375 
C 9.296875 33.015625 9.296875 32.5 10.296875 32.5 
C 10.796875 32.5 11 32.703125 11.5 33.421875 
C 14.703125 38.046875 19.09375 40 24.09375 40 
C 27.59375 40 35.09375 37.734375 35.09375 20.203125 
C 35.09375 16.984375 35.09375 11.1875 32.09375 6.59375 
C 29.59375 2.484375 25.703125 0.390625 21.40625 0.390625 
C 14.796875 0.390625 8.09375 4.984375 6.296875 12.6875 
C 6.703125 12.59375 7.5 12.390625 7.90625 12.390625 
C 9.203125 12.390625 11.703125 13.09375 11.703125 16.1875 
C 11.703125 18.890625 9.796875 20 7.90625 20 
C 5.59375 20 4.09375 18.59375 4.09375 15.796875 
C 4.09375 7.09375 11 -2 21.59375 -2 
C 31.90625 -2 41.703125 6.890625 41.703125 19.796875 
C 41.703125 32.09375 33.90625 41.59375 24.203125 41.59375 
C 19.09375 41.59375 14.796875 39.6875 11.40625 36 
z
" id="CMR17-53"/>
      </defs>
      <g transform="translate(119.80877 228.503734)scale(0.12 -0.12)">
       <use transform="scale(0.996264)" xlink:href="#CMR17-48"/>
       <use transform="translate(45.690477 0)scale(0.996264)" xlink:href="#CMMI12-58"/>
       <use transform="translate(72.787654 0)scale(0.996264)" xlink:href="#CMR17-48"/>
       <use transform="translate(118.478131 0)scale(0.996264)" xlink:href="#CMR17-53"/>
      </g>
     </g>
    </g>
    <g id="xtick_3">
     <g id="line2d_7">
      <path clip-path="url(#p842347f63b)" d="M 198.316404 216.701554 
L 198.316404 22.661554 
" style="fill:none;stroke:#b0b0b0;stroke-linecap:square;stroke-width:0.5;"/>
     </g>
     <g id="line2d_8">
      <g>
       <use style="stroke:#000000;stroke-width:0.5;" x="198.316404" xlink:href="#m65415ea196" y="216.701554"/>
      </g>
     </g>
     <g id="line2d_9">
      <g>
       <use style="stroke:#000000;stroke-width:0.5;" x="198.316404" xlink:href="#m8c5b098c2d" y="22.661554"/>
      </g>
     </g>
     <g id="text_3">
      <!-- $0.10$ -->
      <defs>
       <path d="M 26.59375 63.796875 
C 26.59375 65.890625 26.5 66 25.09375 66 
C 21.203125 61.359375 15.296875 59.890625 9.703125 59.6875 
C 9.40625 59.6875 8.90625 59.6875 8.796875 59.5 
C 8.703125 59.296875 8.703125 59.09375 8.703125 57 
C 11.796875 57 17 57.59375 21 59.984375 
L 21 7.296875 
C 21 3.796875 20.796875 2.59375 12.203125 2.59375 
L 9.203125 2.59375 
L 9.203125 0 
C 14 0.09375 19 0.1875 23.796875 0.1875 
C 28.59375 0.1875 33.59375 0.09375 38.40625 0 
L 38.40625 2.59375 
L 35.40625 2.59375 
C 26.796875 2.59375 26.59375 3.6875 26.59375 7.296875 
z
" id="CMR17-49"/>
      </defs>
      <g transform="translate(187.911088 228.503734)scale(0.12 -0.12)">
       <use transform="scale(0.996264)" xlink:href="#CMR17-48"/>
       <use transform="translate(45.690477 0)scale(0.996264)" xlink:href="#CMMI12-58"/>
       <use transform="translate(72.787654 0)scale(0.996264)" xlink:href="#CMR17-49"/>
       <use transform="translate(118.478131 0)scale(0.996264)" xlink:href="#CMR17-48"/>
      </g>
     </g>
    </g>
    <g id="xtick_4">
     <g id="line2d_10">
      <path clip-path="url(#p842347f63b)" d="M 266.418721 216.701554 
L 266.418721 22.661554 
" style="fill:none;stroke:#b0b0b0;stroke-linecap:square;stroke-width:0.5;"/>
     </g>
     <g id="line2d_11">
      <g>
       <use style="stroke:#000000;stroke-width:0.5;" x="266.418721" xlink:href="#m65415ea196" y="216.701554"/>
      </g>
     </g>
     <g id="line2d_12">
      <g>
       <use style="stroke:#000000;stroke-width:0.5;" x="266.418721" xlink:href="#m8c5b098c2d" y="22.661554"/>
      </g>
     </g>
     <g id="text_4">
      <!-- $0.15$ -->
      <g transform="translate(256.013405 228.503734)scale(0.12 -0.12)">
       <use transform="scale(0.996264)" xlink:href="#CMR17-48"/>
       <use transform="translate(45.690477 0)scale(0.996264)" xlink:href="#CMMI12-58"/>
       <use transform="translate(72.787654 0)scale(0.996264)" xlink:href="#CMR17-49"/>
       <use transform="translate(118.478131 0)scale(0.996264)" xlink:href="#CMR17-53"/>
      </g>
     </g>
    </g>
    <g id="xtick_5">
     <g id="line2d_13">
      <defs>
       <path d="M 0 0 
L 0 -1.5 
" id="m63f9317bd0" style="stroke:#000000;stroke-width:0.5;"/>
      </defs>
      <g>
       <use style="stroke:#000000;stroke-width:0.5;" x="75.732232" xlink:href="#m63f9317bd0" y="216.701554"/>
      </g>
     </g>
     <g id="line2d_14">
      <defs>
       <path d="M 0 0 
L 0 1.5 
" id="mdba9686a41" style="stroke:#000000;stroke-width:0.5;"/>
      </defs>
      <g>
       <use style="stroke:#000000;stroke-width:0.5;" x="75.732232" xlink:href="#mdba9686a41" y="22.661554"/>
      </g>
     </g>
    </g>
    <g id="xtick_6">
     <g id="line2d_15">
      <g>
       <use style="stroke:#000000;stroke-width:0.5;" x="89.352696" xlink:href="#m63f9317bd0" y="216.701554"/>
      </g>
     </g>
     <g id="line2d_16">
      <g>
       <use style="stroke:#000000;stroke-width:0.5;" x="89.352696" xlink:href="#mdba9686a41" y="22.661554"/>
      </g>
     </g>
    </g>
    <g id="xtick_7">
     <g id="line2d_17">
      <g>
       <use style="stroke:#000000;stroke-width:0.5;" x="102.973159" xlink:href="#m63f9317bd0" y="216.701554"/>
      </g>
     </g>
     <g id="line2d_18">
      <g>
       <use style="stroke:#000000;stroke-width:0.5;" x="102.973159" xlink:href="#mdba9686a41" y="22.661554"/>
      </g>
     </g>
    </g>
    <g id="xtick_8">
     <g id="line2d_19">
      <g>
       <use style="stroke:#000000;stroke-width:0.5;" x="116.593623" xlink:href="#m63f9317bd0" y="216.701554"/>
      </g>
     </g>
     <g id="line2d_20">
      <g>
       <use style="stroke:#000000;stroke-width:0.5;" x="116.593623" xlink:href="#mdba9686a41" y="22.661554"/>
      </g>
     </g>
    </g>
    <g id="xtick_9">
     <g id="line2d_21">
      <g>
       <use style="stroke:#000000;stroke-width:0.5;" x="143.83455" xlink:href="#m63f9317bd0" y="216.701554"/>
      </g>
     </g>
     <g id="line2d_22">
      <g>
       <use style="stroke:#000000;stroke-width:0.5;" x="143.83455" xlink:href="#mdba9686a41" y="22.661554"/>
      </g>
     </g>
    </g>
    <g id="xtick_10">
     <g id="line2d_23">
      <g>
       <use style="stroke:#000000;stroke-width:0.5;" x="157.455013" xlink:href="#m63f9317bd0" y="216.701554"/>
      </g>
     </g>
     <g id="line2d_24">
      <g>
       <use style="stroke:#000000;stroke-width:0.5;" x="157.455013" xlink:href="#mdba9686a41" y="22.661554"/>
      </g>
     </g>
    </g>
    <g id="xtick_11">
     <g id="line2d_25">
      <g>
       <use style="stroke:#000000;stroke-width:0.5;" x="171.075477" xlink:href="#m63f9317bd0" y="216.701554"/>
      </g>
     </g>
     <g id="line2d_26">
      <g>
       <use style="stroke:#000000;stroke-width:0.5;" x="171.075477" xlink:href="#mdba9686a41" y="22.661554"/>
      </g>
     </g>
    </g>
    <g id="xtick_12">
     <g id="line2d_27">
      <g>
       <use style="stroke:#000000;stroke-width:0.5;" x="184.69594" xlink:href="#m63f9317bd0" y="216.701554"/>
      </g>
     </g>
     <g id="line2d_28">
      <g>
       <use style="stroke:#000000;stroke-width:0.5;" x="184.69594" xlink:href="#mdba9686a41" y="22.661554"/>
      </g>
     </g>
    </g>
    <g id="xtick_13">
     <g id="line2d_29">
      <g>
       <use style="stroke:#000000;stroke-width:0.5;" x="211.936867" xlink:href="#m63f9317bd0" y="216.701554"/>
      </g>
     </g>
     <g id="line2d_30">
      <g>
       <use style="stroke:#000000;stroke-width:0.5;" x="211.936867" xlink:href="#mdba9686a41" y="22.661554"/>
      </g>
     </g>
    </g>
    <g id="xtick_14">
     <g id="line2d_31">
      <g>
       <use style="stroke:#000000;stroke-width:0.5;" x="225.557331" xlink:href="#m63f9317bd0" y="216.701554"/>
      </g>
     </g>
     <g id="line2d_32">
      <g>
       <use style="stroke:#000000;stroke-width:0.5;" x="225.557331" xlink:href="#mdba9686a41" y="22.661554"/>
      </g>
     </g>
    </g>
    <g id="xtick_15">
     <g id="line2d_33">
      <g>
       <use style="stroke:#000000;stroke-width:0.5;" x="239.177794" xlink:href="#m63f9317bd0" y="216.701554"/>
      </g>
     </g>
     <g id="line2d_34">
      <g>
       <use style="stroke:#000000;stroke-width:0.5;" x="239.177794" xlink:href="#mdba9686a41" y="22.661554"/>
      </g>
     </g>
    </g>
    <g id="xtick_16">
     <g id="line2d_35">
      <g>
       <use style="stroke:#000000;stroke-width:0.5;" x="252.798258" xlink:href="#m63f9317bd0" y="216.701554"/>
      </g>
     </g>
     <g id="line2d_36">
      <g>
       <use style="stroke:#000000;stroke-width:0.5;" x="252.798258" xlink:href="#mdba9686a41" y="22.661554"/>
      </g>
     </g>
    </g>
    <g id="xtick_17">
     <g id="line2d_37">
      <g>
       <use style="stroke:#000000;stroke-width:0.5;" x="280.039185" xlink:href="#m63f9317bd0" y="216.701554"/>
      </g>
     </g>
     <g id="line2d_38">
      <g>
       <use style="stroke:#000000;stroke-width:0.5;" x="280.039185" xlink:href="#mdba9686a41" y="22.661554"/>
      </g>
     </g>
    </g>
    <g id="xtick_18">
     <g id="line2d_39">
      <g>
       <use style="stroke:#000000;stroke-width:0.5;" x="293.659648" xlink:href="#m63f9317bd0" y="216.701554"/>
      </g>
     </g>
     <g id="line2d_40">
      <g>
       <use style="stroke:#000000;stroke-width:0.5;" x="293.659648" xlink:href="#mdba9686a41" y="22.661554"/>
      </g>
     </g>
    </g>
    <g id="xtick_19">
     <g id="line2d_41">
      <g>
       <use style="stroke:#000000;stroke-width:0.5;" x="307.280112" xlink:href="#m63f9317bd0" y="216.701554"/>
      </g>
     </g>
     <g id="line2d_42">
      <g>
       <use style="stroke:#000000;stroke-width:0.5;" x="307.280112" xlink:href="#mdba9686a41" y="22.661554"/>
      </g>
     </g>
    </g>
    <g id="xtick_20">
     <g id="line2d_43">
      <g>
       <use style="stroke:#000000;stroke-width:0.5;" x="320.900575" xlink:href="#m63f9317bd0" y="216.701554"/>
      </g>
     </g>
     <g id="line2d_44">
      <g>
       <use style="stroke:#000000;stroke-width:0.5;" x="320.900575" xlink:href="#mdba9686a41" y="22.661554"/>
      </g>
     </g>
    </g>
    <g id="text_5">
     <!-- $\mathrm{k} - \mathrm{k}_F$ [$\mathrm{\AA}^{-1}$] -->
     <defs>
      <path d="M 26.09375 26.234375 
C 26 26.4375 25.5 27.03125 25.5 27.328125 
C 25.5 27.53125 32.59375 33.984375 33.5 34.78125 
C 39.203125 39.5625 42.796875 40.046875 45.40625 40.15625 
L 45.40625 42.734375 
C 44.796875 42.734375 44.59375 42.734375 44.5 42.640625 
L 39.59375 42.53125 
C 36.796875 42.53125 32.5 42.53125 29.796875 42.734375 
L 29.796875 40.15625 
C 31.203125 40.046875 32.203125 39.265625 32.203125 37.859375 
C 32.203125 35.875 30.203125 33.984375 30.09375 33.984375 
L 15 20.28125 
L 15 69 
L 3.09375 67.890625 
L 3.09375 65.296875 
C 9 65.296875 9.90625 64.703125 9.90625 59.921875 
L 9.90625 6.859375 
C 9.90625 3.09375 9.5 2.59375 3.09375 2.59375 
L 3.09375 0 
C 5.5 0.1875 9.90625 0.1875 12.40625 0.1875 
C 14.90625 0.1875 19.296875 0.1875 21.703125 0 
L 21.703125 2.59375 
C 15.296875 2.59375 14.90625 2.984375 14.90625 6.859375 
L 14.90625 17.796875 
L 21.796875 24.0625 
L 31.90625 9.15625 
C 33.09375 7.359375 34.09375 5.96875 34.09375 4.671875 
C 34.09375 2.890625 32.296875 2.59375 31.09375 2.59375 
L 31.09375 0 
C 33.5 0.1875 37.796875 0.1875 40.296875 0.1875 
C 42.09375 0.1875 45.796875 0.09375 47.5 0 
L 47.5 2.59375 
C 42.796875 2.59375 41.703125 3.484375 38.703125 7.859375 
z
" id="CMR17-107"/>
      <path d="M 65.90625 23 
C 67.59375 23 69.40625 23 69.40625 25 
C 69.40625 27 67.59375 27 65.90625 27 
L 11.796875 27 
C 10.09375 27 8.296875 27 8.296875 25 
C 8.296875 23 10.09375 23 11.796875 23 
z
" id="CMSY10-0"/>
      <path d="M 29.703125 32.09375 
L 39.296875 32.09375 
C 46.90625 32.09375 47.5 30.421875 47.5 27.5625 
C 47.5 26.296875 47.296875 24.921875 46.796875 22.75 
C 46.59375 22.359375 46.5 21.859375 46.5 21.671875 
C 46.5 20.984375 46.90625 20.59375 47.59375 20.59375 
C 48.40625 20.59375 48.5 20.984375 48.90625 22.5625 
L 54.703125 45.765625 
C 54.703125 46.171875 54.40625 46.765625 53.703125 46.765625 
C 52.796875 46.765625 52.703125 46.375 52.296875 44.65625 
C 50.203125 37.109375 48.203125 35 39.5 35 
L 30.40625 35 
L 36.90625 61.0625 
C 37.796875 64.59375 38 64.890625 42.09375 64.890625 
L 55.5 64.890625 
C 68 64.890625 69.796875 61.171875 69.796875 54.015625 
C 69.796875 53.421875 69.796875 51.203125 69.5 48.578125 
C 69.40625 48.1875 69.203125 46.875 69.203125 46.46875 
C 69.203125 45.65625 69.703125 45.359375 70.296875 45.359375 
C 71 45.359375 71.40625 45.765625 71.59375 47.578125 
L 73.703125 65.1875 
C 73.703125 65.484375 73.90625 66.484375 73.90625 66.6875 
C 73.90625 67.796875 73 67.796875 71.203125 67.796875 
L 23.796875 67.796875 
C 21.90625 67.796875 20.90625 67.796875 20.90625 65.984375 
C 20.90625 64.890625 21.59375 64.890625 23.296875 64.890625 
C 29.5 64.890625 29.5 64.1875 29.5 63.078125 
C 29.5 62.578125 29.40625 62.171875 29.09375 61.0625 
L 15.59375 7.3125 
C 14.703125 3.875 14.5 2.890625 7.5 2.890625 
C 5.59375 2.890625 4.59375 2.890625 4.59375 1.09375 
C 4.59375 0 5.5 0 6.09375 0 
C 8 0 10 0.1875 11.90625 0.1875 
L 24.90625 0.1875 
C 27.09375 0.1875 29.5 0 31.703125 0 
C 32.59375 0 33.796875 0 33.796875 1.796875 
C 33.796875 2.890625 33.203125 2.890625 31 2.890625 
C 23.09375 2.890625 22.90625 3.578125 22.90625 5.0625 
C 22.90625 5.546875 23.09375 6.328125 23.296875 7.015625 
z
" id="CMMI12-70"/>
      <path d="M 23.5 -25 
L 23.5 -21.5 
L 14.09375 -21.5 
L 14.09375 71.484375 
L 23.5 71.484375 
L 23.5 75 
L 10.59375 75 
L 10.59375 -25 
z
" id="CMR17-91"/>
      <path d="M 43.296875 62.1875 
C 43.296875 67.1875 39.296875 71 34.59375 71 
C 29.90625 71 25.90625 67.1875 25.90625 62.1875 
C 25.90625 57.1875 29.90625 53.390625 34.59375 53.390625 
C 39.296875 53.390625 43.296875 57.1875 43.296875 62.1875 
z
M 34.59375 55 
C 30.40625 55 27.703125 57.59375 27.703125 62.1875 
C 27.703125 66.890625 30.5 69.390625 34.59375 69.390625 
C 38.796875 69.390625 41.5 66.796875 41.5 62.1875 
C 41.5 57.5 38.703125 55 34.59375 55 
z
" id="CMR17-23"/>
      <path d="M 36.296875 69.390625 
C 35.796875 70.6875 35.59375 71 34.59375 71 
C 33.59375 71 33.40625 70.6875 32.90625 69.390625 
L 11.703125 9.0625 
C 9.796875 3.6875 5.796875 2.59375 2.296875 2.59375 
L 2.296875 0 
C 4.09375 0.1875 8.09375 0.1875 10 0.1875 
C 12.5 0.1875 16.5 0.1875 18.90625 0 
L 18.90625 2.59375 
C 14.203125 2.796875 13.5 5.96875 13.5 7.171875 
C 13.5 8.0625 13.703125 8.5625 13.90625 9.15625 
L 19.203125 24 
L 45.40625 24 
L 51.40625 7.078125 
C 51.90625 5.875 51.90625 5.671875 51.90625 5.28125 
C 51.90625 2.59375 47.59375 2.59375 45.703125 2.59375 
L 45.703125 0 
C 48.59375 0.1875 53.796875 0.1875 56.90625 0.1875 
C 59.5 0.1875 64.5 0.1875 66.90625 0 
L 66.90625 2.59375 
C 61.59375 2.59375 59.796875 2.59375 58.5 6.28125 
z
M 32.296875 61.3125 
L 44.5 26.59375 
L 20.09375 26.59375 
z
" id="CMR17-65"/>
      <path d="M 14.296875 75 
L 1.40625 75 
L 1.40625 71.484375 
L 10.796875 71.484375 
L 10.796875 -21.5 
L 1.40625 -21.5 
L 1.40625 -25 
L 14.296875 -25 
z
" id="CMR17-93"/>
     </defs>
     <g transform="translate(160.413777 247.889883)scale(0.12 -0.12)">
      <use transform="translate(0 14.943915)scale(0.996264)" xlink:href="#CMR17-107"/>
      <use transform="translate(70.432123 14.943915)scale(0.996264)" xlink:href="#CMSY10-0"/>
      <use transform="translate(170.058797 14.943915)scale(0.996264)" xlink:href="#CMR17-107"/>
      <use transform="translate(218.351713 0)scale(0.697382)" xlink:href="#CMMI12-70"/>
      <use transform="translate(302.613323 14.943915)scale(0.996264)" xlink:href="#CMR17-91"/>
      <use transform="translate(327.484382 32.562659)scale(0.996264)" xlink:href="#CMR17-23"/>
      <use transform="translate(327.484382 14.943915)scale(0.996264)" xlink:href="#CMR17-65"/>
      <use transform="translate(396.556811 74.821181)scale(0.697382)" xlink:href="#CMSY10-0"/>
      <use transform="translate(450.797805 74.821181)scale(0.697382)" xlink:href="#CMR17-49"/>
      <use transform="translate(483.279119 14.943915)scale(0.996264)" xlink:href="#CMR17-93"/>
     </g>
    </g>
   </g>
   <g id="matplotlib.axis_2">
    <g id="ytick_1">
     <g id="line2d_45">
      <path clip-path="url(#p842347f63b)" d="M 53.16429 198.358598 
L 332.16429 198.358598 
" style="fill:none;stroke:#b0b0b0;stroke-linecap:square;stroke-width:0.5;"/>
     </g>
     <g id="line2d_46">
      <defs>
       <path d="M 0 0 
L 3 0 
" id="mef43e4ae70" style="stroke:#000000;stroke-width:0.5;"/>
      </defs>
      <g>
       <use style="stroke:#000000;stroke-width:0.5;" x="53.16429" xlink:href="#mef43e4ae70" y="198.358598"/>
      </g>
     </g>
     <g id="line2d_47">
      <defs>
       <path d="M 0 0 
L -3 0 
" id="md0ac31d2e2" style="stroke:#000000;stroke-width:0.5;"/>
      </defs>
      <g>
       <use style="stroke:#000000;stroke-width:0.5;" x="332.16429" xlink:href="#md0ac31d2e2" y="198.358598"/>
      </g>
     </g>
     <g id="text_6">
      <!-- $-0.30$ -->
      <defs>
       <path d="M 22.09375 34 
C 31 34 34.90625 26.140625 34.90625 17.09375 
C 34.90625 5.03125 28.5 0.390625 22.703125 0.390625 
C 17.40625 0.390625 8.796875 3.015625 6.09375 10.796875 
C 6.59375 10.59375 7.09375 10.59375 7.59375 10.59375 
C 10 10.59375 11.796875 12.1875 11.796875 14.796875 
C 11.796875 17.6875 9.59375 19 7.59375 19 
C 5.90625 19 3.296875 18.1875 3.296875 14.484375 
C 3.296875 5.234375 12.296875 -2 22.90625 -2 
C 34 -2 42.5 6.75 42.5 16.984375 
C 42.5 26.84375 34.5 34 25 35.09375 
C 32.59375 36.671875 39.90625 43.375 39.90625 52.390625 
C 39.90625 60.25 32 66 23 66 
C 13.90625 66 5.90625 60.34375 5.90625 52.296875 
C 5.90625 48.796875 8.5 48.1875 9.796875 48.1875 
C 11.90625 48.1875 13.703125 49.484375 13.703125 52.09375 
C 13.703125 54.6875 11.90625 56 9.796875 56 
C 9.40625 56 8.90625 56 8.5 55.796875 
C 11.40625 62.484375 19.296875 63.6875 22.796875 63.6875 
C 26.296875 63.6875 32.90625 61.96875 32.90625 52.296875 
C 32.90625 49.484375 32.5 44.546875 29.09375 40.21875 
C 26.09375 36.390625 22.703125 36.1875 19.40625 35.890625 
C 18.90625 35.890625 16.59375 35.6875 16.203125 35.6875 
C 15.5 35.59375 15.09375 35.5 15.09375 34.796875 
C 15.09375 34.09375 15.203125 34 17.203125 34 
z
" id="CMR17-51"/>
      </defs>
      <g transform="translate(19.555168 202.509688)scale(0.12 -0.12)">
       <use transform="scale(0.996264)" xlink:href="#CMSY10-0"/>
       <use transform="translate(77.487468 0)scale(0.996264)" xlink:href="#CMR17-48"/>
       <use transform="translate(123.177945 0)scale(0.996264)" xlink:href="#CMMI12-58"/>
       <use transform="translate(150.275122 0)scale(0.996264)" xlink:href="#CMR17-51"/>
       <use transform="translate(195.965599 0)scale(0.996264)" xlink:href="#CMR17-48"/>
      </g>
     </g>
    </g>
    <g id="ytick_2">
     <g id="line2d_48">
      <path clip-path="url(#p842347f63b)" d="M 53.16429 169.972356 
L 332.16429 169.972356 
" style="fill:none;stroke:#b0b0b0;stroke-linecap:square;stroke-width:0.5;"/>
     </g>
     <g id="line2d_49">
      <g>
       <use style="stroke:#000000;stroke-width:0.5;" x="53.16429" xlink:href="#mef43e4ae70" y="169.972356"/>
      </g>
     </g>
     <g id="line2d_50">
      <g>
       <use style="stroke:#000000;stroke-width:0.5;" x="332.16429" xlink:href="#md0ac31d2e2" y="169.972356"/>
      </g>
     </g>
     <g id="text_7">
      <!-- $-0.25$ -->
      <defs>
       <path d="M 41.703125 15.46875 
L 39.90625 15.46875 
C 38.90625 8.390625 38.09375 7.1875 37.703125 6.59375 
C 37.203125 5.796875 30 5.796875 28.59375 5.796875 
L 9.40625 5.796875 
C 13 9.6875 20 16.765625 28.5 24.9375 
C 34.59375 30.71875 41.703125 37.5 41.703125 47.390625 
C 41.703125 59.1875 32.296875 66 21.796875 66 
C 10.796875 66 4.09375 56.296875 4.09375 47.296875 
C 4.09375 43.390625 7 42.890625 8.203125 42.890625 
C 9.203125 42.890625 12.203125 43.484375 12.203125 46.984375 
C 12.203125 50.09375 9.59375 51 8.203125 51 
C 7.59375 51 7 50.890625 6.59375 50.6875 
C 8.5 59.1875 14.296875 63.390625 20.40625 63.390625 
C 29.09375 63.390625 34.796875 56.5 34.796875 47.390625 
C 34.796875 38.703125 29.703125 31.21875 24 24.734375 
L 4.09375 2.296875 
L 4.09375 0 
L 39.296875 0 
z
" id="CMR17-50"/>
      </defs>
      <g transform="translate(19.555168 174.123445)scale(0.12 -0.12)">
       <use transform="scale(0.996264)" xlink:href="#CMSY10-0"/>
       <use transform="translate(77.487468 0)scale(0.996264)" xlink:href="#CMR17-48"/>
       <use transform="translate(123.177945 0)scale(0.996264)" xlink:href="#CMMI12-58"/>
       <use transform="translate(150.275122 0)scale(0.996264)" xlink:href="#CMR17-50"/>
       <use transform="translate(195.965599 0)scale(0.996264)" xlink:href="#CMR17-53"/>
      </g>
     </g>
    </g>
    <g id="ytick_3">
     <g id="line2d_51">
      <path clip-path="url(#p842347f63b)" d="M 53.16429 141.586113 
L 332.16429 141.586113 
" style="fill:none;stroke:#b0b0b0;stroke-linecap:square;stroke-width:0.5;"/>
     </g>
     <g id="line2d_52">
      <g>
       <use style="stroke:#000000;stroke-width:0.5;" x="53.16429" xlink:href="#mef43e4ae70" y="141.586113"/>
      </g>
     </g>
     <g id="line2d_53">
      <g>
       <use style="stroke:#000000;stroke-width:0.5;" x="332.16429" xlink:href="#md0ac31d2e2" y="141.586113"/>
      </g>
     </g>
     <g id="text_8">
      <!-- $-0.20$ -->
      <g transform="translate(19.555168 145.737203)scale(0.12 -0.12)">
       <use transform="scale(0.996264)" xlink:href="#CMSY10-0"/>
       <use transform="translate(77.487468 0)scale(0.996264)" xlink:href="#CMR17-48"/>
       <use transform="translate(123.177945 0)scale(0.996264)" xlink:href="#CMMI12-58"/>
       <use transform="translate(150.275122 0)scale(0.996264)" xlink:href="#CMR17-50"/>
       <use transform="translate(195.965599 0)scale(0.996264)" xlink:href="#CMR17-48"/>
      </g>
     </g>
    </g>
    <g id="ytick_4">
     <g id="line2d_54">
      <path clip-path="url(#p842347f63b)" d="M 53.16429 113.19987 
L 332.16429 113.19987 
" style="fill:none;stroke:#b0b0b0;stroke-linecap:square;stroke-width:0.5;"/>
     </g>
     <g id="line2d_55">
      <g>
       <use style="stroke:#000000;stroke-width:0.5;" x="53.16429" xlink:href="#mef43e4ae70" y="113.19987"/>
      </g>
     </g>
     <g id="line2d_56">
      <g>
       <use style="stroke:#000000;stroke-width:0.5;" x="332.16429" xlink:href="#md0ac31d2e2" y="113.19987"/>
      </g>
     </g>
     <g id="text_9">
      <!-- $-0.15$ -->
      <g transform="translate(19.555168 117.35096)scale(0.12 -0.12)">
       <use transform="scale(0.996264)" xlink:href="#CMSY10-0"/>
       <use transform="translate(77.487468 0)scale(0.996264)" xlink:href="#CMR17-48"/>
       <use transform="translate(123.177945 0)scale(0.996264)" xlink:href="#CMMI12-58"/>
       <use transform="translate(150.275122 0)scale(0.996264)" xlink:href="#CMR17-49"/>
       <use transform="translate(195.965599 0)scale(0.996264)" xlink:href="#CMR17-53"/>
      </g>
     </g>
    </g>
    <g id="ytick_5">
     <g id="line2d_57">
      <path clip-path="url(#p842347f63b)" d="M 53.16429 84.813627 
L 332.16429 84.813627 
" style="fill:none;stroke:#b0b0b0;stroke-linecap:square;stroke-width:0.5;"/>
     </g>
     <g id="line2d_58">
      <g>
       <use style="stroke:#000000;stroke-width:0.5;" x="53.16429" xlink:href="#mef43e4ae70" y="84.813627"/>
      </g>
     </g>
     <g id="line2d_59">
      <g>
       <use style="stroke:#000000;stroke-width:0.5;" x="332.16429" xlink:href="#md0ac31d2e2" y="84.813627"/>
      </g>
     </g>
     <g id="text_10">
      <!-- $-0.10$ -->
      <g transform="translate(19.555168 88.964717)scale(0.12 -0.12)">
       <use transform="scale(0.996264)" xlink:href="#CMSY10-0"/>
       <use transform="translate(77.487468 0)scale(0.996264)" xlink:href="#CMR17-48"/>
       <use transform="translate(123.177945 0)scale(0.996264)" xlink:href="#CMMI12-58"/>
       <use transform="translate(150.275122 0)scale(0.996264)" xlink:href="#CMR17-49"/>
       <use transform="translate(195.965599 0)scale(0.996264)" xlink:href="#CMR17-48"/>
      </g>
     </g>
    </g>
    <g id="ytick_6">
     <g id="line2d_60">
      <path clip-path="url(#p842347f63b)" d="M 53.16429 56.427384 
L 332.16429 56.427384 
" style="fill:none;stroke:#b0b0b0;stroke-linecap:square;stroke-width:0.5;"/>
     </g>
     <g id="line2d_61">
      <g>
       <use style="stroke:#000000;stroke-width:0.5;" x="53.16429" xlink:href="#mef43e4ae70" y="56.427384"/>
      </g>
     </g>
     <g id="line2d_62">
      <g>
       <use style="stroke:#000000;stroke-width:0.5;" x="332.16429" xlink:href="#md0ac31d2e2" y="56.427384"/>
      </g>
     </g>
     <g id="text_11">
      <!-- $-0.05$ -->
      <g transform="translate(19.555168 60.578474)scale(0.12 -0.12)">
       <use transform="scale(0.996264)" xlink:href="#CMSY10-0"/>
       <use transform="translate(77.487468 0)scale(0.996264)" xlink:href="#CMR17-48"/>
       <use transform="translate(123.177945 0)scale(0.996264)" xlink:href="#CMMI12-58"/>
       <use transform="translate(150.275122 0)scale(0.996264)" xlink:href="#CMR17-48"/>
       <use transform="translate(195.965599 0)scale(0.996264)" xlink:href="#CMR17-53"/>
      </g>
     </g>
    </g>
    <g id="ytick_7">
     <g id="line2d_63">
      <path clip-path="url(#p842347f63b)" d="M 53.16429 28.041141 
L 332.16429 28.041141 
" style="fill:none;stroke:#b0b0b0;stroke-linecap:square;stroke-width:0.5;"/>
     </g>
     <g id="line2d_64">
      <g>
       <use style="stroke:#000000;stroke-width:0.5;" x="53.16429" xlink:href="#mef43e4ae70" y="28.041141"/>
      </g>
     </g>
     <g id="line2d_65">
      <g>
       <use style="stroke:#000000;stroke-width:0.5;" x="332.16429" xlink:href="#md0ac31d2e2" y="28.041141"/>
      </g>
     </g>
     <g id="text_12">
      <!-- $0.00$ -->
      <g transform="translate(28.853658 32.192231)scale(0.12 -0.12)">
       <use transform="scale(0.996264)" xlink:href="#CMR17-48"/>
       <use transform="translate(45.690477 0)scale(0.996264)" xlink:href="#CMMI12-58"/>
       <use transform="translate(72.787654 0)scale(0.996264)" xlink:href="#CMR17-48"/>
       <use transform="translate(118.478131 0)scale(0.996264)" xlink:href="#CMR17-48"/>
      </g>
     </g>
    </g>
    <g id="ytick_8">
     <g id="line2d_66">
      <defs>
       <path d="M 0 0 
L 1.5 0 
" id="ma573b7b9a1" style="stroke:#000000;stroke-width:0.5;"/>
      </defs>
      <g>
       <use style="stroke:#000000;stroke-width:0.5;" x="53.16429" xlink:href="#ma573b7b9a1" y="215.390344"/>
      </g>
     </g>
     <g id="line2d_67">
      <defs>
       <path d="M 0 0 
L -1.5 0 
" id="m29686de72b" style="stroke:#000000;stroke-width:0.5;"/>
      </defs>
      <g>
       <use style="stroke:#000000;stroke-width:0.5;" x="332.16429" xlink:href="#m29686de72b" y="215.390344"/>
      </g>
     </g>
    </g>
    <g id="ytick_9">
     <g id="line2d_68">
      <g>
       <use style="stroke:#000000;stroke-width:0.5;" x="53.16429" xlink:href="#ma573b7b9a1" y="209.713096"/>
      </g>
     </g>
     <g id="line2d_69">
      <g>
       <use style="stroke:#000000;stroke-width:0.5;" x="332.16429" xlink:href="#m29686de72b" y="209.713096"/>
      </g>
     </g>
    </g>
    <g id="ytick_10">
     <g id="line2d_70">
      <g>
       <use style="stroke:#000000;stroke-width:0.5;" x="53.16429" xlink:href="#ma573b7b9a1" y="204.035847"/>
      </g>
     </g>
     <g id="line2d_71">
      <g>
       <use style="stroke:#000000;stroke-width:0.5;" x="332.16429" xlink:href="#m29686de72b" y="204.035847"/>
      </g>
     </g>
    </g>
    <g id="ytick_11">
     <g id="line2d_72">
      <g>
       <use style="stroke:#000000;stroke-width:0.5;" x="53.16429" xlink:href="#ma573b7b9a1" y="192.68135"/>
      </g>
     </g>
     <g id="line2d_73">
      <g>
       <use style="stroke:#000000;stroke-width:0.5;" x="332.16429" xlink:href="#m29686de72b" y="192.68135"/>
      </g>
     </g>
    </g>
    <g id="ytick_12">
     <g id="line2d_74">
      <g>
       <use style="stroke:#000000;stroke-width:0.5;" x="53.16429" xlink:href="#ma573b7b9a1" y="187.004101"/>
      </g>
     </g>
     <g id="line2d_75">
      <g>
       <use style="stroke:#000000;stroke-width:0.5;" x="332.16429" xlink:href="#m29686de72b" y="187.004101"/>
      </g>
     </g>
    </g>
    <g id="ytick_13">
     <g id="line2d_76">
      <g>
       <use style="stroke:#000000;stroke-width:0.5;" x="53.16429" xlink:href="#ma573b7b9a1" y="181.326853"/>
      </g>
     </g>
     <g id="line2d_77">
      <g>
       <use style="stroke:#000000;stroke-width:0.5;" x="332.16429" xlink:href="#m29686de72b" y="181.326853"/>
      </g>
     </g>
    </g>
    <g id="ytick_14">
     <g id="line2d_78">
      <g>
       <use style="stroke:#000000;stroke-width:0.5;" x="53.16429" xlink:href="#ma573b7b9a1" y="175.649604"/>
      </g>
     </g>
     <g id="line2d_79">
      <g>
       <use style="stroke:#000000;stroke-width:0.5;" x="332.16429" xlink:href="#m29686de72b" y="175.649604"/>
      </g>
     </g>
    </g>
    <g id="ytick_15">
     <g id="line2d_80">
      <g>
       <use style="stroke:#000000;stroke-width:0.5;" x="53.16429" xlink:href="#ma573b7b9a1" y="164.295107"/>
      </g>
     </g>
     <g id="line2d_81">
      <g>
       <use style="stroke:#000000;stroke-width:0.5;" x="332.16429" xlink:href="#m29686de72b" y="164.295107"/>
      </g>
     </g>
    </g>
    <g id="ytick_16">
     <g id="line2d_82">
      <g>
       <use style="stroke:#000000;stroke-width:0.5;" x="53.16429" xlink:href="#ma573b7b9a1" y="158.617858"/>
      </g>
     </g>
     <g id="line2d_83">
      <g>
       <use style="stroke:#000000;stroke-width:0.5;" x="332.16429" xlink:href="#m29686de72b" y="158.617858"/>
      </g>
     </g>
    </g>
    <g id="ytick_17">
     <g id="line2d_84">
      <g>
       <use style="stroke:#000000;stroke-width:0.5;" x="53.16429" xlink:href="#ma573b7b9a1" y="152.94061"/>
      </g>
     </g>
     <g id="line2d_85">
      <g>
       <use style="stroke:#000000;stroke-width:0.5;" x="332.16429" xlink:href="#m29686de72b" y="152.94061"/>
      </g>
     </g>
    </g>
    <g id="ytick_18">
     <g id="line2d_86">
      <g>
       <use style="stroke:#000000;stroke-width:0.5;" x="53.16429" xlink:href="#ma573b7b9a1" y="147.263361"/>
      </g>
     </g>
     <g id="line2d_87">
      <g>
       <use style="stroke:#000000;stroke-width:0.5;" x="332.16429" xlink:href="#m29686de72b" y="147.263361"/>
      </g>
     </g>
    </g>
    <g id="ytick_19">
     <g id="line2d_88">
      <g>
       <use style="stroke:#000000;stroke-width:0.5;" x="53.16429" xlink:href="#ma573b7b9a1" y="135.908864"/>
      </g>
     </g>
     <g id="line2d_89">
      <g>
       <use style="stroke:#000000;stroke-width:0.5;" x="332.16429" xlink:href="#m29686de72b" y="135.908864"/>
      </g>
     </g>
    </g>
    <g id="ytick_20">
     <g id="line2d_90">
      <g>
       <use style="stroke:#000000;stroke-width:0.5;" x="53.16429" xlink:href="#ma573b7b9a1" y="130.231616"/>
      </g>
     </g>
     <g id="line2d_91">
      <g>
       <use style="stroke:#000000;stroke-width:0.5;" x="332.16429" xlink:href="#m29686de72b" y="130.231616"/>
      </g>
     </g>
    </g>
    <g id="ytick_21">
     <g id="line2d_92">
      <g>
       <use style="stroke:#000000;stroke-width:0.5;" x="53.16429" xlink:href="#ma573b7b9a1" y="124.554367"/>
      </g>
     </g>
     <g id="line2d_93">
      <g>
       <use style="stroke:#000000;stroke-width:0.5;" x="332.16429" xlink:href="#m29686de72b" y="124.554367"/>
      </g>
     </g>
    </g>
    <g id="ytick_22">
     <g id="line2d_94">
      <g>
       <use style="stroke:#000000;stroke-width:0.5;" x="53.16429" xlink:href="#ma573b7b9a1" y="118.877118"/>
      </g>
     </g>
     <g id="line2d_95">
      <g>
       <use style="stroke:#000000;stroke-width:0.5;" x="332.16429" xlink:href="#m29686de72b" y="118.877118"/>
      </g>
     </g>
    </g>
    <g id="ytick_23">
     <g id="line2d_96">
      <g>
       <use style="stroke:#000000;stroke-width:0.5;" x="53.16429" xlink:href="#ma573b7b9a1" y="107.522621"/>
      </g>
     </g>
     <g id="line2d_97">
      <g>
       <use style="stroke:#000000;stroke-width:0.5;" x="332.16429" xlink:href="#m29686de72b" y="107.522621"/>
      </g>
     </g>
    </g>
    <g id="ytick_24">
     <g id="line2d_98">
      <g>
       <use style="stroke:#000000;stroke-width:0.5;" x="53.16429" xlink:href="#ma573b7b9a1" y="101.845373"/>
      </g>
     </g>
     <g id="line2d_99">
      <g>
       <use style="stroke:#000000;stroke-width:0.5;" x="332.16429" xlink:href="#m29686de72b" y="101.845373"/>
      </g>
     </g>
    </g>
    <g id="ytick_25">
     <g id="line2d_100">
      <g>
       <use style="stroke:#000000;stroke-width:0.5;" x="53.16429" xlink:href="#ma573b7b9a1" y="96.168124"/>
      </g>
     </g>
     <g id="line2d_101">
      <g>
       <use style="stroke:#000000;stroke-width:0.5;" x="332.16429" xlink:href="#m29686de72b" y="96.168124"/>
      </g>
     </g>
    </g>
    <g id="ytick_26">
     <g id="line2d_102">
      <g>
       <use style="stroke:#000000;stroke-width:0.5;" x="53.16429" xlink:href="#ma573b7b9a1" y="90.490876"/>
      </g>
     </g>
     <g id="line2d_103">
      <g>
       <use style="stroke:#000000;stroke-width:0.5;" x="332.16429" xlink:href="#m29686de72b" y="90.490876"/>
      </g>
     </g>
    </g>
    <g id="ytick_27">
     <g id="line2d_104">
      <g>
       <use style="stroke:#000000;stroke-width:0.5;" x="53.16429" xlink:href="#ma573b7b9a1" y="79.136378"/>
      </g>
     </g>
     <g id="line2d_105">
      <g>
       <use style="stroke:#000000;stroke-width:0.5;" x="332.16429" xlink:href="#m29686de72b" y="79.136378"/>
      </g>
     </g>
    </g>
    <g id="ytick_28">
     <g id="line2d_106">
      <g>
       <use style="stroke:#000000;stroke-width:0.5;" x="53.16429" xlink:href="#ma573b7b9a1" y="73.45913"/>
      </g>
     </g>
     <g id="line2d_107">
      <g>
       <use style="stroke:#000000;stroke-width:0.5;" x="332.16429" xlink:href="#m29686de72b" y="73.45913"/>
      </g>
     </g>
    </g>
    <g id="ytick_29">
     <g id="line2d_108">
      <g>
       <use style="stroke:#000000;stroke-width:0.5;" x="53.16429" xlink:href="#ma573b7b9a1" y="67.781881"/>
      </g>
     </g>
     <g id="line2d_109">
      <g>
       <use style="stroke:#000000;stroke-width:0.5;" x="332.16429" xlink:href="#m29686de72b" y="67.781881"/>
      </g>
     </g>
    </g>
    <g id="ytick_30">
     <g id="line2d_110">
      <g>
       <use style="stroke:#000000;stroke-width:0.5;" x="53.16429" xlink:href="#ma573b7b9a1" y="62.104633"/>
      </g>
     </g>
     <g id="line2d_111">
      <g>
       <use style="stroke:#000000;stroke-width:0.5;" x="332.16429" xlink:href="#m29686de72b" y="62.104633"/>
      </g>
     </g>
    </g>
    <g id="ytick_31">
     <g id="line2d_112">
      <g>
       <use style="stroke:#000000;stroke-width:0.5;" x="53.16429" xlink:href="#ma573b7b9a1" y="50.750136"/>
      </g>
     </g>
     <g id="line2d_113">
      <g>
       <use style="stroke:#000000;stroke-width:0.5;" x="332.16429" xlink:href="#m29686de72b" y="50.750136"/>
      </g>
     </g>
    </g>
    <g id="ytick_32">
     <g id="line2d_114">
      <g>
       <use style="stroke:#000000;stroke-width:0.5;" x="53.16429" xlink:href="#ma573b7b9a1" y="45.072887"/>
      </g>
     </g>
     <g id="line2d_115">
      <g>
       <use style="stroke:#000000;stroke-width:0.5;" x="332.16429" xlink:href="#m29686de72b" y="45.072887"/>
      </g>
     </g>
    </g>
    <g id="ytick_33">
     <g id="line2d_116">
      <g>
       <use style="stroke:#000000;stroke-width:0.5;" x="53.16429" xlink:href="#ma573b7b9a1" y="39.395638"/>
      </g>
     </g>
     <g id="line2d_117">
      <g>
       <use style="stroke:#000000;stroke-width:0.5;" x="332.16429" xlink:href="#m29686de72b" y="39.395638"/>
      </g>
     </g>
    </g>
    <g id="ytick_34">
     <g id="line2d_118">
      <g>
       <use style="stroke:#000000;stroke-width:0.5;" x="53.16429" xlink:href="#ma573b7b9a1" y="33.71839"/>
      </g>
     </g>
     <g id="line2d_119">
      <g>
       <use style="stroke:#000000;stroke-width:0.5;" x="332.16429" xlink:href="#m29686de72b" y="33.71839"/>
      </g>
     </g>
    </g>
    <g id="text_13">
     <!-- $\mathrm{E} - \mathrm{E}_F$ [eV] -->
     <defs>
      <path d="M 60.703125 25.21875 
L 58.90625 25.21875 
C 56.703125 10.5625 55.40625 2.59375 37.796875 2.59375 
L 23.90625 2.59375 
C 19.90625 2.59375 19.703125 3.09375 19.703125 6.484375 
L 19.703125 34 
L 29.09375 34 
C 38.5 34 39.40625 30.609375 39.40625 22.328125 
L 41.203125 22.328125 
L 41.203125 48.21875 
L 39.40625 48.21875 
C 39.40625 39.96875 38.5 36.59375 29.09375 36.59375 
L 19.703125 36.59375 
L 19.703125 61.3125 
C 19.703125 64.703125 19.90625 65.1875 23.90625 65.1875 
L 37.59375 65.1875 
C 53.09375 65.1875 54.90625 59.03125 56.296875 45.828125 
L 58.09375 45.828125 
L 55.703125 67.796875 
L 5.09375 67.796875 
L 5.09375 65.1875 
C 12 65.1875 13.09375 65.1875 13.09375 60.71875 
L 13.09375 7.078125 
C 13.09375 2.59375 12 2.59375 5.09375 2.59375 
L 5.09375 0 
L 57.09375 0 
z
" id="CMR17-69"/>
      <path d="M 38.09375 23.484375 
C 38.5 23.890625 38.5 24.09375 38.5 25.09375 
C 38.5 35.171875 33.09375 44 21.703125 44 
C 11.09375 44 2.703125 33.984375 2.703125 21.78125 
C 2.703125 8.65625 12.203125 -1 22.796875 -1 
C 34 -1 38.40625 9.671875 38.40625 11.796875 
C 38.40625 12.5 37.796875 12.5 37.59375 12.5 
C 36.90625 12.5 36.796875 12.296875 36.40625 11.078125 
C 34.203125 4.21875 28.703125 0.796875 23.5 0.796875 
C 19.203125 0.796875 14.90625 3.21875 12.203125 7.65625 
C 9.09375 12.796875 9.09375 18.75 9.09375 23.484375 
z
M 9.203125 25 
C 9.90625 39.234375 17.59375 42.390625 21.59375 42.390625 
C 28.40625 42.390625 33 36.0625 33.09375 25 
z
" id="CMR17-101"/>
      <path d="M 59 58.78125 
C 59.90625 60.984375 61.5 65.296875 68.203125 65.390625 
L 68.203125 68 
C 65.90625 67.796875 63.296875 67.796875 60.796875 67.796875 
C 58.40625 67.796875 54.296875 67.796875 52 68 
L 52 65.390625 
C 57 65.09375 57.203125 61.59375 57.203125 60.984375 
C 57.203125 59.890625 56.90625 59.1875 56.59375 58.390625 
L 36.90625 7 
L 16.296875 60.984375 
C 16 61.6875 15.796875 62.1875 15.796875 62.6875 
C 15.796875 65.390625 19.796875 65.390625 21.90625 65.390625 
L 21.90625 68 
C 18.703125 67.796875 14 67.796875 10.703125 67.796875 
C 8.09375 67.796875 3.40625 67.796875 1 68 
L 1 65.390625 
C 6.796875 65.390625 7.90625 65 9.09375 61.796875 
L 32.90625 -0.40625 
C 33.40625 -1.8125 33.5 -2 34.59375 -2 
C 35.703125 -2 35.796875 -1.8125 36.296875 -0.40625 
z
" id="CMR17-86"/>
     </defs>
     <g transform="translate(13.230572 150.660331)rotate(-90)scale(0.12 -0.12)">
      <use transform="translate(0 14.943915)scale(0.996264)" xlink:href="#CMR17-69"/>
      <use transform="translate(84.725507 14.943915)scale(0.996264)" xlink:href="#CMSY10-0"/>
      <use transform="translate(184.352182 14.943915)scale(0.996264)" xlink:href="#CMR17-69"/>
      <use transform="translate(246.938483 0)scale(0.697382)" xlink:href="#CMMI12-70"/>
      <use transform="translate(331.200093 14.943915)scale(0.996264)" xlink:href="#CMR17-91"/>
      <use transform="translate(356.071151 14.943915)scale(0.996264)" xlink:href="#CMR17-101"/>
      <use transform="translate(396.556811 14.943915)scale(0.996264)" xlink:href="#CMR17-86"/>
      <use transform="translate(465.629241 14.943915)scale(0.996264)" xlink:href="#CMR17-93"/>
     </g>
    </g>
   </g>
   <g id="line2d_120">
    <defs>
     <path d="M 0 3 
C 0.795609 3 1.55874 2.683901 2.12132 2.12132 
C 2.683901 1.55874 3 0.795609 3 0 
C 3 -0.795609 2.683901 -1.55874 2.12132 -2.12132 
C 1.55874 -2.683901 0.795609 -3 0 -3 
C -0.795609 -3 -1.55874 -2.683901 -2.12132 -2.12132 
C -2.683901 -1.55874 -3 -0.795609 -3 0 
C -3 0.795609 -2.683901 1.55874 -2.12132 2.12132 
C -1.55874 2.683901 -0.795609 3 0 3 
z
" id="mf558c3f573" style="stroke:#0000ff;stroke-width:1.5;"/>
    </defs>
    <g clip-path="url(#p842347f63b)">
     <use style="fill-opacity:0;stroke:#0000ff;stroke-width:1.5;" x="319.482471" xlink:href="#mf558c3f573" y="201.668434"/>
     <use style="fill-opacity:0;stroke:#0000ff;stroke-width:1.5;" x="313.103409" xlink:href="#mf558c3f573" y="201.668434"/>
     <use style="fill-opacity:0;stroke:#0000ff;stroke-width:1.5;" x="306.71816" xlink:href="#mf558c3f573" y="201.668434"/>
     <use style="fill-opacity:0;stroke:#0000ff;stroke-width:1.5;" x="300.264827" xlink:href="#mf558c3f573" y="202.803884"/>
     <use style="fill-opacity:0;stroke:#0000ff;stroke-width:1.5;" x="294.05242" xlink:href="#mf558c3f573" y="199.397535"/>
     <use style="fill-opacity:0;stroke:#0000ff;stroke-width:1.5;" x="287.740015" xlink:href="#mf558c3f573" y="197.69436"/>
     <use style="fill-opacity:0;stroke:#0000ff;stroke-width:1.5;" x="281.481448" xlink:href="#mf558c3f573" y="194.855736"/>
     <use style="fill-opacity:0;stroke:#0000ff;stroke-width:1.5;" x="275.184876" xlink:href="#mf558c3f573" y="192.584837"/>
     <use style="fill-opacity:0;stroke:#0000ff;stroke-width:1.5;" x="268.7304" xlink:href="#mf558c3f573" y="193.152561"/>
     <use style="fill-opacity:0;stroke:#0000ff;stroke-width:1.5;" x="262.420022" xlink:href="#mf558c3f573" y="190.881662"/>
     <use style="fill-opacity:0;stroke:#0000ff;stroke-width:1.5;" x="256.1619" xlink:href="#mf558c3f573" y="187.475313"/>
     <use style="fill-opacity:0;stroke:#0000ff;stroke-width:1.5;" x="249.807045" xlink:href="#mf558c3f573" y="185.772138"/>
     <use style="fill-opacity:0;stroke:#0000ff;stroke-width:1.5;" x="243.533589" xlink:href="#mf558c3f573" y="182.365789"/>
     <use style="fill-opacity:0;stroke:#0000ff;stroke-width:1.5;" x="237.164497" xlink:href="#mf558c3f573" y="180.662615"/>
     <use style="fill-opacity:0;stroke:#0000ff;stroke-width:1.5;" x="230.846753" xlink:href="#mf558c3f573" y="177.82399"/>
     <use style="fill-opacity:0;stroke:#0000ff;stroke-width:1.5;" x="224.666066" xlink:href="#mf558c3f573" y="172.146742"/>
     <use style="fill-opacity:0;stroke:#0000ff;stroke-width:1.5;" x="218.332548" xlink:href="#mf558c3f573" y="169.308117"/>
     <use style="fill-opacity:0;stroke:#0000ff;stroke-width:1.5;" x="212.105846" xlink:href="#mf558c3f573" y="164.198594"/>
     <use style="fill-opacity:0;stroke:#0000ff;stroke-width:1.5;" x="205.700087" xlink:href="#mf558c3f573" y="162.495419"/>
     <use style="fill-opacity:0;stroke:#0000ff;stroke-width:1.5;" x="199.372303" xlink:href="#mf558c3f573" y="159.08907"/>
     <use style="fill-opacity:0;stroke:#0000ff;stroke-width:1.5;" x="193.064894" xlink:href="#mf558c3f573" y="155.114996"/>
     <use style="fill-opacity:0;stroke:#0000ff;stroke-width:1.5;" x="186.860935" xlink:href="#mf558c3f573" y="148.870023"/>
     <use style="fill-opacity:0;stroke:#0000ff;stroke-width:1.5;" x="180.536901" xlink:href="#mf558c3f573" y="144.895949"/>
     <use style="fill-opacity:0;stroke:#0000ff;stroke-width:1.5;" x="174.314967" xlink:href="#mf558c3f573" y="138.650975"/>
     <use style="fill-opacity:0;stroke:#0000ff;stroke-width:1.5;" x="167.974432" xlink:href="#mf558c3f573" y="134.676901"/>
     <use style="fill-opacity:0;stroke:#0000ff;stroke-width:1.5;" x="165.183237" xlink:href="#mf558c3f573" y="132.973727"/>
     <use style="fill-opacity:0;stroke:#0000ff;stroke-width:1.5;" x="164.152461" xlink:href="#mf558c3f573" y="131.25352"/>
     <use style="fill-opacity:0;stroke:#0000ff;stroke-width:1.5;" x="162.162632" xlink:href="#mf558c3f573" y="129.533314"/>
     <use style="fill-opacity:0;stroke:#0000ff;stroke-width:1.5;" x="160.033407" xlink:href="#mf558c3f573" y="127.813108"/>
     <use style="fill-opacity:0;stroke:#0000ff;stroke-width:1.5;" x="158.794335" xlink:href="#mf558c3f573" y="126.092901"/>
     <use style="fill-opacity:0;stroke:#0000ff;stroke-width:1.5;" x="156.361662" xlink:href="#mf558c3f573" y="124.372695"/>
     <use style="fill-opacity:0;stroke:#0000ff;stroke-width:1.5;" x="153.846904" xlink:href="#mf558c3f573" y="122.652489"/>
     <use style="fill-opacity:0;stroke:#0000ff;stroke-width:1.5;" x="152.947647" xlink:href="#mf558c3f573" y="120.932282"/>
     <use style="fill-opacity:0;stroke:#0000ff;stroke-width:1.5;" x="151.703304" xlink:href="#mf558c3f573" y="119.212076"/>
     <use style="fill-opacity:0;stroke:#0000ff;stroke-width:1.5;" x="150.26245" xlink:href="#mf558c3f573" y="117.49187"/>
     <use style="fill-opacity:0;stroke:#0000ff;stroke-width:1.5;" x="149.078042" xlink:href="#mf558c3f573" y="115.771663"/>
     <use style="fill-opacity:0;stroke:#0000ff;stroke-width:1.5;" x="145.823576" xlink:href="#mf558c3f573" y="114.051457"/>
     <use style="fill-opacity:0;stroke:#0000ff;stroke-width:1.5;" x="144.220158" xlink:href="#mf558c3f573" y="112.331251"/>
     <use style="fill-opacity:0;stroke:#0000ff;stroke-width:1.5;" x="143.184467" xlink:href="#mf558c3f573" y="110.611044"/>
     <use style="fill-opacity:0;stroke:#0000ff;stroke-width:1.5;" x="141.254172" xlink:href="#mf558c3f573" y="108.890838"/>
     <use style="fill-opacity:0;stroke:#0000ff;stroke-width:1.5;" x="139.614707" xlink:href="#mf558c3f573" y="107.170632"/>
     <use style="fill-opacity:0;stroke:#0000ff;stroke-width:1.5;" x="138.33787" xlink:href="#mf558c3f573" y="105.450426"/>
     <use style="fill-opacity:0;stroke:#0000ff;stroke-width:1.5;" x="136.769802" xlink:href="#mf558c3f573" y="103.730219"/>
     <use style="fill-opacity:0;stroke:#0000ff;stroke-width:1.5;" x="134.904717" xlink:href="#mf558c3f573" y="102.010013"/>
     <use style="fill-opacity:0;stroke:#0000ff;stroke-width:1.5;" x="132.604655" xlink:href="#mf558c3f573" y="100.289807"/>
     <use style="fill-opacity:0;stroke:#0000ff;stroke-width:1.5;" x="131.732139" xlink:href="#mf558c3f573" y="98.5696"/>
     <use style="fill-opacity:0;stroke:#0000ff;stroke-width:1.5;" x="130.080865" xlink:href="#mf558c3f573" y="96.849394"/>
     <use style="fill-opacity:0;stroke:#0000ff;stroke-width:1.5;" x="128.363842" xlink:href="#mf558c3f573" y="95.129188"/>
     <use style="fill-opacity:0;stroke:#0000ff;stroke-width:1.5;" x="128.123717" xlink:href="#mf558c3f573" y="93.408981"/>
     <use style="fill-opacity:0;stroke:#0000ff;stroke-width:1.5;" x="125.417599" xlink:href="#mf558c3f573" y="91.688775"/>
     <use style="fill-opacity:0;stroke:#0000ff;stroke-width:1.5;" x="124.12803" xlink:href="#mf558c3f573" y="89.968569"/>
     <use style="fill-opacity:0;stroke:#0000ff;stroke-width:1.5;" x="122.354506" xlink:href="#mf558c3f573" y="88.248362"/>
     <use style="fill-opacity:0;stroke:#0000ff;stroke-width:1.5;" x="120.714708" xlink:href="#mf558c3f573" y="86.528156"/>
     <use style="fill-opacity:0;stroke:#0000ff;stroke-width:1.5;" x="120.634217" xlink:href="#mf558c3f573" y="84.80795"/>
     <use style="fill-opacity:0;stroke:#0000ff;stroke-width:1.5;" x="117.935349" xlink:href="#mf558c3f573" y="83.087743"/>
     <use style="fill-opacity:0;stroke:#0000ff;stroke-width:1.5;" x="115.988809" xlink:href="#mf558c3f573" y="81.367537"/>
     <use style="fill-opacity:0;stroke:#0000ff;stroke-width:1.5;" x="115.505105" xlink:href="#mf558c3f573" y="79.647331"/>
     <use style="fill-opacity:0;stroke:#0000ff;stroke-width:1.5;" x="114.957519" xlink:href="#mf558c3f573" y="77.927124"/>
     <use style="fill-opacity:0;stroke:#0000ff;stroke-width:1.5;" x="112.98719" xlink:href="#mf558c3f573" y="76.206918"/>
     <use style="fill-opacity:0;stroke:#0000ff;stroke-width:1.5;" x="112.258876" xlink:href="#mf558c3f573" y="74.486712"/>
     <use style="fill-opacity:0;stroke:#0000ff;stroke-width:1.5;" x="111.3334" xlink:href="#mf558c3f573" y="72.766505"/>
     <use style="fill-opacity:0;stroke:#0000ff;stroke-width:1.5;" x="110.233941" xlink:href="#mf558c3f573" y="71.046299"/>
     <use style="fill-opacity:0;stroke:#0000ff;stroke-width:1.5;" x="109.092591" xlink:href="#mf558c3f573" y="69.326093"/>
     <use style="fill-opacity:0;stroke:#0000ff;stroke-width:1.5;" x="107.14172" xlink:href="#mf558c3f573" y="67.605887"/>
     <use style="fill-opacity:0;stroke:#0000ff;stroke-width:1.5;" x="105.449546" xlink:href="#mf558c3f573" y="65.88568"/>
     <use style="fill-opacity:0;stroke:#0000ff;stroke-width:1.5;" x="104.485226" xlink:href="#mf558c3f573" y="64.165474"/>
     <use style="fill-opacity:0;stroke:#0000ff;stroke-width:1.5;" x="103.985045" xlink:href="#mf558c3f573" y="62.445268"/>
     <use style="fill-opacity:0;stroke:#0000ff;stroke-width:1.5;" x="102.117006" xlink:href="#mf558c3f573" y="60.725061"/>
     <use style="fill-opacity:0;stroke:#0000ff;stroke-width:1.5;" x="100.558183" xlink:href="#mf558c3f573" y="59.004855"/>
     <use style="fill-opacity:0;stroke:#0000ff;stroke-width:1.5;" x="98.359896" xlink:href="#mf558c3f573" y="57.284649"/>
     <use style="fill-opacity:0;stroke:#0000ff;stroke-width:1.5;" x="95.435181" xlink:href="#mf558c3f573" y="55.564442"/>
     <use style="fill-opacity:0;stroke:#0000ff;stroke-width:1.5;" x="95.375625" xlink:href="#mf558c3f573" y="53.844236"/>
     <use style="fill-opacity:0;stroke:#0000ff;stroke-width:1.5;" x="93.479172" xlink:href="#mf558c3f573" y="52.12403"/>
     <use style="fill-opacity:0;stroke:#0000ff;stroke-width:1.5;" x="91.625139" xlink:href="#mf558c3f573" y="50.403823"/>
     <use style="fill-opacity:0;stroke:#0000ff;stroke-width:1.5;" x="89.486788" xlink:href="#mf558c3f573" y="48.683617"/>
     <use style="fill-opacity:0;stroke:#0000ff;stroke-width:1.5;" x="87.254996" xlink:href="#mf558c3f573" y="46.963411"/>
     <use style="fill-opacity:0;stroke:#0000ff;stroke-width:1.5;" x="85.647743" xlink:href="#mf558c3f573" y="45.243204"/>
     <use style="fill-opacity:0;stroke:#0000ff;stroke-width:1.5;" x="83.867967" xlink:href="#mf558c3f573" y="43.522998"/>
     <use style="fill-opacity:0;stroke:#0000ff;stroke-width:1.5;" x="81.509969" xlink:href="#mf558c3f573" y="41.802792"/>
     <use style="fill-opacity:0;stroke:#0000ff;stroke-width:1.5;" x="79.030779" xlink:href="#mf558c3f573" y="40.082585"/>
     <use style="fill-opacity:0;stroke:#0000ff;stroke-width:1.5;" x="78.398253" xlink:href="#mf558c3f573" y="38.362379"/>
     <use style="fill-opacity:0;stroke:#0000ff;stroke-width:1.5;" x="74.072539" xlink:href="#mf558c3f573" y="36.642173"/>
     <use style="fill-opacity:0;stroke:#0000ff;stroke-width:1.5;" x="72.467932" xlink:href="#mf558c3f573" y="34.921966"/>
     <use style="fill-opacity:0;stroke:#0000ff;stroke-width:1.5;" x="69.952899" xlink:href="#mf558c3f573" y="33.20176"/>
     <use style="fill-opacity:0;stroke:#0000ff;stroke-width:1.5;" x="65.846108" xlink:href="#mf558c3f573" y="31.481554"/>
    </g>
   </g>
   <g id="line2d_121">
    <path clip-path="url(#p842347f63b)" d="M 319.482471 207.881554 
L 313.103409 206.726522 
L 306.71816 205.402262 
L 300.264827 203.892992 
L 294.05242 202.277774 
L 287.740015 200.473485 
L 281.481448 198.522306 
L 275.184876 196.396222 
L 268.7304 194.047067 
L 262.420022 191.584212 
L 256.1619 188.979518 
L 249.807045 186.169239 
L 243.533589 183.231551 
L 237.164497 180.082996 
L 230.846753 176.794504 
L 224.666066 173.418019 
L 218.332548 169.794563 
L 212.105846 166.070905 
L 205.700087 162.073262 
L 199.372303 157.958087 
L 193.064894 153.691783 
L 186.860935 149.335354 
L 180.536901 144.731193 
L 174.314967 140.04036 
L 167.974432 135.095819 
L 165.183237 132.866589 
L 164.152461 132.035218 
L 162.162632 130.417927 
L 160.033407 128.669248 
L 158.794335 127.643022 
L 156.361662 125.609805 
L 153.846904 123.482319 
L 152.947647 122.715215 
L 151.703304 121.648238 
L 150.26245 120.404778 
L 149.078042 119.376218 
L 145.823576 116.520191 
L 144.220158 115.097009 
L 143.184467 114.172101 
L 141.254172 112.436471 
L 139.614707 110.950269 
L 138.33787 109.785116 
L 136.769802 108.345004 
L 134.904717 106.618905 
L 132.604655 104.470483 
L 131.732139 103.649782 
L 130.080865 102.087973 
L 128.363842 100.452049 
L 128.123717 100.222296 
L 125.417599 97.616625 
L 124.12803 96.364295 
L 122.354506 94.630779 
L 120.714708 93.016429 
L 120.634217 92.936901 
L 117.935349 90.254868 
L 115.988809 88.301819 
L 115.505105 87.814074 
L 114.957519 87.260747 
L 112.98719 85.259529 
L 112.258876 84.515743 
L 111.3334 83.56745 
L 110.233941 82.436293 
L 109.092591 81.256761 
L 107.14172 79.228185 
L 105.449546 77.455896 
L 104.485226 76.440635 
L 103.985045 75.912523 
L 102.117006 73.931038 
L 100.558183 72.26653 
L 98.359896 69.902169 
L 95.435181 66.725595 
L 95.375625 66.660544 
L 93.479172 64.581455 
L 91.625139 62.53453 
L 89.486788 60.156097 
L 87.254996 57.653616 
L 85.647743 55.838696 
L 83.867967 53.816527 
L 81.509969 51.117264 
L 79.030779 48.254533 
L 78.398253 47.520092 
L 74.072539 42.453171 
L 72.467932 40.553988 
L 69.952899 37.555873 
L 65.846108 32.604165 
" style="fill:none;stroke:#ff0000;stroke-dasharray:3.7,1.6;stroke-dashoffset:0;"/>
   </g>
   <g id="patch_3">
    <path d="M 53.16429 216.701554 
L 53.16429 22.661554 
" style="fill:none;stroke:#000000;stroke-linecap:square;stroke-linejoin:miter;stroke-width:0.5;"/>
   </g>
   <g id="patch_4">
    <path d="M 332.16429 216.701554 
L 332.16429 22.661554 
" style="fill:none;stroke:#000000;stroke-linecap:square;stroke-linejoin:miter;stroke-width:0.5;"/>
   </g>
   <g id="patch_5">
    <path d="M 53.16429 216.701554 
L 332.16429 216.701554 
" style="fill:none;stroke:#000000;stroke-linecap:square;stroke-linejoin:miter;stroke-width:0.5;"/>
   </g>
   <g id="patch_6">
    <path d="M 53.16429 22.661554 
L 332.16429 22.661554 
" style="fill:none;stroke:#000000;stroke-linecap:square;stroke-linejoin:miter;stroke-width:0.5;"/>
   </g>
   <g id="text_14">
    <!-- Momentum-energy curve with fit, $\mathrm{E}_F = 0.83$ [meV], $\mathrm{k}_F = 0.6926$ [$\mathrm{\AA}^{-1}$] -->
    <defs>
     <path d="M 20.90625 66.390625 
C 20.296875 67.890625 20.203125 68 18.09375 68 
L 5.296875 68 
L 5.296875 65.390625 
C 12.203125 65.390625 13.296875 65.390625 13.296875 60.90625 
L 13.296875 9.75 
C 13.296875 7.265625 13.296875 2.59375 5.296875 2.59375 
L 5.296875 0 
C 7.59375 0.1875 11.796875 0.1875 14.296875 0.1875 
C 16.796875 0.1875 21 0.1875 23.296875 0 
L 23.296875 2.59375 
C 15.296875 2.59375 15.296875 7.265625 15.296875 9.75 
L 15.296875 64.984375 
L 15.40625 64.984375 
L 38.90625 1.59375 
C 39.296875 0.59375 39.5 0 40.296875 0 
C 41.09375 0 41.296875 0.59375 41.703125 1.59375 
L 65.40625 65.484375 
L 65.5 65.484375 
L 65.5 7.078125 
C 65.5 2.59375 64.40625 2.59375 57.5 2.59375 
L 57.5 0 
C 60.203125 0.1875 65.59375 0.1875 68.5 0.1875 
C 71.40625 0.1875 76.90625 0.1875 79.59375 0 
L 79.59375 2.59375 
C 72.703125 2.59375 71.59375 2.59375 71.59375 7.078125 
L 71.59375 60.90625 
C 71.59375 65.390625 72.703125 65.390625 79.59375 65.390625 
L 79.59375 68 
L 66.90625 68 
C 64.796875 68 64.703125 67.890625 64.09375 66.390625 
L 42.5 8.0625 
z
" id="CMR17-77"/>
     <path d="M 43.09375 21.1875 
C 43.09375 34 33.796875 44 22.90625 44 
C 12 44 2.703125 34 2.703125 21.1875 
C 2.703125 8.59375 12 -1 22.90625 -1 
C 33.796875 -1 43.09375 8.59375 43.09375 21.1875 
z
M 22.90625 0.796875 
C 18.203125 0.796875 14.203125 3.59375 11.90625 7.5 
C 9.40625 12 9.09375 17.59375 9.09375 22 
C 9.09375 26.1875 9.296875 31.390625 11.90625 35.890625 
C 13.90625 39.1875 17.796875 42.390625 22.90625 42.390625 
C 27.40625 42.390625 31.203125 39.890625 33.59375 36.390625 
C 36.703125 31.6875 36.703125 25.09375 36.703125 22 
C 36.703125 18.09375 36.5 12.09375 33.796875 7.296875 
C 31 2.6875 26.703125 0.796875 22.90625 0.796875 
z
" id="CMR17-111"/>
     <path d="M 67.59375 30.53125 
C 67.59375 35.5625 66.703125 44 54.796875 44 
C 48 44 43.296875 39.375 41.5 33.953125 
L 41.40625 33.953125 
C 40.203125 42.1875 34.296875 44 28.703125 44 
C 20.796875 44 16.703125 37.875 15.203125 33.84375 
L 15.09375 33.84375 
L 15.09375 44 
L 3.296875 42.890625 
L 3.296875 40.28125 
C 9.203125 40.28125 10.09375 39.6875 10.09375 34.859375 
L 10.09375 6.921875 
C 10.09375 3.09375 9.703125 2.59375 3.296875 2.59375 
L 3.296875 0 
C 5.703125 0.1875 10.09375 0.1875 12.703125 0.1875 
C 15.296875 0.1875 19.796875 0.1875 22.203125 0 
L 22.203125 2.59375 
C 15.796875 2.59375 15.40625 3 15.40625 6.921875 
L 15.40625 26.21875 
C 15.40625 35.453125 21 42.390625 28 42.390625 
C 35.40625 42.390625 36.203125 35.765625 36.203125 30.9375 
L 36.203125 6.921875 
C 36.203125 3.09375 35.796875 2.59375 29.40625 2.59375 
L 29.40625 0 
C 31.796875 0.1875 36.203125 0.1875 38.796875 0.1875 
C 41.40625 0.1875 45.90625 0.1875 48.296875 0 
L 48.296875 2.59375 
C 41.90625 2.59375 41.5 3 41.5 6.921875 
L 41.5 26.21875 
C 41.5 35.453125 47.09375 42.390625 54.09375 42.390625 
C 61.5 42.390625 62.296875 35.765625 62.296875 30.9375 
L 62.296875 6.921875 
C 62.296875 3.09375 61.90625 2.59375 55.5 2.59375 
L 55.5 0 
C 57.90625 0.1875 62.296875 0.1875 64.90625 0.1875 
C 67.5 0.1875 72 0.1875 74.40625 0 
L 74.40625 2.59375 
C 68 2.59375 67.59375 3 67.59375 6.921875 
z
" id="CMR17-109"/>
     <path d="M 41.5 30.53125 
C 41.5 35.65625 40.5 44 28.703125 44 
C 20.796875 44 16.703125 37.875 15.203125 33.84375 
L 15.09375 33.84375 
L 15.09375 44 
L 3.296875 42.890625 
L 3.296875 40.28125 
C 9.203125 40.28125 10.09375 39.6875 10.09375 34.859375 
L 10.09375 6.921875 
C 10.09375 3.09375 9.703125 2.59375 3.296875 2.59375 
L 3.296875 0 
C 5.703125 0.1875 10.09375 0.1875 12.703125 0.1875 
C 15.296875 0.1875 19.796875 0.1875 22.203125 0 
L 22.203125 2.59375 
C 15.796875 2.59375 15.40625 3 15.40625 6.921875 
L 15.40625 26.21875 
C 15.40625 35.453125 21 42.390625 28 42.390625 
C 35.40625 42.390625 36.203125 35.765625 36.203125 30.9375 
L 36.203125 6.921875 
C 36.203125 3.09375 35.796875 2.59375 29.40625 2.59375 
L 29.40625 0 
C 31.796875 0.1875 36.203125 0.1875 38.796875 0.1875 
C 41.40625 0.1875 45.90625 0.1875 48.296875 0 
L 48.296875 2.59375 
C 41.90625 2.59375 41.5 3 41.5 6.921875 
z
" id="CMR17-110"/>
     <path d="M 15.09375 40.390625 
L 29.09375 40.390625 
L 29.09375 43 
L 15.09375 43 
L 15.09375 62 
L 13.296875 62 
C 13.09375 51.4375 9.59375 42.1875 1.09375 41.984375 
L 1.09375 40.390625 
L 9.796875 40.390625 
L 9.796875 12.15625 
C 9.796875 10.234375 9.796875 -1 21.40625 -1 
C 27.296875 -1 30.703125 4.8125 30.703125 12.25 
L 30.703125 17.984375 
L 28.90625 17.984375 
L 28.90625 12.34375 
C 28.90625 5.421875 26.203125 0.796875 22 0.796875 
C 19.09375 0.796875 15.09375 2.796875 15.09375 11.953125 
z
" id="CMR17-116"/>
     <path d="M 29.40625 42.890625 
L 29.40625 40.296875 
C 35.296875 40.296875 36.203125 39.6875 36.203125 34.828125 
L 36.203125 16.453125 
C 36.203125 7.96875 31.703125 0.59375 24.296875 0.59375 
C 16.09375 0.59375 15.40625 5.546875 15.40625 10.796875 
L 15.40625 44 
L 3.296875 42.890625 
L 3.296875 40.296875 
C 7.296875 40.296875 10 40.296875 10.09375 36.25 
L 10.09375 16.859375 
C 10.09375 10.09375 10.09375 5.75 12.703125 2.921875 
C 14 1.609375 16.5 -1 23.703125 -1 
C 32.203125 -1 35.5 6.25 36.296875 8.375 
L 36.40625 8.375 
L 36.40625 -1 
L 48.296875 -0.203125 
L 48.296875 2.40625 
C 42.40625 2.40625 41.5 3.015625 41.5 7.859375 
L 41.5 44 
z
" id="CMR17-117"/>
     <path d="M 25.5 19.59375 
L 25.5 24 
L 0.40625 24 
L 0.40625 19.59375 
z
" id="CMR17-45"/>
     <path d="M 15 23.703125 
C 15 33.34375 19.09375 42.390625 26.59375 42.390625 
C 27.296875 42.390625 28 42.296875 28.703125 41.984375 
C 28.703125 41.984375 26.5 41.28125 26.5 38.671875 
C 26.5 36.265625 28.40625 35.265625 29.90625 35.265625 
C 31.09375 35.265625 33.296875 35.96875 33.296875 38.78125 
C 33.296875 41.984375 30.09375 44 26.703125 44 
C 19.09375 44 15.796875 36.5625 14.796875 33.046875 
L 14.703125 33.046875 
L 14.703125 44 
L 3.09375 42.890625 
L 3.09375 40.28125 
C 9 40.28125 9.90625 39.6875 9.90625 34.859375 
L 9.90625 6.921875 
C 9.90625 3.09375 9.5 2.59375 3.09375 2.59375 
L 3.09375 0 
C 5.5 0.1875 10.09375 0.1875 12.703125 0.1875 
C 15.59375 0.1875 20.703125 0.1875 23.40625 0 
L 23.40625 2.59375 
C 16.203125 2.59375 15 2.59375 15 7.109375 
z
" id="CMR17-114"/>
     <path d="M 11.09375 18.203125 
C 13 16.6875 16.296875 15 20.296875 15 
C 28.203125 15 35 21.234375 35 29.609375 
C 35 32.234375 34.203125 36.265625 31.203125 39.390625 
C 34 42.390625 38.09375 43.390625 40.40625 43.390625 
C 40.796875 43.390625 41.40625 43.390625 41.90625 43.09375 
C 41.5 42.984375 40.59375 42.59375 40.59375 40.984375 
C 40.59375 39.6875 41.5 38.796875 42.796875 38.796875 
C 44.296875 38.796875 45.09375 39.796875 45.09375 41.09375 
C 45.09375 42.984375 43.59375 45 40.40625 45 
C 36.40625 45 32.90625 43.09375 30.09375 40.484375 
C 27.09375 43.1875 23.5 44.1875 20.296875 44.1875 
C 12.40625 44.1875 5.59375 37.984375 5.59375 29.609375 
C 5.59375 23.859375 8.90625 20.21875 9.90625 19.21875 
C 6.90625 15.6875 6.90625 11.59375 6.90625 11.09375 
C 6.90625 8.5 7.90625 4.6875 11.296875 2.59375 
C 6.09375 1.28125 2 -2.875 2 -8.078125 
C 2 -15.5625 11.5 -21 22.90625 -21 
C 33.90625 -21 43.796875 -15.765625 43.796875 -7.96875 
C 43.796875 6 29 6 21.296875 6 
C 19 6 14.90625 6 14.40625 6.09375 
C 11.296875 6.59375 9.203125 9.390625 9.203125 12.890625 
C 9.203125 13.796875 9.203125 16 11.09375 18.203125 
z
M 20.296875 16.6875 
C 11.5 16.6875 11.5 27.59375 11.5 29.609375 
C 11.5 31.625 11.5 42.484375 20.296875 42.484375 
C 29.09375 42.484375 29.09375 31.625 29.09375 29.609375 
C 29.09375 27.59375 29.09375 16.6875 20.296875 16.6875 
z
M 22.90625 -19.3125 
C 12.90625 -19.3125 6 -13.796875 6 -8.078125 
C 6 -4.859375 7.703125 -1.84375 9.90625 -0.171875 
C 12.40625 1.59375 13.40625 1.59375 20.203125 1.59375 
C 28.40625 1.59375 39.796875 1.59375 39.796875 -8.078125 
C 39.796875 -13.796875 32.90625 -19.3125 22.90625 -19.3125 
z
" id="CMR17-103"/>
     <path d="M 39 34.109375 
C 41.5 40.296875 46 40.390625 47.40625 40.390625 
L 47.40625 43 
C 45.5 42.890625 43 42.796875 41.09375 42.796875 
C 39 42.796875 35.703125 42.796875 33.703125 43 
L 33.703125 40.390625 
C 37.5 40.09375 37.59375 37.25 37.59375 36.4375 
C 37.59375 35.4375 37.40625 34.921875 36.90625 33.71875 
L 26 6.390625 
L 14.09375 35.9375 
C 13.59375 37.15625 13.59375 37.859375 13.59375 37.96875 
C 13.59375 40.1875 15.90625 40.390625 18.296875 40.390625 
L 18.296875 43 
C 15.90625 42.796875 11.59375 42.796875 9.09375 42.796875 
C 6.40625 42.796875 3.203125 42.796875 1 43 
L 1 40.390625 
C 6.40625 40.390625 7 39.890625 8.296875 36.640625 
L 23.203125 -0.484375 
C 18.703125 -12.421875 16.09375 -19.40625 9.796875 -19.40625 
C 8.703125 -19.40625 6.203125 -19.109375 4.40625 -17.28125 
C 6.703125 -17.078125 7.703125 -15.65625 7.703125 -13.9375 
C 7.703125 -12.21875 6.5 -10.703125 4.5 -10.703125 
C 2.296875 -10.703125 1.203125 -12.21875 1.203125 -14.046875 
C 1.203125 -18.09375 5.296875 -21 9.796875 -21 
C 15.59375 -21 19.203125 -15.359375 21.203125 -10.296875 
z
" id="CMR17-121"/>
     <path d="M 34.90625 35 
C 33 35 30.203125 35 30.203125 31.484375 
C 30.203125 28.6875 32.5 27.890625 33.796875 27.890625 
C 34.5 27.890625 37.40625 28.1875 37.40625 31.6875 
C 37.40625 38.6875 30.59375 44 22.90625 44 
C 12.296875 44 3.296875 34.390625 3.296875 21.546875 
C 3.296875 8.140625 12.703125 -1 22.90625 -1 
C 35.296875 -1 38.40625 10.5625 38.40625 11.671875 
C 38.40625 12.078125 38.296875 12.375 37.59375 12.375 
C 36.90625 12.375 36.796875 12.28125 36.40625 10.96875 
C 33.796875 2.8125 28.09375 0.796875 23.796875 0.796875 
C 17.40625 0.796875 9.703125 6.734375 9.703125 21.640625 
C 9.703125 36.84375 17.09375 42.1875 23 42.1875 
C 26.90625 42.1875 32.703125 40.34375 34.90625 35 
z
" id="CMR17-99"/>
     <path d="M 39.09375 33.953125 
C 40 36.171875 41.59375 40.1875 47.40625 40.390625 
L 47.40625 43 
C 45.5 42.890625 43 42.796875 41.09375 42.796875 
C 39 42.796875 35.703125 42.796875 33.703125 43 
L 33.703125 40.390625 
C 36.203125 40.1875 37.59375 38.984375 37.59375 36.375 
C 37.59375 35.46875 37.59375 35.265625 37 33.859375 
L 26 5.921875 
L 14.09375 36.0625 
C 13.5 37.375 13.5 37.578125 13.5 37.984375 
C 13.5 40.390625 16.796875 40.390625 18.296875 40.390625 
L 18.296875 43 
C 15.90625 42.796875 11.5 42.796875 9 42.796875 
C 6.296875 42.796875 3.203125 42.796875 1 43 
L 1 40.390625 
C 4.796875 40.390625 6.90625 40.390625 8.09375 37.28125 
L 22.59375 0.6875 
C 23.203125 -0.8125 23.296875 -1 24.203125 -1 
C 25.09375 -1 25.203125 -0.8125 25.796875 0.6875 
z
" id="CMR17-118"/>
     <path d="M 58.203125 34.15625 
C 60.203125 40.09375 64.203125 40.296875 65.703125 40.390625 
L 65.703125 43 
C 63.703125 42.890625 61.703125 42.796875 59.703125 42.796875 
C 57.796875 42.796875 53.5 42.796875 51.796875 43 
L 51.796875 40.390625 
C 54.90625 40.1875 56.59375 38.375 56.59375 35.875 
C 56.59375 35.171875 56.40625 34.265625 56.203125 33.5625 
L 46.796875 6.21875 
L 36.59375 35.875 
C 36.40625 36.578125 36.09375 37.375 36.09375 37.78125 
C 36.09375 40.390625 39.5 40.390625 41.09375 40.390625 
L 41.09375 43 
C 38.796875 42.796875 34.59375 42.796875 32.203125 42.796875 
C 29.703125 42.796875 27.09375 42.796875 24.796875 43 
L 24.796875 40.390625 
C 30.296875 40.390625 30.296875 40.1875 32.40625 33.859375 
L 23.203125 6.921875 
L 13.296875 35.96875 
C 12.796875 37.28125 12.796875 37.484375 12.796875 37.78125 
C 12.796875 40.390625 16.203125 40.390625 17.796875 40.390625 
L 17.796875 43 
C 15.40625 42.796875 11.203125 42.796875 8.703125 42.796875 
C 6.5 42.796875 3.09375 42.796875 1 43 
L 1 40.390625 
C 5.40625 40.390625 6.5 40.09375 7.59375 36.765625 
L 19.90625 0.59375 
C 20.296875 -0.703125 20.59375 -1 21.40625 -1 
C 22.09375 -1 22.5 -0.8125 23 0.6875 
L 33.296875 31.046875 
L 43.703125 0.6875 
C 44.203125 -0.8125 44.59375 -1 45.296875 -1 
C 46.09375 -1 46.40625 -0.703125 46.796875 0.59375 
z
" id="CMR17-119"/>
     <path d="M 15.5 61.890625 
C 15.5 64.09375 13.703125 66 11.40625 66 
C 9.203125 66 7.296875 64.1875 7.296875 61.890625 
C 7.296875 59.6875 9.09375 57.796875 11.40625 57.796875 
C 13.59375 57.796875 15.5 59.59375 15.5 61.890625 
z
M 3.796875 42.890625 
L 3.796875 40.296875 
C 9.40625 40.296875 10.203125 39.6875 10.203125 34.859375 
L 10.203125 6.921875 
C 10.203125 3.09375 9.796875 2.59375 3.40625 2.59375 
L 3.40625 0 
C 5.796875 0.1875 10.09375 0.1875 12.59375 0.1875 
C 15 0.1875 19.09375 0.1875 21.40625 0 
L 21.40625 2.59375 
C 15.5 2.59375 15.296875 3.203125 15.296875 6.8125 
L 15.296875 44 
z
" id="CMR17-105"/>
     <path d="M 41.5 30.53125 
C 41.5 35.65625 40.5 44 28.703125 44 
C 20.5 44 16.5 37.375 15.296875 34.046875 
L 15.203125 34.046875 
L 15.203125 69 
L 3.296875 67.890625 
L 3.296875 65.296875 
C 9.203125 65.296875 10.09375 64.703125 10.09375 60.046875 
L 10.09375 6.921875 
C 10.09375 3.09375 9.703125 2.59375 3.296875 2.59375 
L 3.296875 0 
C 5.703125 0.1875 10.09375 0.1875 12.703125 0.1875 
C 15.296875 0.1875 19.796875 0.1875 22.203125 0 
L 22.203125 2.59375 
C 15.796875 2.59375 15.40625 3 15.40625 6.921875 
L 15.40625 26.21875 
C 15.40625 35.453125 21 42.390625 28 42.390625 
C 35.40625 42.390625 36.203125 35.765625 36.203125 30.9375 
L 36.203125 6.921875 
C 36.203125 3.09375 35.796875 2.59375 29.40625 2.59375 
L 29.40625 0 
C 31.796875 0.1875 36.203125 0.1875 38.796875 0.1875 
C 41.40625 0.1875 45.90625 0.1875 48.296875 0 
L 48.296875 2.59375 
C 41.90625 2.59375 41.5 3 41.5 6.921875 
z
" id="CMR17-104"/>
     <path d="M 39.90625 44 
C 37.5 43.890625 30.09375 43.390625 28.203125 43.1875 
C 27.59375 43.09375 27.40625 43.09375 26.203125 43.09375 
L 14.796875 43.09375 
L 14.796875 54.953125 
C 14.796875 64.484375 22.40625 69 28.40625 69 
C 30.296875 69 34.59375 68.484375 36.796875 65 
C 35.796875 65 32.59375 65 32.59375 61.484375 
C 32.59375 59.09375 34.203125 57.890625 36.203125 57.890625 
C 38 57.890625 39.796875 58.890625 39.796875 61.59375 
C 39.796875 66.640625 35 70.59375 28.796875 70.59375 
C 20.90625 70.59375 9.90625 66.015625 9.90625 54.953125 
L 9.90625 43.09375 
L 1.90625 43.09375 
L 1.90625 40.484375 
L 9.90625 40.484375 
L 9.90625 6.90625 
C 9.90625 3.09375 9.5 2.59375 3.09375 2.59375 
L 3.09375 0 
C 5.5 0.1875 9.90625 0.1875 12.40625 0.1875 
C 15 0.1875 19.40625 0.1875 21.796875 0 
L 21.796875 2.59375 
C 15.40625 2.59375 15 3 15 6.90625 
L 15 40.484375 
L 29.703125 40.484375 
C 34 40.484375 34.796875 39.59375 34.796875 35.171875 
L 34.796875 6.90625 
C 34.796875 3.09375 34.40625 2.59375 28 2.59375 
L 28 0 
C 30.40625 0.1875 34.796875 0.1875 37.296875 0.1875 
C 39.90625 0.1875 44.296875 0.1875 46.703125 0 
L 46.703125 2.59375 
C 40.296875 2.59375 39.90625 3 39.90625 6.90625 
z
" id="CMR17-12"/>
     <path d="M 15.796875 1.59375 
C 16 0.6875 16 0.390625 16 -1.1875 
C 16 -7.046875 14 -12.421875 9.796875 -17.3125 
C 9.296875 -17.8125 9.296875 -18 9.296875 -18.203125 
C 9.296875 -18.609375 9.703125 -19 10.09375 -19 
C 10.703125 -19 17.59375 -12.125 17.59375 -1.28125 
C 17.59375 2 17.203125 8.1875 12.5 8.1875 
C 10.296875 8.1875 8.40625 6.6875 8.40625 4.09375 
C 8.40625 1.5 10.296875 0 12.5 0 
C 13.703125 0 15 0.5 15.796875 1.59375 
z
" id="CMR17-44"/>
     <path d="M 64.296875 32 
C 65.796875 32 67.296875 32 67.296875 33.6875 
C 67.296875 35.5 65.59375 35.5 63.90625 35.5 
L 8 35.5 
C 6.296875 35.5 4.59375 35.5 4.59375 33.6875 
C 4.59375 32 6.09375 32 7.59375 32 
z
M 63.90625 14.484375 
C 65.59375 14.484375 67.296875 14.484375 67.296875 16.296875 
C 67.296875 18 65.796875 18 64.296875 18 
L 7.59375 18 
C 6.09375 18 4.59375 18 4.59375 16.296875 
C 4.59375 14.484375 6.296875 14.484375 8 14.484375 
z
" id="CMR17-61"/>
     <path d="M 27.203125 35.765625 
C 33.5 38.96875 39.90625 43.796875 39.90625 51.53125 
C 39.90625 60.6875 31.09375 66 23 66 
C 13.90625 66 5.90625 59.375 5.90625 50.234375 
C 5.90625 47.71875 6.5 43.390625 10.40625 39.578125 
C 11.40625 38.578125 15.59375 35.5625 18.296875 33.65625 
C 13.796875 31.34375 3.296875 25.8125 3.296875 14.765625 
C 3.296875 4.40625 13.09375 -2 22.796875 -2 
C 33.5 -2 42.5 5.71875 42.5 15.96875 
C 42.5 25.109375 36.40625 29.328125 32.40625 32.046875 
z
M 14.09375 44.609375 
C 13.296875 45.109375 9.296875 48.21875 9.296875 52.9375 
C 9.296875 59.078125 15.59375 63.6875 22.796875 63.6875 
C 30.703125 63.6875 36.5 58.0625 36.5 51.53125 
C 36.5 42.1875 26.09375 36.859375 25.59375 36.859375 
C 25.5 36.859375 25.40625 36.859375 24.59375 37.46875 
z
M 32.5 24 
C 34 22.90625 38.796875 19.578125 38.796875 13.453125 
C 38.796875 6.015625 31.40625 0.390625 23 0.390625 
C 13.90625 0.390625 7 6.921875 7 14.859375 
C 7 22.796875 13.09375 29.4375 20 32.546875 
z
" id="CMR17-56"/>
     <path d="M 10.59375 34.34375 
C 10.59375 58 21.796875 63.6875 28.296875 63.6875 
C 30.40625 63.6875 35.5 63.265625 37.5 59.09375 
C 35.90625 59.09375 32.90625 59.09375 32.90625 55.59375 
C 32.90625 52.890625 35.09375 52 36.5 52 
C 37.40625 52 40.09375 52.390625 40.09375 55.796875 
C 40.09375 62.296875 35.09375 66 28.203125 66 
C 16.296875 66 3.796875 53.296875 3.796875 31.421875 
C 3.796875 4.015625 15.09375 -2 23.09375 -2 
C 32.796875 -2 42 6.734375 42 20.234375 
C 42 32.828125 33.90625 42 23.703125 42 
C 17.59375 42 13.09375 37.96875 10.59375 30.921875 
z
M 23.09375 0.390625 
C 10.796875 0.390625 10.796875 18.9375 10.796875 22.65625 
C 10.796875 29.90625 14.203125 40.390625 23.5 40.390625 
C 25.203125 40.390625 30.09375 40.390625 33.40625 33.4375 
C 35.203125 29.515625 35.203125 25.375 35.203125 20.34375 
C 35.203125 14.90625 35.203125 10.875 33.09375 6.84375 
C 30.90625 2.703125 27.703125 0.390625 23.09375 0.390625 
z
" id="CMR17-54"/>
     <path d="M 35.203125 29.234375 
C 35.203125 7 26.09375 0.390625 18.59375 0.390625 
C 16.296875 0.390625 10.703125 0.671875 8.40625 4.390625 
C 11 4 12.90625 5.390625 12.90625 7.890625 
C 12.90625 10.59375 10.703125 11.5 9.296875 11.5 
C 8.40625 11.5 5.703125 11.09375 5.703125 7.6875 
C 5.703125 1.0625 11.59375 -2 18.796875 -2 
C 30.296875 -2 42 10.390625 42 32.65625 
C 42 60.265625 30.796875 66 23.203125 66 
C 13.296875 66 3.796875 57.25 3.796875 43.75 
C 3.796875 31.25 11.90625 22 22.09375 22 
C 30.5 22 34.203125 29.84375 35.203125 33.15625 
z
M 22.296875 23.59375 
C 19.59375 23.59375 15.796875 24.09375 12.703125 30.140625 
C 10.59375 34.078125 10.59375 38.703125 10.59375 43.640625 
C 10.59375 49.59375 10.59375 53.71875 13.40625 58.15625 
C 14.796875 60.265625 17.40625 63.6875 23.203125 63.6875 
C 35 63.6875 35 45.453125 35 41.421875 
C 35 34.265625 31.796875 23.59375 22.296875 23.59375 
z
" id="CMR17-57"/>
    </defs>
    <g transform="translate(12.298532 16.661554)scale(0.12 -0.12)">
     <use transform="translate(0 14.943915)scale(0.996264)" xlink:href="#CMR17-77"/>
     <use transform="translate(84.686941 14.943915)scale(0.996264)" xlink:href="#CMR17-111"/>
     <use transform="translate(130.377418 14.943915)scale(0.996264)" xlink:href="#CMR17-109"/>
     <use transform="translate(207.297008 14.943915)scale(0.996264)" xlink:href="#CMR17-101"/>
     <use transform="translate(247.782668 14.943915)scale(0.996264)" xlink:href="#CMR17-110"/>
     <use transform="translate(296.075584 14.943915)scale(0.996264)" xlink:href="#CMR17-116"/>
     <use transform="translate(331.356352 14.943915)scale(0.996264)" xlink:href="#CMR17-117"/>
     <use transform="translate(382.251721 14.943915)scale(0.996264)" xlink:href="#CMR17-109"/>
     <use transform="translate(459.171311 14.943915)scale(0.996264)" xlink:href="#CMR17-45"/>
     <use transform="translate(489.247278 14.943915)scale(0.996264)" xlink:href="#CMR17-101"/>
     <use transform="translate(529.732938 14.943915)scale(0.996264)" xlink:href="#CMR17-110"/>
     <use transform="translate(580.628308 14.943915)scale(0.996264)" xlink:href="#CMR17-101"/>
     <use transform="translate(621.113968 14.943915)scale(0.996264)" xlink:href="#CMR17-114"/>
     <use transform="translate(656.394736 14.943915)scale(0.996264)" xlink:href="#CMR17-103"/>
     <use transform="translate(702.085213 14.943915)scale(0.996264)" xlink:href="#CMR17-121"/>
     <use transform="translate(780.454095 14.943915)scale(0.996264)" xlink:href="#CMR17-99"/>
     <use transform="translate(820.939756 14.943915)scale(0.996264)" xlink:href="#CMR17-117"/>
     <use transform="translate(871.835126 14.943915)scale(0.996264)" xlink:href="#CMR17-114"/>
     <use transform="translate(907.115894 14.943915)scale(0.996264)" xlink:href="#CMR17-118"/>
     <use transform="translate(952.806355 14.943915)scale(0.996264)" xlink:href="#CMR17-101"/>
     <use transform="translate(1023.367982 14.943915)scale(0.996264)" xlink:href="#CMR17-119"/>
     <use transform="translate(1089.877863 14.943915)scale(0.996264)" xlink:href="#CMR17-105"/>
     <use transform="translate(1114.748921 14.943915)scale(0.996264)" xlink:href="#CMR17-116"/>
     <use transform="translate(1150.029689 14.943915)scale(0.996264)" xlink:href="#CMR17-104"/>
     <use transform="translate(1231.001025 14.943915)scale(0.996264)" xlink:href="#CMR17-12"/>
     <use transform="translate(1280.743249 14.943915)scale(0.996264)" xlink:href="#CMR17-116"/>
     <use transform="translate(1316.024016 14.943915)scale(0.996264)" xlink:href="#CMR17-44"/>
     <use transform="translate(1370.971041 14.943915)scale(0.996264)" xlink:href="#CMR17-69"/>
     <use transform="translate(1433.557342 0)scale(0.697382)" xlink:href="#CMMI12-70"/>
     <use transform="translate(1515.416994 14.943915)scale(0.996264)" xlink:href="#CMR17-61"/>
     <use transform="translate(1614.805791 14.943915)scale(0.996264)" xlink:href="#CMR17-48"/>
     <use transform="translate(1660.496268 14.943915)scale(0.996264)" xlink:href="#CMMI12-58"/>
     <use transform="translate(1687.593445 14.943915)scale(0.996264)" xlink:href="#CMR17-56"/>
     <use transform="translate(1733.283922 14.943915)scale(0.996264)" xlink:href="#CMR17-51"/>
     <use transform="translate(1809.050366 14.943915)scale(0.996264)" xlink:href="#CMR17-91"/>
     <use transform="translate(1833.921424 14.943915)scale(0.996264)" xlink:href="#CMR17-109"/>
     <use transform="translate(1910.841014 14.943915)scale(0.996264)" xlink:href="#CMR17-101"/>
     <use transform="translate(1951.326675 14.943915)scale(0.996264)" xlink:href="#CMR17-86"/>
     <use transform="translate(2020.399105 14.943915)scale(0.996264)" xlink:href="#CMR17-93"/>
     <use transform="translate(2045.270163 14.943915)scale(0.996264)" xlink:href="#CMR17-44"/>
     <use transform="translate(2100.217188 14.943915)scale(0.996264)" xlink:href="#CMR17-107"/>
     <use transform="translate(2148.510104 0)scale(0.697382)" xlink:href="#CMMI12-70"/>
     <use transform="translate(2230.369756 14.943915)scale(0.996264)" xlink:href="#CMR17-61"/>
     <use transform="translate(2329.758553 14.943915)scale(0.996264)" xlink:href="#CMR17-48"/>
     <use transform="translate(2375.44903 14.943915)scale(0.996264)" xlink:href="#CMMI12-58"/>
     <use transform="translate(2402.546207 14.943915)scale(0.996264)" xlink:href="#CMR17-54"/>
     <use transform="translate(2448.236684 14.943915)scale(0.996264)" xlink:href="#CMR17-57"/>
     <use transform="translate(2493.927162 14.943915)scale(0.996264)" xlink:href="#CMR17-50"/>
     <use transform="translate(2539.617639 14.943915)scale(0.996264)" xlink:href="#CMR17-54"/>
     <use transform="translate(2615.384082 14.943915)scale(0.996264)" xlink:href="#CMR17-91"/>
     <use transform="translate(2640.255141 32.562659)scale(0.996264)" xlink:href="#CMR17-23"/>
     <use transform="translate(2640.255141 14.943915)scale(0.996264)" xlink:href="#CMR17-65"/>
     <use transform="translate(2709.32757 74.821181)scale(0.697382)" xlink:href="#CMSY10-0"/>
     <use transform="translate(2763.568564 74.821181)scale(0.697382)" xlink:href="#CMR17-49"/>
     <use transform="translate(2796.049878 14.943915)scale(0.996264)" xlink:href="#CMR17-93"/>
    </g>
   </g>
   <g id="legend_1">
    <g id="line2d_122"/>
    <g id="line2d_123">
     <g>
      <use style="fill-opacity:0;stroke:#0000ff;stroke-width:1.5;" x="240.098373" xlink:href="#mf558c3f573" y="37.661554"/>
     </g>
    </g>
    <g id="text_15">
     <!-- Experiment -->
     <defs>
      <path d="M 26 23.296875 
C 29 27.1875 32.40625 31.59375 35.203125 34.890625 
C 38.5 38.6875 42.296875 40.296875 46.703125 40.390625 
L 46.703125 43 
C 45 42.890625 41.5 42.796875 39.703125 42.796875 
C 37 42.796875 33.90625 42.796875 31.59375 43 
L 31.59375 40.390625 
C 33 40.1875 33.796875 39.1875 33.796875 37.796875 
C 33.796875 36 32.796875 34.890625 32.296875 34.1875 
L 24.90625 24.796875 
L 16.09375 36.296875 
C 15.203125 37.390625 15.203125 37.59375 15.203125 38.09375 
C 15.203125 39.296875 16.203125 40.296875 17.90625 40.390625 
L 17.90625 43 
C 15.5 42.796875 11.203125 42.796875 8.703125 42.796875 
C 6 42.796875 2.796875 42.796875 0.59375 43 
L 0.59375 40.390625 
C 6 40.390625 7.203125 40 9.59375 37 
L 21.09375 22.09375 
C 21.296875 21.890625 21.796875 21.296875 21.796875 21 
C 21.796875 20.59375 13.09375 9.890625 12 8.5 
C 7.5 3.09375 2.796875 2.6875 0.09375 2.59375 
L 0.09375 0 
C 1.796875 0.09375 5.296875 0.1875 7.09375 0.1875 
C 9.09375 0.1875 13.5 0.1875 15.296875 0 
L 15.296875 2.59375 
C 14.703125 2.6875 13.09375 2.890625 13.09375 5.1875 
C 13.09375 7 13.90625 8.09375 14.796875 9.296875 
L 23.09375 19.5 
L 31.796875 8.1875 
C 32.59375 7.09375 33.796875 5.59375 33.796875 4.890625 
C 33.796875 3.5 32.59375 2.6875 31 2.59375 
L 31 0 
C 33.40625 0.1875 37.703125 0.1875 40.203125 0.1875 
C 42.90625 0.1875 46.09375 0.1875 48.296875 0 
L 48.296875 2.59375 
C 43.296875 2.59375 41.796875 2.796875 39.40625 5.890625 
z
" id="CMR17-120"/>
      <path d="M 22 -17.40625 
C 15.59375 -17.40625 15.203125 -17 15.203125 -13.03125 
L 15.203125 5.9375 
C 18.09375 1.703125 22.296875 -1 27.59375 -1 
C 37.59375 -1 47.703125 7.859375 47.703125 21.59375 
C 47.703125 34.3125 39 44 28.703125 44 
C 22.703125 44 17.796875 40.671875 15 36.640625 
L 15 44 
L 3.09375 42.890625 
L 3.09375 40.265625 
C 9 40.265625 9.90625 39.671875 9.90625 34.8125 
L 9.90625 -13.03125 
C 9.90625 -16.890625 9.5 -17.40625 3.09375 -17.40625 
L 3.09375 -20 
C 5.5 -19.8125 9.90625 -19.8125 12.5 -19.8125 
C 15.09375 -19.8125 19.59375 -19.8125 22 -20 
z
M 15.203125 31.484375 
C 15.203125 32.90625 15.203125 35.015625 19.09375 38.765625 
C 19.59375 39.15625 23 42.1875 28 42.1875 
C 35.296875 42.1875 41.296875 33 41.296875 21.5 
C 41.296875 9.984375 34.90625 0.59375 27 0.59375 
C 23.40625 0.59375 19.5 2.3125 16.5 7.046875 
C 15.203125 9.28125 15.203125 9.875 15.203125 11.5 
z
" id="CMR17-112"/>
     </defs>
     <g transform="translate(261.698373 41.861554)scale(0.12 -0.12)">
      <use transform="scale(0.996264)" xlink:href="#CMR17-69"/>
      <use transform="translate(62.586301 0)scale(0.996264)" xlink:href="#CMR17-120"/>
      <use transform="translate(110.879216 0)scale(0.996264)" xlink:href="#CMR17-112"/>
      <use transform="translate(164.377025 0)scale(0.996264)" xlink:href="#CMR17-101"/>
      <use transform="translate(204.862685 0)scale(0.996264)" xlink:href="#CMR17-114"/>
      <use transform="translate(240.143453 0)scale(0.996264)" xlink:href="#CMR17-105"/>
      <use transform="translate(265.014512 0)scale(0.996264)" xlink:href="#CMR17-109"/>
      <use transform="translate(341.934101 0)scale(0.996264)" xlink:href="#CMR17-101"/>
      <use transform="translate(382.419762 0)scale(0.996264)" xlink:href="#CMR17-110"/>
      <use transform="translate(430.712678 0)scale(0.996264)" xlink:href="#CMR17-116"/>
     </g>
    </g>
    <g id="line2d_124">
     <path d="M 228.098373 54.38615 
L 252.098373 54.38615 
" style="fill:none;stroke:#ff0000;stroke-dasharray:3.7,1.6;stroke-dashoffset:0;"/>
    </g>
    <g id="line2d_125"/>
    <g id="text_16">
     <!-- Fit -->
     <defs>
      <path d="M 54.40625 67.796875 
L 5.09375 67.796875 
L 5.09375 65.1875 
C 12 65.1875 13.09375 65.1875 13.09375 60.671875 
L 13.09375 7.03125 
C 13.09375 2.59375 12 2.59375 5.09375 2.59375 
L 5.09375 0 
C 8 0.1875 13.59375 0.1875 16.703125 0.1875 
C 20.796875 0.1875 25.59375 0.1875 29.703125 0 
L 29.703125 2.59375 
L 27.5 2.59375 
C 19.90625 2.59375 19.703125 3.578125 19.703125 7.125 
L 19.703125 32.390625 
L 28.703125 32.390625 
C 38 32.390625 38.90625 29.140625 38.90625 20.84375 
L 40.703125 20.84375 
L 40.703125 46.734375 
L 38.90625 46.734375 
C 38.90625 38.296875 38 35 28.703125 35 
L 19.703125 35 
L 19.703125 61.28125 
C 19.703125 64.6875 19.90625 65.1875 23.90625 65.1875 
L 36.796875 65.1875 
C 51.90625 65.1875 53.59375 58.96875 55 45.625 
L 56.796875 45.625 
z
" id="CMR17-70"/>
     </defs>
     <g transform="translate(261.698373 58.58615)scale(0.12 -0.12)">
      <use transform="scale(0.996264)" xlink:href="#CMR17-70"/>
      <use transform="translate(59.983847 0)scale(0.996264)" xlink:href="#CMR17-105"/>
      <use transform="translate(84.854905 0)scale(0.996264)" xlink:href="#CMR17-116"/>
     </g>
    </g>
   </g>
  </g>
 </g>
 <defs>
  <clipPath id="p842347f63b">
   <rect height="194.04" width="279" x="53.16429" y="22.661554"/>
  </clipPath>
 </defs>
</svg>
